<?xml version="1.0" encoding="UTF-8" standalone="no"?>
<!-- Created with Inkscape (http://www.inkscape.org/) -->

<svg
   xmlns:dc="http://purl.org/dc/elements/1.1/"
   xmlns:cc="http://creativecommons.org/ns#"
   xmlns:rdf="http://www.w3.org/1999/02/22-rdf-syntax-ns#"
   xmlns:svg="http://www.w3.org/2000/svg"
   xmlns="http://www.w3.org/2000/svg"
   xmlns:sodipodi="http://sodipodi.sourceforge.net/DTD/sodipodi-0.dtd"
   xmlns:inkscape="http://www.inkscape.org/namespaces/inkscape"
   width="210mm"
   height="297mm"
   viewBox="0 0 744.09448819 1052.3622047"
   id="svg2"
   version="1.1"
   inkscape:version="0.91 r13725"
   sodipodi:docname="box1.svg">
  <defs
     id="defs4">
    <inkscape:path-effect
       effect="spiro"
       id="path-effect3374"
       is_visible="true" />
    <inkscape:path-effect
       effect="spiro"
       id="path-effect3456"
       is_visible="true" />
    <inkscape:path-effect
       effect="spiro"
       id="path-effect3456-2"
       is_visible="true" />
    <inkscape:path-effect
       effect="spiro"
       id="path-effect3456-3"
       is_visible="true" />
    <inkscape:path-effect
       effect="spiro"
       id="path-effect3456-4"
       is_visible="true" />
  </defs>
  <sodipodi:namedview
     id="base"
     pagecolor="#ffffff"
     bordercolor="#666666"
     borderopacity="1.0"
     inkscape:pageopacity="0.0"
     inkscape:pageshadow="2"
     inkscape:zoom="2.9991204"
     inkscape:cx="574.20294"
     inkscape:cy="579.93966"
     inkscape:document-units="px"
     inkscape:current-layer="layer2"
     showgrid="false"
     inkscape:object-paths="true"
     inkscape:window-width="1920"
     inkscape:window-height="1018"
     inkscape:window-x="-8"
     inkscape:window-y="-8"
     inkscape:window-maximized="1"
     inkscape:snap-grids="true"
     inkscape:snap-page="false" />
  <metadata
     id="metadata7">
    <rdf:RDF>
      <cc:Work
         rdf:about="">
        <dc:format>image/svg+xml</dc:format>
        <dc:type
           rdf:resource="http://purl.org/dc/dcmitype/StillImage" />
        <dc:title></dc:title>
      </cc:Work>
    </rdf:RDF>
  </metadata>
  <g
     inkscape:label="backruond"
     inkscape:groupmode="layer"
     id="layer1"
     sodipodi:insensitive="true">
    <path
       style="opacity:1;fill:#ff2a2a;fill-opacity:0.82248523;stroke:#000000;stroke-width:0.9618842;stroke-opacity:1"
       d="m 519.38086,413.63867 c -0.0266,0.0242 -0.058,0.0433 -0.082,0.0703 -0.0936,0.10532 -0.1247,0.25274 -0.1875,0.37891 -0.16072,0.27956 -0.26806,0.59893 -0.48242,0.83984 -0.35036,0.39375 -0.8014,0.68436 -1.18946,1.04102 -1.6449,1.51181 -0.65139,0.68322 -1.625,1.4707 0.29097,-0.15292 0.58278,-0.30504 0.8711,-0.46289 1.11032,-0.60784 0.71255,-0.46243 2.05078,-1.13476 0.39163,-0.19676 0.79579,-0.3683 1.19336,-0.55274 0.62439,-0.50729 1.2017,-1.06797 1.75586,-1.65039 l -2.30469,0 z m 5.18359,0 c -0.0299,0.11868 -0.0562,0.23637 -0.0918,0.35352 0.0129,0.001 0.0199,8.1e-4 0.0332,0.002 0.1191,0.0102 0.0116,0.12235 -0.12305,0.24414 -0.056,0.16419 -0.11121,0.32862 -0.17773,0.48828 0.18147,0.12929 0.14059,0.11924 -0.01,0.0234 -0.0209,0.0497 -0.0328,0.1032 -0.0547,0.15234 -0.0922,0.20749 -0.34733,0.29131 -0.52734,0.42969 -0.86519,0.66514 -0.4349,0.23503 -0.95508,0.80664 -0.85211,1.15832 -2.19487,1.79899 -3.38867,2.53711 -0.51606,0.31908 -1.02865,0.64296 -1.54297,0.96484 -0.79823,0.65698 -1.75944,1.08865 -2.56836,1.73047 -2.15993,1.71375 0.89287,-0.17572 -2.30664,1.80664 -2.63369,1.6318 -0.0279,-0.20547 -2.26172,1.42383 -0.30031,0.20388 -0.59476,0.41553 -0.90039,0.61133 -0.31517,0.20191 -0.64638,0.37914 -0.96093,0.58203 -1.91904,1.23784 -0.13609,0.15785 -1.85157,1.25586 -0.18543,0.11018 -0.14582,0.0899 -0.22265,0.13477 l 0,82.4414 c 0.10943,0.016 0.17101,0.063 0.20703,0.13477 0.021,5.6e-4 0.0274,10e-4 0.0488,0.002 0.11035,0.003 0.002,0.21213 -0.006,0.32813 10e-4,0.0555 0.006,0.10973 0.006,0.17968 0.53735,-0.35761 1.0523,-0.75852 1.65234,-0.98828 0.13714,-0.0525 0.2253,0.19609 0.30664,0.31836 0.0207,0.0311 0.0152,0.0328 0.0332,0.0605 0.10285,-0.004 0.20577,-0.0142 0.3086,0.01 0.36417,0.0849 0.49184,0.65034 0.53125,1.26171 0.0246,-0.004 0.0315,-0.006 0.0566,-0.01 0.0452,-0.007 0.0181,0.27661 -0.0274,0.60547 0.0314,0.0267 0.0498,0.0388 0.082,0.0664 0.2841,0.24315 -0.004,0.70785 -0.11329,1.10352 -5e-5,0.0462 9e-5,0.0925 0,0.13867 0.10954,1.0609 0.29111,2.12122 0.23243,3.19141 9e-5,0.11977 -5e-4,0.23959 0,0.35937 0.37737,-0.0238 0.75852,0.0259 1.14062,0.10938 0.003,-0.008 0.007,-0.0156 0.01,-0.0234 0.0879,-0.32186 0.13476,-0.65439 0.22851,-0.97461 0.0428,-0.14612 0.11972,-0.27996 0.17969,-0.41992 0.20241,-0.6719 0.0803,-1.44629 0.0996,-2.14844 -0.10157,-0.9078 -0.13677,-1.98106 0.19531,-2.8457 0.0169,-0.044 0.0355,0.0889 0.0527,0.13281 -0.0467,-0.88028 -0.15575,-1.74168 0.21289,-2.57227 0.0126,-0.28716 0.0341,-0.73737 0.008,-0.8457 -0.0419,-0.77984 -0.26151,-3.36415 0.4082,-3.76953 0.53615,-0.32454 1.3006,-0.0851 1.87305,0.16992 0.25841,0.11516 0.19494,0.52953 0.29297,0.79492 -0.003,0.75948 0.20772,1.52068 -0.0293,2.28321 -0.0564,0.20379 -0.0347,0.47383 -0.084,0.68359 0.0669,0.35816 0.0313,0.96948 0.0273,1.16406 0.0624,1.0972 0.0375,1.2101 0.22656,2.30274 0.0595,0.34368 0.16002,0.68094 0.21485,1.02539 0.10167,0.63862 -0.0342,1.18261 0.002,1.82812 0.17178,1.88641 0.0254,0.7061 0.375,2.66602 0.0746,0.41845 0.11477,0.84471 0.21484,1.25781 0.32181,1.32854 0.5488,1.60007 1.08203,2.91797 0.23998,0.5931 0.46063,1.19231 0.69141,1.78906 0.17691,0.98209 0.29804,2.04872 0.75781,2.95117 0.0168,0.033 0.039,0.0631 0.0566,0.0957 l 83.16797,0 c 0.4103,-0.45691 0.86362,-0.8818 1.39258,-1.25391 2.22218,-1.56326 4.95141,-2.162 7.33594,-3.40234 1.80871,-1.15676 3.59711,-2.34527 5.4043,-3.50391 0.22693,-0.14549 0.46303,-0.27595 0.69335,-0.41601 0.007,-0.004 0.017,-0.0148 0.0254,-0.0215 0.0491,-0.16806 0.10427,-0.33315 0.19336,-0.48242 0.19114,-0.3204 0.50094,-0.56371 0.84765,-0.74414 l 0,-91.52539 c -0.24165,-0.20061 -0.47193,-0.48187 -0.66601,-0.85742 -0.52861,-1.02285 -0.27573,-0.52411 -0.76172,-1.4961 -0.045,-0.0899 -0.0906,-0.17917 -0.13477,-0.26953 -0.13852,-0.0868 -0.27515,-0.18331 -0.41797,-0.24805 -1.00071,-1.32733 -0.66637,-0.84398 -0.86133,-1.22265 -0.1125,-0.0914 -0.22328,-0.18521 -0.34375,-0.26563 -0.27241,-0.18186 -0.56769,-0.32685 -0.85156,-0.49023 l -0.88476,-0.60742 c -0.12961,-0.11283 -0.27028,-0.2153 -0.38868,-0.33985 -0.0192,-0.0202 0.0139,-0.0711 -0.0117,-0.082 -0.16905,-0.0717 -0.3587,-0.0836 -0.53125,-0.14648 -0.74084,-0.26984 -1.45087,-0.58708 -1.93164,-1.24414 -0.45489,-0.30435 -0.96002,-0.52511 -1.43946,-0.78907 -0.31038,-0.17088 -0.61025,-0.3607 -0.92187,-0.52929 -0.11592,-0.0627 -0.23521,-0.11576 -0.35352,-0.17383 -0.002,-0.0138 -0.003,-0.0136 -0.004,-0.0254 -0.20591,-0.10481 -0.90251,-0.45192 -0.98828,-0.68945 -0.005,-0.0144 -0.005,-0.0304 -0.01,-0.0449 -0.10814,-0.11105 -0.28854,-0.38045 -0.2207,-0.30078 0.0682,0.0801 0.13778,0.15886 0.20898,0.23633 -0.0364,-0.12609 -0.0606,-0.25572 -0.0781,-0.38672 l -81.11328,0 z m 81.19141,0.38672 c 0.006,0.0209 0.005,0.0437 0.0117,0.0644 0.0389,0.04 0.0681,0.0575 0.0723,0.0312 -0.0286,-0.0314 -0.0552,-0.0644 -0.084,-0.0957 z m 4.60156,-0.38672 c 0.0465,0.0214 0.0924,0.0444 0.13867,0.0664 -0.0174,-0.0219 -0.0335,-0.0444 -0.0508,-0.0664 l -0.0879,0 z m -4.40039,0.66797 c -0.0364,-0.0229 0.1341,0.10398 0.10742,0.0703 -0.006,-0.008 -0.0131,-0.0155 -0.0195,-0.0234 -0.0347,-0.0206 -0.0495,-0.0228 -0.0879,-0.0469 z m -94.00586,3.42578 c -0.34102,0.18662 -0.68519,0.369 -1.03711,0.53125 -0.40176,0.18524 -0.82151,0.32605 -1.23633,0.48047 -0.54588,0.66842 -0.24276,0.23348 -0.79882,1.14453 -0.006,0.0112 -0.0131,0.0221 -0.0195,0.0332 0.24365,-0.0496 0.48768,-0.0975 0.73046,-0.15235 -0.27385,-0.2631 -0.1459,-0.11448 0.85938,-0.4375 0.24403,-0.0784 0.49367,-0.13938 0.74414,-0.19531 -0.002,-0.50559 0.42171,-1.01576 0.75781,-1.4043 z m -0.0469,0.97656 c -0.005,0.002 -0.0107,0.003 -0.0156,0.006 -0.032,0.0161 -0.0574,0.13037 -0.0391,0.0996 0.0345,-0.0577 0.0305,-0.062 0.0547,-0.10547 z m -1.83008,3.36914 c -0.85285,0.18979 -1.717,0.328 -2.55274,0.5879 -0.24021,0.44936 -0.50959,0.88093 -0.86718,1.25586 l 0,0.43359 c 0.3299,-0.22639 0.68203,-0.46694 0.85742,-0.58008 0.27918,-0.1801 0.57354,-0.33479 0.85351,-0.51367 0.28795,-0.18398 0.56673,-0.38252 0.84961,-0.57422 0.28632,-0.20323 0.57243,-0.40709 0.85938,-0.60938 z m -3.37891,1.54883 c -0.0174,0.0549 -0.0278,0.11189 -0.041,0.16797 l 0,0.0723 c 0.0248,-0.12662 0.0655,-0.31764 0.041,-0.24024 z m 0.21875,87.19336 c -1e-4,0.026 10e-5,0.0521 0,0.0781 0.0127,0.0501 0.0294,0.092 0.0508,0.125 -0.0174,-0.07 -0.0299,-0.12462 -0.0508,-0.20313 z m 6.35742,6.61133 c -0.022,0.0616 -0.0357,0.12492 -0.0625,0.18555 -0.26303,0.59573 -0.35339,0.39386 -0.27343,0.81836 0.0519,0.26948 0.031,0.81456 -0.0586,1.1875 0.0297,0.0255 0.0601,0.0404 0.0899,0.0684 0.0773,0.0725 0.1426,0.15828 0.21484,0.23632 0.0181,-0.009 0.0353,-0.0192 0.0547,-0.0234 0.30192,-0.0657 0.53234,-0.10101 0.76172,-0.12891 -0.24319,-0.60814 -0.46793,-1.22257 -0.62891,-1.86328 -0.0397,-0.15818 -0.0677,-0.32017 -0.0977,-0.48047 z"
       id="rect5906"
       inkscape:connector-curvature="0" />
  </g>
  <g
     inkscape:groupmode="layer"
     id="layer3"
     inkscape:label="spiral"
     sodipodi:insensitive="true"
     style="display:none">
    <path
       sodipodi:type="spiral"
       style="fill:none;fill-rule:evenodd;stroke:#000000;stroke-width:1px;stroke-linecap:butt;stroke-linejoin:miter;stroke-opacity:1"
       id="path3380"
       sodipodi:cx="559.01398"
       sodipodi:cy="470.00687"
       sodipodi:expansion="1"
       sodipodi:revolution="3"
       sodipodi:radius="60.935387"
       sodipodi:argument="-18.304491"
       sodipodi:t0="0"
       d="m 559.01398,470.00687 c 2.61248,1.58404 -0.84635,4.30308 -2.63279,4.34212 -4.84112,0.10578 -7.02042,-5.59422 -6.05146,-9.60769 1.73326,-7.17915 10.10613,-10.02237 16.58259,-7.7608 9.50447,3.31894 13.09379,14.67221 9.47014,23.5575 -4.82974,11.84269 -19.25658,16.19362 -30.53239,11.17948 -14.18947,-6.3098 -19.30795,-23.84946 -12.88882,-37.50731 7.77441,-16.54148 28.44707,-22.43059 44.4822,-14.59816 18.89685,9.23026 25.55847,33.04764 16.3075,51.45711 -10.68061,21.25447 -37.65017,28.68984 -58.43201,18.01684 -23.61365,-12.12733 -31.82364,-42.25409 -19.72618,-65.40692 13.57152,-25.97397 46.85902,-34.95921 72.38182,-21.43551 28.33515,15.01386 38.09612,51.46471 23.14486,79.35672"
       transform="matrix(0.87460936,0,0,0.86889595,71.671851,65.083543)" />
  </g>
  <g
     inkscape:groupmode="layer"
     id="layer2"
     inkscape:label="egese">
    <path
       style="fill:#800066;fill-opacity:1;fill-rule:evenodd;stroke:#000000;stroke-width:0.94842243px;stroke-linecap:butt;stroke-linejoin:miter;stroke-opacity:1"
       d="m 563.62142,412.29987 c -7.72905,-0.50701 -15.46764,-0.86843 -23.2103,-1.084 -5.9189,-0.16479 -11.88401,-0.24105 -17.71313,0.79904 -3.86875,0.6903 -7.73802,1.91621 -10.84165,4.32686 -2.04946,1.59186 -3.71882,3.68303 -4.75366,6.06282 -1.03484,2.37979 -1.42562,5.04582 -1.04891,7.61338 0.5627,3.83522 2.83466,7.32223 5.91083,9.68077 3.07617,2.35855 6.90414,3.633 10.76649,3.96132 7.72471,0.65664 15.27602,-2.30962 22.26101,-5.67298 6.9002,-3.32254 13.58645,-7.08931 20.00362,-11.26926 l 36.80054,-15.73197 -38.17484,1.31402 z"
       id="path3454"
       inkscape:path-effect="#path-effect3456"
       inkscape:original-d="m 563.62142,412.29987 c -7.7603,-1.89555 -15.52879,-1.28474 -23.2103,-1.084 -5.98258,0.15635 -11.75768,-0.25043 -17.71313,0.79904 -3.11239,0.54848 -8.47831,1.66388 -10.84165,4.32686 -1.26638,1.42694 -7.42184,11.51693 -5.80257,13.6762 5.81328,7.75197 31.16602,10.35279 38.93833,7.96911 6.88776,-2.11242 14.88071,-6.39713 20.00362,-11.26926 l 36.80054,-15.73197 z"
       inkscape:connector-curvature="0"
       inkscape:transform-center-x="-2.0492347"
       inkscape:transform-center-y="2.9205451" />
    <path
       style="fill:#800066;fill-opacity:1;fill-rule:evenodd;stroke:#000000;stroke-width:0.94842243px;stroke-linecap:butt;stroke-linejoin:miter;stroke-opacity:1"
       d="m 506.52954,468.23756 c -0.50701,7.72905 -0.86843,15.46764 -1.084,23.2103 -0.16479,5.9189 -0.24105,11.88401 0.79904,17.71313 0.6903,3.86875 1.91621,7.73802 4.32686,10.84165 1.59186,2.04946 3.68303,3.71882 6.06282,4.75366 2.37979,1.03484 5.04582,1.42562 7.61338,1.04891 3.83522,-0.5627 7.32223,-2.83466 9.68077,-5.91083 2.35855,-3.07617 3.633,-6.90414 3.96132,-10.76649 0.65664,-7.72471 -2.30962,-15.27602 -5.67298,-22.26101 -3.32254,-6.9002 -7.08931,-13.58645 -11.26926,-20.00362 l -15.73197,-36.80054 1.31402,38.17484 z"
       id="path3454-8"
       inkscape:path-effect="#path-effect3456-2"
       inkscape:original-d="m 506.52954,468.23756 c -1.89555,7.7603 -1.28474,15.52879 -1.084,23.2103 0.15635,5.98258 -0.25043,11.75768 0.79904,17.71313 0.54848,3.11239 1.66388,8.47831 4.32686,10.84165 1.42694,1.26638 11.51693,7.42184 13.6762,5.80257 7.75197,-5.81328 10.35279,-31.16602 7.96911,-38.93833 -2.11242,-6.88776 -6.39713,-14.88071 -11.26926,-20.00362 l -15.73197,-36.80054 z"
       inkscape:connector-curvature="0"
       inkscape:transform-center-x="-2.9205442"
       inkscape:transform-center-y="-2.0492366" />
    <path
       inkscape:connector-curvature="0"
       style="fill:#800066;fill-opacity:1;fill-rule:evenodd;stroke:#000000;stroke-width:0.94842243px;stroke-linecap:butt;stroke-linejoin:miter;stroke-opacity:1"
       d="m 600.50586,493.76758 c -6.71582,0.17384 -13.26118,2.81292 -19.37305,5.75586 -6.9002,3.32254 -13.58673,7.08763 -20.0039,11.26758 l -36.79883,15.73242 38.17383,-1.31446 c 7.72905,0.50701 15.46827,0.86842 23.21093,1.08399 5.9189,0.16479 11.88377,0.24126 17.71289,-0.79883 3.86875,-0.6903 7.73817,-1.91552 10.8418,-4.32617 2.04946,-1.59186 3.71907,-3.68271 4.75391,-6.0625 1.03484,-2.37979 1.42554,-5.04572 1.04883,-7.61328 -0.5627,-3.83522 -2.83594,-7.3231 -5.91211,-9.68164 -3.07617,-2.35855 -6.90328,-3.63262 -10.76563,-3.96094 -0.96559,-0.0821 -1.92927,-0.10687 -2.88867,-0.082 z"
       id="path3454-4" />
    <path
       style="fill:#800066;fill-opacity:1;fill-rule:evenodd;stroke:#000000;stroke-width:0.94842243px;stroke-linecap:butt;stroke-linejoin:miter;stroke-opacity:1"
       d="m 619.71225,469.70688 c 0.50701,-7.72905 0.86843,-15.46764 1.084,-23.2103 0.16479,-5.9189 0.24105,-11.88401 -0.79904,-17.71313 -0.6903,-3.86875 -1.91621,-7.73802 -4.32686,-10.84165 -1.59186,-2.04946 -3.68303,-3.71882 -6.06282,-4.75366 -2.37979,-1.03484 -5.04582,-1.42562 -7.61338,-1.04891 -3.83522,0.5627 -7.32223,2.83466 -9.68077,5.91083 -2.35855,3.07617 -3.633,6.90414 -3.96132,10.76649 -0.65664,7.72471 2.30962,15.27602 5.67298,22.26101 3.32254,6.9002 7.08931,13.58645 11.26926,20.00362 l 15.73197,36.80054 -1.31402,-38.17484 z"
       id="path3454-5"
       inkscape:path-effect="#path-effect3456-4"
       inkscape:original-d="m 619.71225,469.70688 c 1.89555,-7.7603 1.28474,-15.52879 1.084,-23.2103 -0.15635,-5.98258 0.25043,-11.75768 -0.79904,-17.71313 -0.54848,-3.11239 -1.66388,-8.47831 -4.32686,-10.84165 -1.42694,-1.26638 -11.51693,-7.42184 -13.6762,-5.80257 -7.75197,5.81328 -10.35279,31.16602 -7.96911,38.93833 2.11242,6.88776 6.39713,14.88071 11.26926,20.00362 l 15.73197,36.80054 z"
       inkscape:connector-curvature="0"
       inkscape:transform-center-x="2.9205465"
       inkscape:transform-center-y="2.0492367" />
    <path
       inkscape:connector-curvature="0"
       style="opacity:0;fill:#800080;fill-opacity:0.94509804"
       d="m 594.13867,414.96875 c -0.0811,0 -6.61104,2.76219 -14.51172,6.13672 -11.92676,5.09415 -14.80492,6.4153 -16.95703,7.78125 -9.05351,5.74628 -21.44226,11.90747 -27.88476,13.86914 -9.19383,2.79943 -17.88011,1.68765 -23.71485,-3.03711 -0.81046,-0.65629 -1.47265,-1.13299 -1.47265,-1.05859 0,0.0744 2.66047,6.36586 5.91211,13.98046 3.76494,8.81669 6.3211,14.4872 7.03711,15.61329 5.77579,9.08421 11.66969,20.63782 13.89453,27.23242 3.5162,10.42228 2.53244,19.45774 -2.78907,25.62695 -0.57971,0.67206 -0.89772,1.16039 -0.70703,1.08399 0.19069,-0.0764 6.50038,-2.76881 14.02149,-5.98243 11.35861,-4.85332 14.14299,-6.13601 16.4414,-7.57422 7.46777,-4.67279 17.5306,-9.9368 23.50977,-12.29882 3.50493,-1.38459 7.33785,-2.44942 10.36133,-2.87891 2.71818,-0.38613 7.62801,-0.15707 10.04492,0.46875 2.45901,0.63672 5.74713,2.2737 7.63867,3.80469 1.00065,0.80988 1.46536,1.07284 1.38086,0.78125 -0.07,-0.24171 -2.68911,-6.42287 -5.82031,-13.73633 -4.83493,-11.29279 -5.97272,-13.7444 -7.54688,-16.26758 -7.65582,-12.27132 -13.07482,-23.87067 -14.66015,-31.38086 -0.73867,-3.49949 -0.74527,-8.67767 -0.0137,-11.63672 0.94694,-3.83015 2.36744,-6.57646 4.74219,-9.16992 0.68274,-0.74563 1.17485,-1.35742 1.09375,-1.35742 z m -30.06055,51.73242 c 0.46979,0.01 1.01319,0.34985 1.41211,1.12891 0.87802,1.7147 2.0712,3.22243 3.19532,4.77539 1.70497,2.35539 0.41326,0.75643 2.42187,3.08789 2.69478,2.36686 0.95296,0.95835 4.02539,3.13086 0.56969,0.40282 1.13094,0.81826 1.69531,1.22851 0.29765,0.21635 0.6093,0.41522 0.89063,0.65235 0.1602,0.13502 1.24071,1.21636 1.42969,1.4043 0.74483,0.61585 1.77135,0.63547 2.58008,1.12109 0.42467,0.255 0.82564,0.56188 1.16796,0.91992 0.0654,0.0684 1.29983,1.7733 1.58204,2.16211 0.21539,-0.0593 0.39136,-0.0242 0.41406,0.20117 0.25849,0.13591 0.56851,0.32257 0.96094,0.58985 0.0109,-0.0894 0.0167,-0.14097 0.0312,-0.24024 -1.13547,-1.19399 0.44792,-0.0876 0.86914,0.22852 1.86676,1.40102 0.44825,3.28908 -1.41602,1.88476 -0.12426,-0.0936 -0.36534,-0.12221 -0.37695,-0.27734 -0.006,-0.0834 0.33118,0.0208 0.25195,-0.006 -0.16517,-0.0562 -0.20364,-0.0541 -0.29687,-0.0762 -0.37831,0.11957 -0.79922,0.087 -1.27149,-0.0899 -0.38631,-0.14461 -0.66651,-0.48575 -1,-0.72851 -0.23807,-0.32789 -0.48438,-0.64913 -0.71484,-0.98242 -0.23187,-0.33531 -0.65373,-1.14232 -1.07617,-1.39649 -0.32753,-0.19706 -0.70982,-0.28316 -1.06446,-0.42578 -1.56766,-0.63041 -0.82069,-0.24766 -2.30273,-1.21289 -0.221,-0.21978 -0.44286,-0.43864 -0.66211,-0.66016 -0.1683,-0.17004 -0.31693,-0.36158 -0.5,-0.51562 -0.27775,-0.23371 -0.58532,-0.42912 -0.87891,-0.64258 -0.55378,-0.40266 -1.10612,-0.80821 -1.66406,-1.20508 -3.30794,-2.35302 -1.5334,-0.91171 -4.46289,-3.52929 -2.19165,-2.56874 -0.79178,-0.82077 -2.52734,-3.21875 -1.20401,-1.66356 -2.47247,-3.286 -3.40821,-5.125 -0.66154,-1.30014 -0.0876,-2.19985 0.69531,-2.1836 z m 20.81446,19.8125 c -0.14961,-0.0787 -0.29425,-0.14965 -0.40625,-0.18945 0.0113,0.0156 0.0587,0.0793 0.0664,0.0898 0.11534,0.0389 0.35198,0.23875 0.34571,0.11719 -4.2e-4,-0.008 -0.005,-0.01 -0.006,-0.0176 z m -0.40625,-0.18945 c -10e-4,-0.002 -0.006,-0.01 -0.008,-0.0117 -0.006,0.002 -0.0115,0.002 -0.0176,0.004 0.01,0.003 0.0155,0.004 0.0254,0.008 z m -0.69727,0.4082 c -0.1796,0.17842 -0.27867,0.36013 -0.15234,0.44531 0.0605,0.0408 0.0778,0.0478 0.13476,0.0859 -0.004,-0.19319 0.003,-0.3849 0.0176,-0.53125 z"
       id="path3530" />
    <path
       inkscape:connector-curvature="0"
       style="opacity:0;fill:#ffff00;fill-opacity:0.94509804"
       d="m 594.13867,414.96875 c -0.0811,0 -6.61104,2.76219 -14.51172,6.13672 -11.92676,5.09415 -14.80492,6.4153 -16.95703,7.78125 -9.05351,5.74628 -21.44226,11.90747 -27.88476,13.86914 -9.19383,2.79943 -17.88011,1.68765 -23.71485,-3.03711 -0.81046,-0.65629 -1.47265,-1.13299 -1.47265,-1.05859 0,0.0744 2.66047,6.36586 5.91211,13.98046 3.76494,8.81669 6.3211,14.4872 7.03711,15.61329 5.77579,9.08421 11.66969,20.63782 13.89453,27.23242 3.5162,10.42228 2.53244,19.45774 -2.78907,25.62695 -0.57971,0.67206 -0.89772,1.16039 -0.70703,1.08399 0.19069,-0.0764 6.50038,-2.76881 14.02149,-5.98243 11.35861,-4.85332 14.14299,-6.13601 16.4414,-7.57422 7.46777,-4.67279 17.5306,-9.9368 23.50977,-12.29882 3.50493,-1.38459 7.33785,-2.44942 10.36133,-2.87891 2.71818,-0.38613 7.62801,-0.15707 10.04492,0.46875 2.45901,0.63672 5.74713,2.2737 7.63867,3.80469 1.00065,0.80988 1.46536,1.07284 1.38086,0.78125 -0.07,-0.24171 -2.68911,-6.42287 -5.82031,-13.73633 -4.83493,-11.29279 -5.97272,-13.7444 -7.54688,-16.26758 -7.65582,-12.27132 -13.07482,-23.87067 -14.66015,-31.38086 -0.73867,-3.49949 -0.74527,-8.67767 -0.0137,-11.63672 0.94694,-3.83015 2.36744,-6.57646 4.74219,-9.16992 0.68274,-0.74563 1.17485,-1.35742 1.09375,-1.35742 z m -30.06055,51.73242 c 0.46979,0.01 1.01319,0.34985 1.41211,1.12891 0.87802,1.7147 2.0712,3.22243 3.19532,4.77539 1.70497,2.35539 0.41326,0.75643 2.42187,3.08789 2.69478,2.36686 0.95296,0.95835 4.02539,3.13086 0.56969,0.40282 1.13094,0.81826 1.69531,1.22851 0.29765,0.21635 0.6093,0.41522 0.89063,0.65235 0.1602,0.13502 1.24071,1.21636 1.42969,1.4043 0.74483,0.61585 1.77135,0.63547 2.58008,1.12109 0.42467,0.255 0.82564,0.56188 1.16796,0.91992 0.0654,0.0684 1.29983,1.7733 1.58204,2.16211 0.21539,-0.0593 0.39136,-0.0242 0.41406,0.20117 0.25849,0.13591 0.56851,0.32257 0.96094,0.58985 0.0109,-0.0894 0.0167,-0.14097 0.0312,-0.24024 -1.13547,-1.19399 0.44792,-0.0876 0.86914,0.22852 1.86676,1.40102 0.44825,3.28908 -1.41602,1.88476 -0.12426,-0.0936 -0.36534,-0.12221 -0.37695,-0.27734 -0.006,-0.0834 0.33118,0.0208 0.25195,-0.006 -0.16517,-0.0562 -0.20364,-0.0541 -0.29687,-0.0762 -0.37831,0.11957 -0.79922,0.087 -1.27149,-0.0899 -0.38631,-0.14461 -0.66651,-0.48575 -1,-0.72851 -0.23807,-0.32789 -0.48438,-0.64913 -0.71484,-0.98242 -0.23187,-0.33531 -0.65373,-1.14232 -1.07617,-1.39649 -0.32753,-0.19706 -0.70982,-0.28316 -1.06446,-0.42578 -1.56766,-0.63041 -0.82069,-0.24766 -2.30273,-1.21289 -0.221,-0.21978 -0.44286,-0.43864 -0.66211,-0.66016 -0.1683,-0.17004 -0.31693,-0.36158 -0.5,-0.51562 -0.27775,-0.23371 -0.58532,-0.42912 -0.87891,-0.64258 -0.55378,-0.40266 -1.10612,-0.80821 -1.66406,-1.20508 -3.30794,-2.35302 -1.5334,-0.91171 -4.46289,-3.52929 -2.19165,-2.56874 -0.79178,-0.82077 -2.52734,-3.21875 -1.20401,-1.66356 -2.47247,-3.286 -3.40821,-5.125 -0.66154,-1.30014 -0.0876,-2.19985 0.69531,-2.1836 z m 20.81446,19.8125 c -0.14961,-0.0787 -0.29425,-0.14965 -0.40625,-0.18945 0.0113,0.0156 0.0587,0.0793 0.0664,0.0898 0.11534,0.0389 0.35198,0.23875 0.34571,0.11719 -4.2e-4,-0.008 -0.005,-0.01 -0.006,-0.0176 z m -0.40625,-0.18945 c -10e-4,-0.002 -0.006,-0.01 -0.008,-0.0117 -0.006,0.002 -0.0115,0.002 -0.0176,0.004 0.01,0.003 0.0155,0.004 0.0254,0.008 z m -0.69727,0.4082 c -0.1796,0.17842 -0.27867,0.36013 -0.15234,0.44531 0.0605,0.0408 0.0778,0.0478 0.13476,0.0859 -0.004,-0.19319 0.003,-0.3849 0.0176,-0.53125 z"
       id="path3532" />
    <path
       inkscape:connector-curvature="0"
       style="opacity:0;fill:#ffff00;fill-opacity:0.94509804"
       d="m 594.13867,414.96875 c -0.0811,0 -6.61104,2.76219 -14.51172,6.13672 -11.92676,5.09415 -14.80492,6.4153 -16.95703,7.78125 -9.05351,5.74628 -21.44226,11.90747 -27.88476,13.86914 -9.19383,2.79943 -17.88011,1.68765 -23.71485,-3.03711 -0.81046,-0.65629 -1.47265,-1.13299 -1.47265,-1.05859 0,0.0744 2.66047,6.36586 5.91211,13.98046 3.76494,8.81669 6.3211,14.4872 7.03711,15.61329 5.77579,9.08421 11.66969,20.63782 13.89453,27.23242 3.5162,10.42228 2.53244,19.45774 -2.78907,25.62695 -0.57971,0.67206 -0.89772,1.16039 -0.70703,1.08399 0.19069,-0.0764 6.50038,-2.76881 14.02149,-5.98243 11.35861,-4.85332 14.14299,-6.13601 16.4414,-7.57422 7.46777,-4.67279 17.5306,-9.9368 23.50977,-12.29882 3.50493,-1.38459 7.33785,-2.44942 10.36133,-2.87891 2.71818,-0.38613 7.62801,-0.15707 10.04492,0.46875 2.45901,0.63672 5.74713,2.2737 7.63867,3.80469 1.00065,0.80988 1.46536,1.07284 1.38086,0.78125 -0.07,-0.24171 -2.68911,-6.42287 -5.82031,-13.73633 -4.83493,-11.29279 -5.97272,-13.7444 -7.54688,-16.26758 -7.65582,-12.27132 -13.07482,-23.87067 -14.66015,-31.38086 -0.73867,-3.49949 -0.74527,-8.67767 -0.0137,-11.63672 0.94694,-3.83015 2.36744,-6.57646 4.74219,-9.16992 0.68274,-0.74563 1.17485,-1.35742 1.09375,-1.35742 z m -30.06055,51.73242 c 0.46979,0.01 1.01319,0.34985 1.41211,1.12891 0.87802,1.7147 2.0712,3.22243 3.19532,4.77539 1.70497,2.35539 0.41326,0.75643 2.42187,3.08789 2.69478,2.36686 0.95296,0.95835 4.02539,3.13086 0.56969,0.40282 1.13094,0.81826 1.69531,1.22851 0.29765,0.21635 0.6093,0.41522 0.89063,0.65235 0.1602,0.13502 1.24071,1.21636 1.42969,1.4043 0.74483,0.61585 1.77135,0.63547 2.58008,1.12109 0.42467,0.255 0.82564,0.56188 1.16796,0.91992 0.0654,0.0684 1.29983,1.7733 1.58204,2.16211 0.21539,-0.0593 0.39136,-0.0242 0.41406,0.20117 0.25849,0.13591 0.56851,0.32257 0.96094,0.58985 0.0109,-0.0894 0.0167,-0.14097 0.0312,-0.24024 -1.13547,-1.19399 0.44792,-0.0876 0.86914,0.22852 1.86676,1.40102 0.44825,3.28908 -1.41602,1.88476 -0.12426,-0.0936 -0.36534,-0.12221 -0.37695,-0.27734 -0.006,-0.0834 0.33118,0.0208 0.25195,-0.006 -0.16517,-0.0562 -0.20364,-0.0541 -0.29687,-0.0762 -0.37831,0.11957 -0.79922,0.087 -1.27149,-0.0899 -0.38631,-0.14461 -0.66651,-0.48575 -1,-0.72851 -0.23807,-0.32789 -0.48438,-0.64913 -0.71484,-0.98242 -0.23187,-0.33531 -0.65373,-1.14232 -1.07617,-1.39649 -0.32753,-0.19706 -0.70982,-0.28316 -1.06446,-0.42578 -1.56766,-0.63041 -0.82069,-0.24766 -2.30273,-1.21289 -0.221,-0.21978 -0.44286,-0.43864 -0.66211,-0.66016 -0.1683,-0.17004 -0.31693,-0.36158 -0.5,-0.51562 -0.27775,-0.23371 -0.58532,-0.42912 -0.87891,-0.64258 -0.55378,-0.40266 -1.10612,-0.80821 -1.66406,-1.20508 -3.30794,-2.35302 -1.5334,-0.91171 -4.46289,-3.52929 -2.19165,-2.56874 -0.79178,-0.82077 -2.52734,-3.21875 -1.20401,-1.66356 -2.47247,-3.286 -3.40821,-5.125 -0.66154,-1.30014 -0.0876,-2.19985 0.69531,-2.1836 z m 20.81446,19.8125 c -0.14961,-0.0787 -0.29425,-0.14965 -0.40625,-0.18945 0.0113,0.0156 0.0587,0.0793 0.0664,0.0898 0.11534,0.0389 0.35198,0.23875 0.34571,0.11719 -4.2e-4,-0.008 -0.005,-0.01 -0.006,-0.0176 z m -0.40625,-0.18945 c -10e-4,-0.002 -0.006,-0.01 -0.008,-0.0117 -0.006,0.002 -0.0115,0.002 -0.0176,0.004 0.01,0.003 0.0155,0.004 0.0254,0.008 z m -0.69727,0.4082 c -0.1796,0.17842 -0.27867,0.36013 -0.15234,0.44531 0.0605,0.0408 0.0778,0.0478 0.13476,0.0859 -0.004,-0.19319 0.003,-0.3849 0.0176,-0.53125 z"
       id="path3534" />
    <path
       inkscape:connector-curvature="0"
       style="opacity:0;fill:#ffff00;fill-opacity:0.94509804"
       d="m 594.13867,414.96875 c -0.0811,0 -6.61104,2.76219 -14.51172,6.13672 -11.92676,5.09415 -14.80492,6.4153 -16.95703,7.78125 -9.05351,5.74628 -21.44226,11.90747 -27.88476,13.86914 -9.19383,2.79943 -17.88011,1.68765 -23.71485,-3.03711 -0.81046,-0.65629 -1.47265,-1.13299 -1.47265,-1.05859 0,0.0744 2.66047,6.36586 5.91211,13.98046 3.76494,8.81669 6.3211,14.4872 7.03711,15.61329 5.77579,9.08421 11.66969,20.63782 13.89453,27.23242 3.5162,10.42228 2.53244,19.45774 -2.78907,25.62695 -0.57971,0.67206 -0.89772,1.16039 -0.70703,1.08399 0.19069,-0.0764 6.50038,-2.76881 14.02149,-5.98243 11.35861,-4.85332 14.14299,-6.13601 16.4414,-7.57422 7.46777,-4.67279 17.5306,-9.9368 23.50977,-12.29882 3.50493,-1.38459 7.33785,-2.44942 10.36133,-2.87891 2.71818,-0.38613 7.62801,-0.15707 10.04492,0.46875 2.45901,0.63672 5.74713,2.2737 7.63867,3.80469 1.00065,0.80988 1.46536,1.07284 1.38086,0.78125 -0.07,-0.24171 -2.68911,-6.42287 -5.82031,-13.73633 -4.83493,-11.29279 -5.97272,-13.7444 -7.54688,-16.26758 -7.65582,-12.27132 -13.07482,-23.87067 -14.66015,-31.38086 -0.73867,-3.49949 -0.74527,-8.67767 -0.0137,-11.63672 0.94694,-3.83015 2.36744,-6.57646 4.74219,-9.16992 0.68274,-0.74563 1.17485,-1.35742 1.09375,-1.35742 z m -30.06055,51.73242 c 0.46979,0.01 1.01319,0.34985 1.41211,1.12891 0.87802,1.7147 2.0712,3.22243 3.19532,4.77539 1.70497,2.35539 0.41326,0.75643 2.42187,3.08789 2.69478,2.36686 0.95296,0.95835 4.02539,3.13086 0.56969,0.40282 1.13094,0.81826 1.69531,1.22851 0.29765,0.21635 0.6093,0.41522 0.89063,0.65235 0.1602,0.13502 1.24071,1.21636 1.42969,1.4043 0.74483,0.61585 1.77135,0.63547 2.58008,1.12109 0.42467,0.255 0.82564,0.56188 1.16796,0.91992 0.0654,0.0684 1.29983,1.7733 1.58204,2.16211 0.21539,-0.0593 0.39136,-0.0242 0.41406,0.20117 0.25849,0.13591 0.56851,0.32257 0.96094,0.58985 0.0109,-0.0894 0.0167,-0.14097 0.0312,-0.24024 -1.13547,-1.19399 0.44792,-0.0876 0.86914,0.22852 1.86676,1.40102 0.44825,3.28908 -1.41602,1.88476 -0.12426,-0.0936 -0.36534,-0.12221 -0.37695,-0.27734 -0.006,-0.0834 0.33118,0.0208 0.25195,-0.006 -0.16517,-0.0562 -0.20364,-0.0541 -0.29687,-0.0762 -0.37831,0.11957 -0.79922,0.087 -1.27149,-0.0899 -0.38631,-0.14461 -0.66651,-0.48575 -1,-0.72851 -0.23807,-0.32789 -0.48438,-0.64913 -0.71484,-0.98242 -0.23187,-0.33531 -0.65373,-1.14232 -1.07617,-1.39649 -0.32753,-0.19706 -0.70982,-0.28316 -1.06446,-0.42578 -1.56766,-0.63041 -0.82069,-0.24766 -2.30273,-1.21289 -0.221,-0.21978 -0.44286,-0.43864 -0.66211,-0.66016 -0.1683,-0.17004 -0.31693,-0.36158 -0.5,-0.51562 -0.27775,-0.23371 -0.58532,-0.42912 -0.87891,-0.64258 -0.55378,-0.40266 -1.10612,-0.80821 -1.66406,-1.20508 -3.30794,-2.35302 -1.5334,-0.91171 -4.46289,-3.52929 -2.19165,-2.56874 -0.79178,-0.82077 -2.52734,-3.21875 -1.20401,-1.66356 -2.47247,-3.286 -3.40821,-5.125 -0.66154,-1.30014 -0.0876,-2.19985 0.69531,-2.1836 z m 20.81446,19.8125 c -0.14961,-0.0787 -0.29425,-0.14965 -0.40625,-0.18945 0.0113,0.0156 0.0587,0.0793 0.0664,0.0898 0.11534,0.0389 0.35198,0.23875 0.34571,0.11719 -4.2e-4,-0.008 -0.005,-0.01 -0.006,-0.0176 z m -0.40625,-0.18945 c -10e-4,-0.002 -0.006,-0.01 -0.008,-0.0117 -0.006,0.002 -0.0115,0.002 -0.0176,0.004 0.01,0.003 0.0155,0.004 0.0254,0.008 z m -0.69727,0.4082 c -0.1796,0.17842 -0.27867,0.36013 -0.15234,0.44531 0.0605,0.0408 0.0778,0.0478 0.13476,0.0859 -0.004,-0.19319 0.003,-0.3849 0.0176,-0.53125 z"
       id="path3536" />
    <path
       inkscape:connector-curvature="0"
       style="opacity:0;fill:#ffff00;fill-opacity:0.94509804"
       d="m 594.13867,414.96875 c -0.0811,0 -6.61104,2.76219 -14.51172,6.13672 -11.92676,5.09415 -14.80492,6.4153 -16.95703,7.78125 -9.05351,5.74628 -21.44226,11.90747 -27.88476,13.86914 -9.19383,2.79943 -17.88011,1.68765 -23.71485,-3.03711 -0.81046,-0.65629 -1.47265,-1.13299 -1.47265,-1.05859 0,0.0744 2.66047,6.36586 5.91211,13.98046 3.76494,8.81669 6.3211,14.4872 7.03711,15.61329 5.77579,9.08421 11.66969,20.63782 13.89453,27.23242 3.5162,10.42228 2.53244,19.45774 -2.78907,25.62695 -0.57971,0.67206 -0.89772,1.16039 -0.70703,1.08399 0.19069,-0.0764 6.50038,-2.76881 14.02149,-5.98243 11.35861,-4.85332 14.14299,-6.13601 16.4414,-7.57422 7.46777,-4.67279 17.5306,-9.9368 23.50977,-12.29882 3.50493,-1.38459 7.33785,-2.44942 10.36133,-2.87891 2.71818,-0.38613 7.62801,-0.15707 10.04492,0.46875 2.45901,0.63672 5.74713,2.2737 7.63867,3.80469 1.00065,0.80988 1.46536,1.07284 1.38086,0.78125 -0.07,-0.24171 -2.68911,-6.42287 -5.82031,-13.73633 -4.83493,-11.29279 -5.97272,-13.7444 -7.54688,-16.26758 -7.65582,-12.27132 -13.07482,-23.87067 -14.66015,-31.38086 -0.73867,-3.49949 -0.74527,-8.67767 -0.0137,-11.63672 0.94694,-3.83015 2.36744,-6.57646 4.74219,-9.16992 0.68274,-0.74563 1.17485,-1.35742 1.09375,-1.35742 z m -30.06055,51.73242 c 0.46979,0.01 1.01319,0.34985 1.41211,1.12891 0.87802,1.7147 2.0712,3.22243 3.19532,4.77539 1.70497,2.35539 0.41326,0.75643 2.42187,3.08789 2.69478,2.36686 0.95296,0.95835 4.02539,3.13086 0.56969,0.40282 1.13094,0.81826 1.69531,1.22851 0.29765,0.21635 0.6093,0.41522 0.89063,0.65235 0.1602,0.13502 1.24071,1.21636 1.42969,1.4043 0.74483,0.61585 1.77135,0.63547 2.58008,1.12109 0.42467,0.255 0.82564,0.56188 1.16796,0.91992 0.0654,0.0684 1.29983,1.7733 1.58204,2.16211 0.21539,-0.0593 0.39136,-0.0242 0.41406,0.20117 0.25849,0.13591 0.56851,0.32257 0.96094,0.58985 0.0109,-0.0894 0.0167,-0.14097 0.0312,-0.24024 -1.13547,-1.19399 0.44792,-0.0876 0.86914,0.22852 1.86676,1.40102 0.44825,3.28908 -1.41602,1.88476 -0.12426,-0.0936 -0.36534,-0.12221 -0.37695,-0.27734 -0.006,-0.0834 0.33118,0.0208 0.25195,-0.006 -0.16517,-0.0562 -0.20364,-0.0541 -0.29687,-0.0762 -0.37831,0.11957 -0.79922,0.087 -1.27149,-0.0899 -0.38631,-0.14461 -0.66651,-0.48575 -1,-0.72851 -0.23807,-0.32789 -0.48438,-0.64913 -0.71484,-0.98242 -0.23187,-0.33531 -0.65373,-1.14232 -1.07617,-1.39649 -0.32753,-0.19706 -0.70982,-0.28316 -1.06446,-0.42578 -1.56766,-0.63041 -0.82069,-0.24766 -2.30273,-1.21289 -0.221,-0.21978 -0.44286,-0.43864 -0.66211,-0.66016 -0.1683,-0.17004 -0.31693,-0.36158 -0.5,-0.51562 -0.27775,-0.23371 -0.58532,-0.42912 -0.87891,-0.64258 -0.55378,-0.40266 -1.10612,-0.80821 -1.66406,-1.20508 -3.30794,-2.35302 -1.5334,-0.91171 -4.46289,-3.52929 -2.19165,-2.56874 -0.79178,-0.82077 -2.52734,-3.21875 -1.20401,-1.66356 -2.47247,-3.286 -3.40821,-5.125 -0.66154,-1.30014 -0.0876,-2.19985 0.69531,-2.1836 z m 20.81446,19.8125 c -0.14961,-0.0787 -0.29425,-0.14965 -0.40625,-0.18945 0.0113,0.0156 0.0587,0.0793 0.0664,0.0898 0.11534,0.0389 0.35198,0.23875 0.34571,0.11719 -4.2e-4,-0.008 -0.005,-0.01 -0.006,-0.0176 z m -0.40625,-0.18945 c -10e-4,-0.002 -0.006,-0.01 -0.008,-0.0117 -0.006,0.002 -0.0115,0.002 -0.0176,0.004 0.01,0.003 0.0155,0.004 0.0254,0.008 z m -0.69727,0.4082 c -0.1796,0.17842 -0.27867,0.36013 -0.15234,0.44531 0.0605,0.0408 0.0778,0.0478 0.13476,0.0859 -0.004,-0.19319 0.003,-0.3849 0.0176,-0.53125 z"
       id="path3538" />
  </g>
</svg>
