<?xml version="1.0" encoding="UTF-8" standalone="no"?>
<!-- Created with Inkscape (http://www.inkscape.org/) -->

<svg
   xmlns:dc="http://purl.org/dc/elements/1.1/"
   xmlns:cc="http://creativecommons.org/ns#"
   xmlns:rdf="http://www.w3.org/1999/02/22-rdf-syntax-ns#"
   xmlns:svg="http://www.w3.org/2000/svg"
   xmlns="http://www.w3.org/2000/svg"
   xmlns:sodipodi="http://sodipodi.sourceforge.net/DTD/sodipodi-0.dtd"
   xmlns:inkscape="http://www.inkscape.org/namespaces/inkscape"
   width="220mm"
   height="110mm"
   viewBox="0 0 779.52756 389.76379"
   id="svg2"
   version="1.1"
   inkscape:version="0.91 r13725"
   sodipodi:docname="drawing.svg">
  <defs
     id="defs4">
    <inkscape:path-effect
       effect="skeletal"
       id="path-effect3350"
       is_visible="true"
       pattern="m 0,667.59836 c 0,-2.76 2.24,-5 5,-5 2.76,0 5,2.24 5,5 0,2.76 -2.24,5 -5,5 -2.76,0 -5,-2.24 -5,-5 z"
       copytype="single_stretched"
       prop_scale="1"
       scale_y_rel="false"
       spacing="0"
       normal_offset="0"
       tang_offset="0"
       prop_units="false"
       vertical_pattern="false"
       fuse_tolerance="0" />
  </defs>
  <sodipodi:namedview
     id="base"
     pagecolor="#ffffff"
     bordercolor="#666666"
     borderopacity="1.0"
     inkscape:pageopacity="0.0"
     inkscape:pageshadow="2"
     inkscape:zoom="1.4142136"
     inkscape:cx="116.01111"
     inkscape:cy="-116.85357"
     inkscape:document-units="px"
     inkscape:current-layer="layer1"
     showgrid="false"
     units="in"
     inkscape:window-width="1920"
     inkscape:window-height="1018"
     inkscape:window-x="-8"
     inkscape:window-y="-8"
     inkscape:window-maximized="1" />
  <metadata
     id="metadata7">
    <rdf:RDF>
      <cc:Work
         rdf:about="">
        <dc:format>image/svg+xml</dc:format>
        <dc:type
           rdf:resource="http://purl.org/dc/dcmitype/StillImage" />
        <dc:title></dc:title>
      </cc:Work>
    </rdf:RDF>
  </metadata>
  <g
     inkscape:label="Layer 1"
     inkscape:groupmode="layer"
     id="layer1"
     transform="translate(0,-662.59836)">
    <g
       id="g4158">
      <path
         inkscape:connector-curvature="0"
         id="path3346"
         d="m -14.285714,980.93358 c 28.613198,28.43252 52.567959,-7.14285 75.714285,-7.14285 7.555607,0 33.991749,25.28365 47.142859,28.57137 25.92204,6.4806 222.68779,-9.83059 234.28571,-21.42852 6.81801,-6.81801 15.66154,11.4022 24.28572,15.71429 4.58028,2.29014 65.75526,-1.42857 72.85714,-1.42857 10.4885,0 57.19236,-19.95051 60,-17.14286 2.29014,2.29013 44.26696,47.18036 54.28571,27.14286 7.31484,-14.62968 63.99313,-2.7108 78.57143,-10 13.00271,-6.50135 26.86332,-33.13669 37.14286,-22.85715 16.33159,16.33159 62.15796,3.58654 62.85714,4.28572 0.82355,0.82354 32.83738,28.61093 35.71429,22.85714 6.22128,-12.44256 32.45264,-15.40877 51.42857,-18.57143"
         style="fill:none;fill-rule:evenodd;stroke:#000000;stroke-width:1px;stroke-linecap:butt;stroke-linejoin:miter;stroke-opacity:1" />
      <path
         inkscape:connector-curvature="0"
         inkscape:original-d="m -11.428571,982.36215 0,125.71425 827.142861,0 0,-122.8571 2.85714,0"
         inkscape:path-effect="#path-effect3350"
         id="path3348"
         d="m -11.428571,982.36215 c 1.308994,0 2.1701863,47.17265 1.6039748,124.11025 99.1150322,-0.5476 247.0071162,-0.896 411.9674462,-0.896 164.96035,0 312.85244,0.3484 411.96748,0.896 0.37205,-66.8584 0.83607,-110.71186 1.34524,-121.51182 0,0 1e-5,0 1e-5,0 2.1465,-0.0861 3.11585,0.0827 3.11585,0.25872 0,0.17609 -0.96677,0.34466 -2.59842,0.25872 0,0 0,0 0,0 0.50917,11.8183 0.97319,56.59988 1.34525,124.20238 -98.78733,0.5476 -248.06814,0.896 -415.17541,0.896 -167.10724,0 -316.388053,-0.3484 -415.175397,-0.896 -0.567478,-79.9837 0.29625,-127.31825 1.603976,-127.31825 z"
         style="fill:#000000;fill-rule:evenodd;stroke:none;stroke-width:1px;stroke-linecap:butt;stroke-linejoin:miter;stroke-opacity:1" />
    </g>
    <path
       style="opacity:1;fill:#00ff00;fill-opacity:1;stroke:#000000;stroke-width:0.05050763;stroke-linecap:round;stroke-linejoin:miter;stroke-miterlimit:4;stroke-dasharray:none;stroke-dashoffset:0;stroke-opacity:0.04166667"
       d="m 454.34032,442.84272 -169.32903,-0.12776 0.12848,-55.91804 0.12847,-55.91804 6.81853,-0.88003 c 17.91362,-2.31202 36.09685,-5.54622 43.29535,-7.70082 4.26124,-1.27545 6.57433,-2.31834 8.81315,-3.97354 2.64359,-1.95445 4.98651,-0.48698 13.76152,8.6194 7.24143,7.51489 8.2822,8.10536 14.98617,8.50214 5.34428,0.31631 24.55007,-0.24374 53.74664,-1.56728 20.20014,-0.91572 17.66495,-0.32564 52.78047,-12.28492 7.36148,-2.5071 14.80494,-4.83388 16.54101,-5.17061 l 3.15649,-0.61224 6.94965,6.75792 c 17.64573,17.15893 30.897,25.69829 39.87827,25.69829 3.40354,0 5.68089,-0.94013 7.2506,-2.99318 4.3875,-5.73847 6.3378,-6.96638 13.51901,-8.51156 3.28115,-0.706 7.83611,-0.84551 29.88266,-0.91524 29.85751,-0.0944 32.84727,-0.37209 38.30209,-3.55709 1.29611,-0.75677 6.80281,-5.73847 12.23713,-11.07043 10.4784,-10.28105 13.9246,-12.84048 17.30048,-12.84879 2.27229,-0.006 3.47134,0.55902 6.01277,2.83126 5.09223,4.55287 16.43642,7.77061 27.39542,7.77061 l 2.29275,0 0,62.12438 0,62.12438 -38.25953,-0.12552 c -21.04274,-0.069 -114.45759,-0.18302 -207.58855,-0.25329 z"
       id="path4162"
       inkscape:connector-curvature="0"
       transform="translate(0,662.59836)" />
    <path
       style="fill:#00ff00;fill-opacity:1;opacity:1;stroke:#000000;stroke-opacity:0.04166667;stroke-linejoin:miter;stroke-width:0.1;stroke-miterlimit:4;stroke-dasharray:none;stroke-dashoffset:0;stroke-linecap:round"
       d="m -9.3504735,407.65467 c -0.00769,-36.12833 -0.7264365,-82.36995 -1.3088265,-84.2049 -0.250694,-0.78987 0.113533,-0.67418 2.0310931,0.64514 3.6574992,2.51643 8.4104836,4.54372 12.7392711,5.43368 3.3325897,0.68516 4.7024253,0.72493 8.5170048,0.24729 6.640762,-0.83151 9.668355,-1.96802 24.496199,-9.19543 13.511609,-6.58585 18.93781,-8.58747 23.223357,-8.56664 3.953363,0.0192 5.401462,0.87415 24.001275,14.17006 11.965797,8.55364 18.72413,12.68081 22.72843,13.87976 4.29606,1.28632 11.02921,1.72083 26.76904,1.7275 33.32979,0.0141 94.50804,-4.19981 141.80017,-9.76711 l 9.47018,-1.11484 0.11993,18.95731 0.11993,18.95731 0.13875,-18.80601 0.13874,-18.80601 1.13029,-0.24372 c 0.62165,-0.13404 6.24417,-0.94699 12.49449,-1.80655 23.07197,-3.1729 37.14845,-6.27086 43.18403,-9.50396 1.94454,-1.04165 4.02657,-1.81326 4.62674,-1.71471 1.37904,0.22646 5.62301,3.91483 11.84074,10.2906 7.31729,7.50327 6.50842,7.27028 24.94877,7.18637 13.80743,-0.0628 47.67422,-1.27794 55.05331,-1.97525 6.53216,-0.61727 11.91178,-2.0946 33.0825,-9.08499 12.08395,-3.99002 23.05905,-7.49635 24.38907,-7.79185 l 2.41831,-0.53726 8.3235,7.78509 c 4.57791,4.2818 9.85364,9.03164 11.72383,10.5552 11.50746,9.37453 20.48999,13.99746 27.19775,13.99746 3.8904,0 5.094,-0.65211 9.28512,-5.03049 6.42528,-6.71237 7.68105,-6.92627 42.93149,-7.3126 13.7507,-0.15071 26.59226,-0.50596 28.53681,-0.78945 6.0693,-0.88483 8.58341,-2.52044 18.68782,-12.15774 10.49887,-10.01356 13.29997,-12.36592 16.34043,-13.72276 2.89606,-1.29239 4.86171,-0.88987 8.04955,1.64834 6.10546,4.86121 16.61812,8.06236 26.49645,8.06824 l 3.40927,0.002 0,61.87185 0,61.87184 -122.39716,0 c -67.31843,0 -160.61566,-0.15129 -207.32719,-0.33619 l -84.93004,-0.33619 -0.13983,-16.96268 -0.13983,-16.96267 -0.11933,17.22859 -0.11932,17.22859 -134.22402,0.32587 c -73.823208,0.17922 -139.962946,0.46795 -146.977193,0.64162 l -12.7531759,0.31575 -0.00772,-36.30549 z"
       id="path4166"
       inkscape:connector-curvature="0"
       transform="translate(0,662.59836)" />
    <path
       style="fill:none;fill-rule:evenodd;stroke:#000000;stroke-width:1px;stroke-linecap:butt;stroke-linejoin:miter;stroke-opacity:1"
       d="m 814.68803,980.64132 c 0.80879,3.60984 0.50507,7.40708 0.50507,11.11168"
       id="path4172"
       inkscape:connector-curvature="0" />
    <path
       style="opacity:1;fill:#00ff00;fill-opacity:1;stroke:#000000;stroke-width:0.05050763;stroke-linecap:round;stroke-linejoin:miter;stroke-miterlimit:4;stroke-dasharray:none;stroke-dashoffset:0;stroke-opacity:0.04166667"
       d="m 750.38041,443.44884 -49.87628,-0.13122 0,-62.37446 0,-62.37445 3.3029,0 c 4.25258,0 11.58479,-0.81429 18.92045,-2.10125 10.701,-1.87736 9.288,-2.11161 14.70125,2.43727 14.62212,12.28731 25.37819,19.36195 29.43733,19.36195 1.43296,0 1.92757,-0.30191 2.79567,-1.70652 4.39609,-7.11304 15.56013,-11.67247 37.85398,-15.45968 3.43688,-0.58384 6.39158,-0.91958 6.56599,-0.74609 0.67045,0.66691 0.81011,10.47601 0.48875,34.32727 -0.18341,13.61181 -0.35637,38.3858 -0.38437,55.05331 -0.028,16.66752 -0.19179,31.1569 -0.36398,32.19862 l -0.31306,1.89403 -6.62617,-0.12378 c -3.6444,-0.0681 -29.07051,-0.18282 -56.50246,-0.255 z"
       id="path4174"
       inkscape:connector-curvature="0"
       transform="translate(0,662.59836)" />
    <path
       style="opacity:1;fill:#00ff00;fill-opacity:1;stroke:#000000;stroke-width:0.05050763;stroke-linecap:round;stroke-linejoin:miter;stroke-miterlimit:4;stroke-dasharray:none;stroke-dashoffset:0;stroke-opacity:0.04166667"
       d="m 756.69386,443.44662 -56.18973,-0.12846 0,-62.37473 0,-62.37472 4.67195,-0.002 c 2.56958,-10e-4 8.53579,-0.59014 13.25825,-1.30911 4.72247,-0.71897 9.83636,-1.41554 11.36422,-1.54793 3.21225,-0.27835 2.48032,-0.71501 12.6984,7.57568 11.72009,9.50937 20.53854,14.96623 24.2021,14.97629 1.55936,0.004 2.12342,-0.37233 4.25426,-2.84047 5.5317,-6.40736 14.43758,-9.98087 33.75642,-13.54487 9.92319,-1.83066 9.22836,-2.0026 9.59538,2.3744 0.43537,5.19219 -0.53941,118.66547 -1.02248,119.02626 -0.21947,0.16391 -25.68441,0.2402 -56.58877,0.16955 z"
       id="path4176"
       inkscape:connector-curvature="0"
       transform="translate(0,662.59836)" />
    <path
       style="opacity:1;fill:#00ff00;fill-opacity:1;stroke:#000000;stroke-width:0.00446429;stroke-linecap:round;stroke-linejoin:miter;stroke-miterlimit:4;stroke-dasharray:none;stroke-dashoffset:0;stroke-opacity:0.04166667"
       d="m 700.21755,363.41932 0,-30.98214 0.13393,0 0.13393,0 0,30.98214 0,30.98215 -0.13393,0 -0.13393,0 0,-30.98215 z"
       id="path4178"
       inkscape:connector-curvature="0"
       transform="translate(0,662.59836)" />
    <path
       style="opacity:1;fill:#00ff00;fill-opacity:1;stroke:#000000;stroke-width:0.00039063;stroke-linecap:round;stroke-linejoin:miter;stroke-miterlimit:4;stroke-dasharray:none;stroke-dashoffset:0;stroke-opacity:0.04166667"
       d="m 700.21601,364.2383 c 0,-1.49209 4.4e-4,-2.10249 9.8e-4,-1.35645 5.5e-4,0.74605 5.5e-4,1.96685 0,2.7129 -5.4e-4,0.74604 -9.8e-4,0.13564 -9.8e-4,-1.35645 z"
       id="path4180"
       inkscape:connector-curvature="0"
       transform="translate(0,662.59836)" />
    <path
       style="opacity:1;fill:#00ff00;fill-opacity:1;stroke:#000000;stroke-width:0.00039063;stroke-linecap:round;stroke-linejoin:miter;stroke-miterlimit:4;stroke-dasharray:none;stroke-dashoffset:0;stroke-opacity:0.04166667"
       d="m 700.21797,364.2383 0,-2.71094 0.13281,0 0.13282,0 0,2.71094 0,2.71094 -0.13282,0 -0.13281,0 0,-2.71094 z"
       id="path4182"
       inkscape:connector-curvature="0"
       transform="translate(0,662.59836)" />
    <path
       style="opacity:1;fill:#00ff00;fill-opacity:1;stroke:#000000;stroke-width:0.00039063;stroke-linecap:round;stroke-linejoin:miter;stroke-miterlimit:4;stroke-dasharray:none;stroke-dashoffset:0;stroke-opacity:0.04166667"
       d="m 700.19063,364.2383 0,-2.71094 0.0117,0 0.0117,0 0,2.71094 0,2.71094 -0.0117,0 -0.0117,0 0,-2.71094 z"
       id="path4184"
       inkscape:connector-curvature="0"
       transform="translate(0,662.59836)" />
    <path
       style="opacity:1;fill:#00ff00;fill-opacity:1;stroke:#000000;stroke-width:0.00039063;stroke-linecap:round;stroke-linejoin:miter;stroke-miterlimit:4;stroke-dasharray:none;stroke-dashoffset:0;stroke-opacity:0.04166667"
       d="m 700.50507,364.2383 c 0,-1.49209 4.4e-4,-2.10249 9.9e-4,-1.35645 5.4e-4,0.74605 5.4e-4,1.96685 0,2.7129 -5.5e-4,0.74604 -9.9e-4,0.13564 -9.9e-4,-1.35645 z"
       id="path4186"
       inkscape:connector-curvature="0"
       transform="translate(0,662.59836)" />
    <path
       style="opacity:1;fill:#00ff00;fill-opacity:1;stroke:#000000;stroke-width:0.00039063;stroke-linecap:round;stroke-linejoin:miter;stroke-miterlimit:4;stroke-dasharray:none;stroke-dashoffset:0;stroke-opacity:0.04166667"
       d="m 700.4875,364.2383 c 0,-2.70833 1e-5,-2.71094 0.008,-2.71094 0.008,0 0.008,0.003 0.008,2.71094 0,2.70833 -10e-6,2.71094 -0.008,2.71094 -0.008,0 -0.008,-0.003 -0.008,-2.71094 z"
       id="path4188"
       inkscape:connector-curvature="0"
       transform="translate(0,662.59836)" />
    <path
       style="opacity:1;fill:#00ff00;fill-opacity:1;stroke:#000000;stroke-width:0.00625;stroke-linecap:round;stroke-linejoin:miter;stroke-miterlimit:4;stroke-dasharray:none;stroke-dashoffset:0;stroke-opacity:0.04166667"
       d="m 700.54156,347.62734 0,-29.03125 2.11583,0 c 2.33911,0 3.91062,-0.0641 6.16542,-0.25151 4.48637,-0.37288 9.35663,-1.03879 15.125,-2.06804 5.06534,-0.90381 5.8625,-1.01827 7.09375,-1.01863 1.04491,-3e-4 1.43891,0.0808 2.21875,0.45696 0.59831,0.28856 1.13708,0.66649 2.07013,1.45215 2.58976,2.18066 5.01778,4.2018 6.30487,5.24832 8.26597,6.72101 15.12237,11.56064 19.875,14.02889 3.88568,2.01801 6.03889,2.33811 7.41362,1.10211 0.17273,-0.1553 0.52413,-0.60455 0.78088,-0.99834 0.90543,-1.38865 1.80591,-2.45588 2.92192,-3.46301 4.22681,-3.81442 11.02451,-6.73428 21.63358,-9.29241 1.24764,-0.30085 4.17106,-0.95377 4.67187,-1.04344 l 0.23438,-0.042 0,26.9757 0,26.97571 -49.3125,0 -49.3125,0 0,-29.03125 z"
       id="path4190"
       inkscape:connector-curvature="0"
       transform="translate(0,662.59836)" />
    <path
       style="opacity:1;fill:#00ff00;fill-opacity:1;stroke:#000000;stroke-width:0.00625;stroke-linecap:round;stroke-linejoin:miter;stroke-miterlimit:4;stroke-dasharray:none;stroke-dashoffset:0;stroke-opacity:0.04166667"
       d="m 700.22906,325.69946 0,-6.70913 -2.32813,-0.0429 c -3.76967,-0.0695 -6.18056,-0.26123 -9.20312,-0.73188 -1.18061,-0.18384 -3.51228,-0.63578 -3.42731,-0.66432 0.04,-0.0134 0.37748,0.0322 0.75,0.10148 3.42065,0.63577 8.05682,1.00288 12.69293,1.00507 l 1.76563,8.4e-4 0,6.875 c 0,6.83333 -7.6e-4,6.875 -0.125,6.875 -0.12423,0 -0.125,-0.0417 -0.125,-6.70913 z"
       id="path4192"
       inkscape:connector-curvature="0"
       transform="translate(0,662.59836)" />
    <path
       style="opacity:1;fill:#00ff00;fill-opacity:1;stroke:#000000;stroke-width:0.0015625;stroke-linecap:round;stroke-linejoin:miter;stroke-miterlimit:4;stroke-dasharray:none;stroke-dashoffset:0;stroke-opacity:0.04166667"
       d="m 700.20757,326.26391 0.003,-6.16797 0.0103,5.79687 c 0.0108,6.07115 0.0145,6.36998 0.0796,6.4961 0.0192,0.0372 0.086,0.0349 0.10663,-0.004 0.0331,-0.0619 0.0502,-0.30074 0.0615,-0.85965 l 0.0115,-0.57031 0.003,0.73828 0.003,0.73828 -0.14063,0 -0.14062,0 0.003,-6.16796 z"
       id="path4194"
       inkscape:connector-curvature="0"
       transform="translate(0,662.59836)" />
    <path
       style="opacity:1;fill:#00ff00;fill-opacity:1;stroke:#000000;stroke-width:0.0015625;stroke-linecap:round;stroke-linejoin:miter;stroke-miterlimit:4;stroke-dasharray:none;stroke-dashoffset:0;stroke-opacity:0.04166667"
       d="m 700.50122,330.9475 c 0,-9.62847 0.003,-10.84375 0.0234,-10.84375 0.0208,0 0.0234,1.21528 0.0234,10.84375 0,9.62847 -0.003,10.84375 -0.0234,10.84375 -0.0208,0 -0.0234,-1.21528 -0.0234,-10.84375 z"
       id="path4196"
       inkscape:connector-curvature="0"
       transform="translate(0,662.59836)" />
    <path
       style="opacity:1;fill:#00ff00;fill-opacity:1;stroke:#000000;stroke-width:0.0015625;stroke-linecap:round;stroke-linejoin:miter;stroke-miterlimit:4;stroke-dasharray:none;stroke-dashoffset:0;stroke-opacity:0.04166667"
       d="m 700.51133,341.6717 c -0.0132,-0.15626 -0.0132,-21.29214 0,-21.44841 l 0.0101,-0.11954 12.38052,0 12.38052,0 0,10.84375 0,10.84375 -12.38052,0 -12.38052,0 -0.0101,-0.11955 z"
       id="path4198"
       inkscape:connector-curvature="0"
       transform="translate(0,662.59836)" />
    <path
       style="opacity:1;fill:#00ff00;fill-opacity:1;stroke:#000000;stroke-width:0.0015625;stroke-linecap:round;stroke-linejoin:miter;stroke-miterlimit:4;stroke-dasharray:none;stroke-dashoffset:0;stroke-opacity:0.04166667"
       d="m 700.51133,341.6717 c -0.0132,-0.15626 -0.0132,-21.29214 0,-21.44841 l 0.0101,-0.11954 12.38052,0 12.38052,0 0,10.84375 0,10.84375 -12.38052,0 -12.38052,0 -0.0101,-0.11955 z"
       id="path4200"
       inkscape:connector-curvature="0"
       transform="translate(0,662.59836)" />
    <path
       style="opacity:1;fill:#00ff00;fill-opacity:1;stroke:#000000;stroke-width:0.0015625;stroke-linecap:round;stroke-linejoin:miter;stroke-miterlimit:4;stroke-dasharray:none;stroke-dashoffset:0;stroke-opacity:0.04166667"
       d="m 700.51099,341.74242 c -0.0128,-0.0638 -0.0128,-21.526 0,-21.58984 l 0.01,-0.0488 12.38086,0 12.38086,0 0,10.84375 0,10.84375 -12.38086,0 -12.38086,0 -0.01,-0.0488 z"
       id="path4202"
       inkscape:connector-curvature="0"
       transform="translate(0,662.59836)" />
    <path
       style="opacity:1;fill:#00ff00;fill-opacity:1;stroke:#000000;stroke-width:0.0125;stroke-linecap:round;stroke-linejoin:miter;stroke-miterlimit:4;stroke-dasharray:none;stroke-dashoffset:0;stroke-opacity:0.04166667"
       d="m 733.90657,315.97591 c -0.73309,-0.57659 -1.59945,-0.79014 -3.16586,-0.78035 -0.8131,0.005 -1.45997,-0.008 -1.4375,-0.0286 0.0225,-0.0208 0.75823,-0.16291 1.63501,-0.31581 l 1.59415,-0.278 0.40585,0.32277 c 0.79491,0.6322 1.52889,1.32385 1.40585,1.32478 -0.0688,5.2e-4 -0.26563,-0.10965 -0.4375,-0.24483 z"
       id="path4204"
       inkscape:connector-curvature="0"
       transform="translate(0,662.59836)" />
    <path
       style="opacity:1;fill:#00ff00;fill-opacity:1;stroke:#000000;stroke-width:0.00625;stroke-linecap:round;stroke-linejoin:miter;stroke-miterlimit:4;stroke-dasharray:none;stroke-dashoffset:0;stroke-opacity:0.04166667"
       d="m 217.35512,403.60851 0,-39.21594 74.46875,0 74.46875,0 0,39.19786 0,39.19786 -10.69788,-0.0416 c -5.88383,-0.0229 -24.16508,-0.0416 -40.625,-0.0416 l -29.92712,0 -0.005,-8.39062 c -0.005,-9.528 -0.13095,-25.82829 -0.19969,-25.89704 -0.0251,-0.0251 -0.0449,0.68324 -0.0439,1.57412 0.002,1.94249 -0.20241,32.61362 -0.21756,32.63404 -0.006,0.008 -11.23072,0.0421 -24.94424,0.0761 -13.71352,0.034 -28.83602,0.0756 -33.60555,0.0923 l -8.67188,0.0305 0,-39.21593 z"
       id="path4206"
       inkscape:connector-curvature="0"
       transform="translate(0,662.59836)" />
    <path
       style="opacity:1;fill:#00ff00;fill-opacity:1;stroke:#000000;stroke-width:0.00625;stroke-linecap:round;stroke-linejoin:miter;stroke-miterlimit:4;stroke-dasharray:none;stroke-dashoffset:0;stroke-opacity:0.04166667"
       d="m 284.75063,420.54882 c 2.7e-4,-0.24062 0.0116,-0.3314 0.0251,-0.20173 0.0135,0.12968 0.0133,0.32655 -5e-4,0.4375 -0.0138,0.11095 -0.0249,0.005 -0.0246,-0.23577 z"
       id="path4208"
       inkscape:connector-curvature="0"
       transform="translate(0,662.59836)" />
    <path
       style="opacity:1;fill:#00ff00;fill-opacity:1;stroke:#000000;stroke-width:0.00625;stroke-linecap:round;stroke-linejoin:miter;stroke-miterlimit:4;stroke-dasharray:none;stroke-dashoffset:0;stroke-opacity:0.04166667"
       d="m 217.35512,443.00375 c 0,-0.085 0.38874,-0.10061 3.32812,-0.13341 1.83047,-0.0204 16.96619,-0.0657 33.63492,-0.1007 16.66874,-0.035 30.31281,-0.0708 30.32017,-0.0797 0.007,-0.009 0.0488,-5.9505 0.0921,-13.20363 0.0433,-7.25312 0.0985,-13.20957 0.12264,-13.23655 0.0608,-0.0679 0.12699,9.77718 0.12703,18.90843 l 4e-5,7.60937 34.14062,4e-5 c 33.04595,3e-5 47.17188,0.0376 47.17188,0.1253 0,0.0232 -19.63828,0.0608 -43.64063,0.0835 -24.00234,0.0227 -57.51328,0.0598 -74.46875,0.0825 -27.73819,0.0371 -30.82812,0.0315 -30.82812,-0.0551 z"
       id="path4210"
       inkscape:connector-curvature="0"
       transform="translate(0,662.59836)" />
    <path
       style="opacity:1;fill:#00ff00;fill-opacity:1;stroke:#000000;stroke-width:0.00625;stroke-linecap:round;stroke-linejoin:miter;stroke-miterlimit:4;stroke-dasharray:none;stroke-dashoffset:0;stroke-opacity:0.04166667"
       d="m 217.35512,403.6174 0,-39.22483 74.46875,0 74.46875,0 0,39.19788 0,39.19787 -14.82289,-0.0416 c -8.15259,-0.0229 -26.43384,-0.0416 -40.625,-0.0416 l -25.80211,0 10e-4,-6.82812 c 0.001,-8.1385 -0.116,-24.91578 -0.18432,-26.32813 -0.0331,-0.6847 -0.051,0.36957 -0.0567,3.34375 -0.005,2.82409 0.0129,4.31095 0.0523,4.25 0.0452,-0.0699 0.0608,-0.0356 0.0616,0.13542 6.2e-4,0.12854 -0.0334,0.24059 -0.0772,0.25519 -0.0816,0.0272 -0.0877,0.57101 -0.20376,18.05356 l -0.0467,7.03793 -9.28883,0.0401 c -5.10885,0.0221 -16.89664,0.0543 -26.19508,0.0716 -9.29843,0.0173 -20.24609,0.0482 -24.32812,0.0687 l -7.4219,0.0372 0,-39.22482 z"
       id="path4212"
       inkscape:connector-curvature="0"
       transform="translate(0,662.59836)" />
    <path
       style="opacity:1;fill:#00ff00;fill-opacity:1;stroke:#000000;stroke-width:0.00625;stroke-linecap:round;stroke-linejoin:miter;stroke-miterlimit:4;stroke-dasharray:none;stroke-dashoffset:0;stroke-opacity:0.04166667"
       d="m 217.35512,403.61888 0,-39.22631 74.46875,0 74.46875,0 0,39.19788 0,39.19789 -17.8229,-0.0416 c -9.80258,-0.0229 -28.07917,-0.0416 -40.61463,-0.0416 l -22.79175,0 -0.0412,-12.5991 c -0.0227,-6.92951 -0.0593,-12.62843 -0.0815,-12.66428 -0.0242,-0.0392 -0.0666,-0.0185 -0.10653,0.0522 -0.0661,0.11715 -0.0905,2.37362 -0.19901,18.43762 l -0.0452,6.69522 -8.85173,0.0391 c -4.86844,0.0215 -16.1361,0.0532 -25.03922,0.0705 -8.90313,0.0173 -20.04766,0.0489 -24.76563,0.0702 l -8.57812,0.0387 0,-39.22631 z m 67.55282,11.91432 c -0.007,-1.19696 -0.0216,-1.47324 -0.0563,-1.07813 -0.0719,0.81912 -0.0695,2.6875 0.004,2.6875 0.0403,0 0.0591,-0.57167 0.0528,-1.60937 l -3e-5,0 z m -0.005,-3.57813 c 0,-0.67031 -0.0202,-1.51406 -0.0446,-1.875 -0.0304,-0.44995 -0.0453,-0.008 -0.0475,1.40625 -0.002,1.13438 0.0184,1.97813 0.0446,1.875 0.0263,-0.10312 0.0476,-0.73593 0.0475,-1.40625 z"
       id="path4214"
       inkscape:connector-curvature="0"
       transform="translate(0,662.59836)" />
    <path
       style="opacity:1;fill:#00ff00;fill-opacity:1;stroke:#000000;stroke-width:0.00625;stroke-linecap:round;stroke-linejoin:miter;stroke-miterlimit:4;stroke-dasharray:none;stroke-dashoffset:0;stroke-opacity:0.04166667"
       d="m 217.35512,403.61955 0,-39.22698 74.46875,0 74.46875,0 0,39.19789 0,39.19788 -19.73438,-0.0416 c -10.8539,-0.0229 -29.13052,-0.0416 -40.61469,-0.0416 l -20.88031,-2e-5 -0.043,-12.2543 c -0.0236,-6.73987 -0.0606,-12.42259 -0.082,-12.62826 -0.0244,-0.23334 -0.0612,-0.35186 -0.0978,-0.31521 -0.0568,0.0568 -0.10725,4.67674 -0.20723,18.95577 l -0.0431,6.16425 -8.50807,0.0386 c -4.67944,0.0212 -15.07526,0.0528 -23.10182,0.0702 -8.02656,0.0174 -19.32578,0.0494 -25.10938,0.071 l -10.51562,0.0394 0,-39.22698 z m 67.5407,12.06983 c 0.005,-0.82042 -0.0131,-1.39863 -0.0425,-1.32806 -0.0971,0.23382 -0.0716,2.78255 0.0278,2.78118 0.003,-4e-5 0.009,-0.65394 0.0147,-1.45312 z m 0.0135,-3.06243 c -0.005,-0.38672 -0.0276,-1.13906 -0.0513,-1.67188 -0.041,-0.92246 -0.0436,-0.88887 -0.0542,0.70313 -0.007,1.08037 0.0109,1.67187 0.0513,1.67187 0.0385,0 0.0593,-0.27052 0.0542,-0.70312 z"
       id="path4216"
       inkscape:connector-curvature="0"
       transform="translate(0,662.59836)" />
    <path
       style="opacity:1;fill:#00ff00;fill-opacity:1;stroke:#000000;stroke-width:0.00625;stroke-linecap:round;stroke-linejoin:miter;stroke-miterlimit:4;stroke-dasharray:none;stroke-dashoffset:0;stroke-opacity:0.04166667"
       d="m 217.35512,360.67382 c 0,-12.63281 0.009,-22.96875 0.0201,-22.96875 0.2573,0 11.88956,-0.97638 16.41739,-1.37803 5.73625,-0.50884 15.44108,-1.4229 17.91226,-1.68708 0.34044,-0.0364 0.73149,-0.0774 0.86899,-0.0911 0.1375,-0.0137 0.40172,-0.0412 0.58715,-0.0611 0.18544,-0.0199 0.48075,-0.0499 0.65625,-0.0667 0.17551,-0.0168 0.4316,-0.0428 0.5691,-0.0576 0.1375,-0.0149 0.41875,-0.0437 0.625,-0.0641 0.20625,-0.0204 0.4875,-0.0485 0.625,-0.0625 0.1375,-0.014 0.41875,-0.0421 0.625,-0.0625 0.38833,-0.0383 0.75686,-0.0766 1.1875,-0.12335 0.1375,-0.0149 0.40469,-0.0426 0.59375,-0.0616 0.18906,-0.019 0.47031,-0.0489 0.625,-0.0665 0.15469,-0.0176 0.42187,-0.0462 0.59375,-0.0635 0.17187,-0.0173 0.425,-0.0436 0.5625,-0.0585 0.1375,-0.0149 0.41875,-0.0437 0.625,-0.0641 0.48923,-0.0483 0.88496,-0.0905 1.15625,-0.1234 0.12031,-0.0146 0.3875,-0.0435 0.59375,-0.0642 0.20625,-0.0208 0.47344,-0.0481 0.59375,-0.0608 0.12031,-0.0127 0.40156,-0.0403 0.625,-0.0613 1.21077,-0.11383 9.12742,-1.01138 14.95956,-1.69605 3.67306,-0.4312 6.69046,-0.77185 6.70531,-0.75699 0.0149,0.0148 0.0319,1.12758 0.038,2.47273 0.006,1.34515 0.0332,2.44572 0.0603,2.44572 0.0272,0 0.0494,-1.125 0.0494,-2.5 0,-2.01155 0.0159,-2.5 0.0814,-2.5 0.099,0 7.09721,-0.90364 9.69988,-1.25248 11.22213,-1.50415 23.79764,-3.58501 31.8794,-5.27506 9.31035,-1.94698 13.7462,-3.46365 17.06928,-5.83619 1.17804,-0.84107 1.90482,-1.06084 2.84696,-0.86089 1.19435,0.25348 2.64019,1.16832 4.67728,2.95952 0.81215,0.71412 4.22175,3.978 4.2571,4.07515 0.0403,0.11079 5.48647,5.61292 6.38778,6.45343 1.47059,1.37138 2.6202,2.25062 3.70926,2.83691 l 0.45207,0.24336 10e-4,24.70313 0.001,24.70312 -74.46875,0 -74.46875,0 0,-22.96875 z m 67.92104,-16.53125 c 0,-1.01406 -0.0192,-2.37812 -0.0428,-3.03125 -0.0269,-0.74243 -0.043,0.40536 -0.0429,3.0625 5e-5,2.67375 0.0159,3.79799 0.0429,3.03125 0.0235,-0.67031 0.0428,-2.04843 0.0429,-3.0625 z"
       id="path4218"
       inkscape:connector-curvature="0"
       transform="translate(0,662.59836)" />
    <path
       style="opacity:1;fill:#00ff00;fill-opacity:1;stroke:#000000;stroke-width:0.00625;stroke-linecap:round;stroke-linejoin:miter;stroke-miterlimit:4;stroke-dasharray:none;stroke-dashoffset:0;stroke-opacity:0.04166667"
       d="m 217.35512,360.67778 0,-22.96479 0.20312,-0.0252 0.20313,-0.0252 -0.20313,-0.01 c -0.29187,-0.0144 -0.25036,-0.12135 0.0625,-0.16107 0.1461,-0.0186 1.68594,-0.14802 3.42188,-0.28771 15.12484,-1.21709 33.25566,-2.95442 48.28125,-4.62639 34.61592,-3.85188 59.80807,-8.01548 69.2103,-11.43865 0.46622,-0.16974 0.89394,-0.29394 0.95049,-0.276 0.2733,0.0867 2.68334,-1.14314 4.08921,-2.08678 1.19644,-0.80307 1.65071,-1.03941 2.18981,-1.13925 1.18045,-0.21862 2.65234,0.45155 4.74769,2.16168 1.32515,1.08152 2.851,2.52847 5.4665,5.18383 3.85219,3.91088 6.2902,6.33049 6.97355,6.92091 0.92969,0.80326 1.9433,1.54498 2.68212,1.96267 l 0.65537,0.3705 0.002,24.70313 0.002,24.70312 -74.46875,0 -74.46875,0 0,-22.96479 z m 67.85932,-18.20708 c -0.01,-0.88516 -0.0178,-0.16094 -0.0178,1.60937 0,1.77032 0.008,2.49453 0.0178,1.60938 0.01,-0.88516 0.01,-2.3336 0,-3.21875 z m -66.8437,-4.87334 c -0.11172,-0.0139 -0.29453,-0.0139 -0.40625,0 -0.11172,0.0139 -0.0203,0.0252 0.20313,0.0252 0.22344,0 0.31484,-0.0113 0.20312,-0.0252 z m 0.78237,-0.0619 c -0.0939,-0.0143 -0.26266,-0.0145 -0.375,-6.4e-4 -0.11233,0.0139 -0.0355,0.0256 0.17076,0.0259 0.20625,3.7e-4 0.29816,-0.011 0.20424,-0.0253 z m 0.78013,-0.0631 c -0.11172,-0.0139 -0.29453,-0.0139 -0.40625,0 -0.11172,0.0139 -0.0203,0.0252 0.20313,0.0252 0.22344,0 0.31484,-0.0113 0.20312,-0.0252 z m 0.78237,-0.0619 c -0.0939,-0.0143 -0.26266,-0.0145 -0.375,-6.4e-4 -0.11233,0.0139 -0.0355,0.0256 0.17076,0.0259 0.20625,3.7e-4 0.29816,-0.011 0.20424,-0.0253 z m 0.75,-0.0625 c -0.0939,-0.0143 -0.26266,-0.0145 -0.375,-6.4e-4 -0.11233,0.0139 -0.0355,0.0256 0.17076,0.0259 0.20625,3.7e-4 0.29816,-0.011 0.20424,-0.0253 z m 0.78013,-0.0631 c -0.11172,-0.0139 -0.29453,-0.0139 -0.40625,0 -0.11172,0.0139 -0.0203,0.0252 0.20313,0.0252 0.22344,0 0.31484,-0.0113 0.20312,-0.0252 z m 0.78237,-0.0619 c -0.0939,-0.0143 -0.26266,-0.0145 -0.375,-6.4e-4 -0.11233,0.0139 -0.0355,0.0256 0.17076,0.0259 0.20625,3.7e-4 0.29816,-0.011 0.20424,-0.0253 z m 0.68638,-0.0626 c -0.0945,-0.0143 -0.24922,-0.0143 -0.34375,0 -0.0945,0.0143 -0.0172,0.026 0.17188,0.026 0.18906,0 0.2664,-0.0117 0.17187,-0.026 z m 0.81362,-0.0624 c -0.0939,-0.0143 -0.26266,-0.0145 -0.375,-6.4e-4 -0.11233,0.0139 -0.0355,0.0256 0.17076,0.0259 0.20625,3.7e-4 0.29816,-0.011 0.20424,-0.0253 z m 0.68638,-0.0626 c -0.0945,-0.0143 -0.24922,-0.0143 -0.34375,0 -0.0945,0.0143 -0.0172,0.026 0.17188,0.026 0.18906,0 0.2664,-0.0117 0.17187,-0.026 z m 0.75,-0.0625 c -0.0945,-0.0143 -0.24922,-0.0143 -0.34375,0 -0.0945,0.0143 -0.0172,0.026 0.17188,0.026 0.18906,0 0.2664,-0.0117 0.17187,-0.026 z m 0.75,-0.0625 c -0.0945,-0.0143 -0.24922,-0.0143 -0.34375,0 -0.0945,0.0143 -0.0172,0.026 0.17188,0.026 0.18906,0 0.2664,-0.0117 0.17187,-0.026 z m 0.75112,-0.0624 c -0.0939,-0.0143 -0.26266,-0.0145 -0.375,-6.4e-4 -0.11233,0.0139 -0.0355,0.0256 0.17076,0.0259 0.20625,3.7e-4 0.29816,-0.011 0.20424,-0.0253 z m 0.75,-0.0625 c -0.0939,-0.0143 -0.26266,-0.0145 -0.375,-6.4e-4 -0.11233,0.0139 -0.0355,0.0256 0.17076,0.0259 0.20625,3.7e-4 0.29816,-0.011 0.20424,-0.0253 z m 0.68638,-0.0626 c -0.0945,-0.0143 -0.24922,-0.0143 -0.34375,0 -0.0945,0.0143 -0.0172,0.026 0.17188,0.026 0.18906,0 0.2664,-0.0117 0.17187,-0.026 z m 0.75,-0.0625 c -0.0945,-0.0143 -0.24922,-0.0143 -0.34375,0 -0.0945,0.0143 -0.0172,0.026 0.17188,0.026 0.18906,0 0.2664,-0.0117 0.17187,-0.026 z m 0.75112,-0.0624 c -0.0939,-0.0143 -0.26266,-0.0145 -0.375,-6.4e-4 -0.11233,0.0139 -0.0355,0.0256 0.17076,0.0259 0.20625,3.7e-4 0.29816,-0.011 0.20424,-0.0253 z m 0.68638,-0.0626 c -0.0945,-0.0143 -0.24922,-0.0143 -0.34375,0 -0.0945,0.0143 -0.0172,0.026 0.17188,0.026 0.18906,0 0.2664,-0.0117 0.17187,-0.026 z m 0.75112,-0.0624 c -0.0939,-0.0143 -0.26266,-0.0145 -0.375,-6.4e-4 -0.11233,0.0139 -0.0355,0.0256 0.17076,0.0259 0.20625,3.7e-4 0.29816,-0.011 0.20424,-0.0253 z m 0.68638,-0.0626 c -0.0945,-0.0143 -0.24922,-0.0143 -0.34375,0 -0.0945,0.0143 -0.0172,0.026 0.17188,0.026 0.18906,0 0.2664,-0.0117 0.17187,-0.026 z m 0.75112,-0.0624 c -0.0939,-0.0143 -0.26266,-0.0145 -0.375,-6.4e-4 -0.11233,0.0139 -0.0355,0.0256 0.17076,0.0259 0.20625,3.7e-4 0.29816,-0.011 0.20424,-0.0253 z m 0.68638,-0.0626 c -0.0945,-0.0143 -0.24922,-0.0143 -0.34375,0 -0.0945,0.0143 -0.0172,0.026 0.17188,0.026 0.18906,0 0.2664,-0.0117 0.17187,-0.026 z m 0.6875,-0.0625 c -0.0945,-0.0143 -0.24922,-0.0143 -0.34375,0 -0.0945,0.0143 -0.0172,0.026 0.17188,0.026 0.18906,0 0.2664,-0.0117 0.17187,-0.026 z m 0.6875,-0.0625 c -0.0945,-0.0143 -0.24922,-0.0143 -0.34375,0 -0.0945,0.0143 -0.0172,0.026 0.17188,0.026 0.18906,0 0.2664,-0.0117 0.17187,-0.026 z m 0.6875,-0.0625 c -0.0945,-0.0143 -0.24922,-0.0143 -0.34375,0 -0.0945,0.0143 -0.0172,0.026 0.17188,0.026 0.18906,0 0.2664,-0.0117 0.17187,-0.026 z m 0.6875,-0.0625 c -0.0945,-0.0143 -0.24922,-0.0143 -0.34375,0 -0.0945,0.0143 -0.0172,0.026 0.17188,0.026 0.18906,0 0.2664,-0.0117 0.17187,-0.026 z m 0.6875,-0.0625 c -0.0945,-0.0143 -0.24922,-0.0143 -0.34375,0 -0.0945,0.0143 -0.0172,0.026 0.17188,0.026 0.18906,0 0.2664,-0.0117 0.17187,-0.026 z m 0.6875,-0.0625 c -0.0945,-0.0143 -0.24922,-0.0143 -0.34375,0 -0.0945,0.0143 -0.0172,0.026 0.17188,0.026 0.18906,0 0.2664,-0.0117 0.17187,-0.026 z m 0.71961,-0.0617 c -0.0769,-0.0148 -0.21749,-0.0152 -0.3125,-8.5e-4 -0.095,0.0144 -0.0321,0.0265 0.13977,0.027 0.17187,4.4e-4 0.2496,-0.0113 0.17273,-0.0261 l 0,0 z m 46.42102,-0.67476 c 0,-0.4375 -0.0245,-0.71875 -0.0625,-0.71875 -0.0367,0 -0.0625,0.21615 -0.0625,0.52344 0,0.48801 0.0473,0.91406 0.10156,0.91406 0.0129,0 0.0234,-0.32343 0.0234,-0.71875 z m -45.76563,0.61149 c -0.0945,-0.0143 -0.24922,-0.0143 -0.34375,0 -0.0945,0.0143 -0.0172,0.026 0.17188,0.026 0.18906,0 0.2664,-0.0117 0.17187,-0.026 z m 0.6875,-0.0625 c -0.0945,-0.0143 -0.24922,-0.0143 -0.34375,0 -0.0945,0.0143 -0.0172,0.026 0.17188,0.026 0.18906,0 0.2664,-0.0117 0.17187,-0.026 z m 0.65711,-0.0617 c -0.0769,-0.0148 -0.21749,-0.0152 -0.3125,-8.5e-4 -0.095,0.0144 -0.0321,0.0265 0.13977,0.027 0.17187,4.4e-4 0.2496,-0.0113 0.17273,-0.0261 l 0,0 z m 0.6875,-0.0625 c -0.0769,-0.0148 -0.21749,-0.0152 -0.3125,-8.5e-4 -0.095,0.0144 -0.0321,0.0265 0.13977,0.027 0.17187,4.4e-4 0.2496,-0.0113 0.17273,-0.0261 l 0,0 z m 0.65539,-0.0633 c -0.0945,-0.0143 -0.24922,-0.0143 -0.34375,0 -0.0945,0.0143 -0.0172,0.026 0.17188,0.026 0.18906,0 0.2664,-0.0117 0.17187,-0.026 z m 0.6875,-0.0625 c -0.0945,-0.0143 -0.24922,-0.0143 -0.34375,0 -0.0945,0.0143 -0.0172,0.026 0.17188,0.026 0.18906,0 0.2664,-0.0117 0.17187,-0.026 z m 0.65711,-0.0617 c -0.0769,-0.0148 -0.21749,-0.0152 -0.3125,-8.5e-4 -0.095,0.0144 -0.0321,0.0265 0.13977,0.027 0.17187,4.4e-4 0.2496,-0.0113 0.17273,-0.0261 l 0,0 z m 0.65539,-0.0633 c -0.0945,-0.0143 -0.24922,-0.0143 -0.34375,0 -0.0945,0.0143 -0.0172,0.026 0.17188,0.026 0.18906,0 0.2664,-0.0117 0.17187,-0.026 z m 0.65711,-0.0617 c -0.0769,-0.0148 -0.21749,-0.0152 -0.3125,-8.5e-4 -0.095,0.0144 -0.0321,0.0265 0.13977,0.027 0.17187,4.4e-4 0.2496,-0.0113 0.17273,-0.0261 l 0,0 z m 0.65539,-0.0633 c -0.0945,-0.0143 -0.24922,-0.0143 -0.34375,0 -0.0945,0.0143 -0.0172,0.026 0.17188,0.026 0.18906,0 0.2664,-0.0117 0.17187,-0.026 z m 0.65711,-0.0617 c -0.0769,-0.0148 -0.21749,-0.0152 -0.3125,-8.5e-4 -0.095,0.0144 -0.0321,0.0265 0.13977,0.027 0.17187,4.4e-4 0.2496,-0.0113 0.17273,-0.0261 l 0,0 z m 0.65539,-0.0633 c -0.0945,-0.0143 -0.24922,-0.0143 -0.34375,0 -0.0945,0.0143 -0.0172,0.026 0.17188,0.026 0.18906,0 0.2664,-0.0117 0.17187,-0.026 z m 0.65711,-0.0617 c -0.0769,-0.0148 -0.21749,-0.0152 -0.3125,-8.5e-4 -0.095,0.0144 -0.0321,0.0265 0.13977,0.027 0.17187,4.4e-4 0.2496,-0.0113 0.17273,-0.0261 l 0,0 z m 0.625,-0.0625 c -0.0769,-0.0148 -0.21749,-0.0152 -0.3125,-8.5e-4 -0.095,0.0144 -0.0321,0.0265 0.13977,0.027 0.17187,4.4e-4 0.2496,-0.0113 0.17273,-0.0261 l 0,0 z m 0.65539,-0.0633 c -0.0945,-0.0143 -0.24922,-0.0143 -0.34375,0 -0.0945,0.0143 -0.0172,0.026 0.17188,0.026 0.18906,0 0.2664,-0.0117 0.17187,-0.026 z m 0.65711,-0.0617 c -0.0769,-0.0148 -0.21749,-0.0152 -0.3125,-8.5e-4 -0.095,0.0144 -0.0321,0.0265 0.13977,0.027 0.17187,4.4e-4 0.2496,-0.0113 0.17273,-0.0261 l 0,0 z m 0.625,-0.0625 c -0.0769,-0.0148 -0.21749,-0.0152 -0.3125,-8.5e-4 -0.095,0.0144 -0.0321,0.0265 0.13977,0.027 0.17187,4.4e-4 0.2496,-0.0113 0.17273,-0.0261 l 0,0 z m 0.625,-0.0625 c -0.0769,-0.0148 -0.21749,-0.0152 -0.3125,-8.5e-4 -0.095,0.0144 -0.0321,0.0265 0.13977,0.027 0.17187,4.4e-4 0.2496,-0.0113 0.17273,-0.0261 l 0,0 z m 0.625,-0.0625 c -0.0769,-0.0148 -0.21749,-0.0152 -0.3125,-8.5e-4 -0.095,0.0144 -0.0321,0.0265 0.13977,0.027 0.17187,4.4e-4 0.2496,-0.0113 0.17273,-0.0261 l 0,0 z m 0.625,-0.0625 c -0.0769,-0.0148 -0.21749,-0.0152 -0.3125,-8.5e-4 -0.095,0.0144 -0.0321,0.0265 0.13977,0.027 0.17187,4.4e-4 0.2496,-0.0113 0.17273,-0.0261 l 0,0 z m 0.625,-0.0625 c -0.0769,-0.0148 -0.21749,-0.0152 -0.3125,-8.5e-4 -0.095,0.0144 -0.0321,0.0265 0.13977,0.027 0.17187,4.4e-4 0.2496,-0.0113 0.17273,-0.0261 l 0,0 z m 0.625,-0.0625 c -0.0769,-0.0148 -0.21749,-0.0152 -0.3125,-8.5e-4 -0.095,0.0144 -0.0321,0.0265 0.13977,0.027 0.17187,4.4e-4 0.2496,-0.0113 0.17273,-0.0261 l 0,0 z m 0.625,-0.0625 c -0.0769,-0.0148 -0.21749,-0.0152 -0.3125,-8.5e-4 -0.095,0.0144 -0.0321,0.0265 0.13977,0.027 0.17187,4.4e-4 0.2496,-0.0113 0.17273,-0.0261 l 0,0 z m 0.56164,-0.0626 c -0.0773,-0.0149 -0.2039,-0.0149 -0.28125,0 -0.0773,0.0149 -0.0141,0.0271 0.14063,0.0271 0.15469,0 0.21797,-0.0122 0.14062,-0.0271 z m 0.625,-0.0625 c -0.0773,-0.0149 -0.2039,-0.0149 -0.28125,0 -0.0773,0.0149 -0.0141,0.0271 0.14063,0.0271 0.15469,0 0.21797,-0.0122 0.14062,-0.0271 z m 0.625,-0.0625 c -0.0773,-0.0149 -0.2039,-0.0149 -0.28125,0 -0.0773,0.0149 -0.0141,0.0271 0.14063,0.0271 0.15469,0 0.21797,-0.0122 0.14062,-0.0271 z m 0.62586,-0.0624 c -0.0769,-0.0148 -0.21749,-0.0152 -0.3125,-8.5e-4 -0.095,0.0144 -0.0321,0.0265 0.13977,0.027 0.17187,4.4e-4 0.2496,-0.0113 0.17273,-0.0261 l 0,0 z m 0.625,-0.0625 c -0.0769,-0.0148 -0.21749,-0.0152 -0.3125,-8.5e-4 -0.095,0.0144 -0.0321,0.0265 0.13977,0.027 0.17187,4.4e-4 0.2496,-0.0113 0.17273,-0.0261 l 0,0 z m 0.56164,-0.0626 c -0.0773,-0.0149 -0.2039,-0.0149 -0.28125,0 -0.0773,0.0149 -0.0141,0.0271 0.14063,0.0271 0.15469,0 0.21797,-0.0122 0.14062,-0.0271 z m 0.625,-0.0625 c -0.0773,-0.0149 -0.2039,-0.0149 -0.28125,0 -0.0773,0.0149 -0.0141,0.0271 0.14063,0.0271 0.15469,0 0.21797,-0.0122 0.14062,-0.0271 z m 0.62586,-0.0624 c -0.0769,-0.0148 -0.21749,-0.0152 -0.3125,-8.5e-4 -0.095,0.0144 -0.0321,0.0265 0.13977,0.027 0.17187,4.4e-4 0.2496,-0.0113 0.17273,-0.0261 l 0,0 z m 0.56164,-0.0626 c -0.0773,-0.0149 -0.2039,-0.0149 -0.28125,0 -0.0773,0.0149 -0.0141,0.0271 0.14063,0.0271 0.15469,0 0.21797,-0.0122 0.14062,-0.0271 z m 0.5625,-0.0625 c -0.0773,-0.0149 -0.2039,-0.0149 -0.28125,0 -0.0773,0.0149 -0.0141,0.0271 0.14063,0.0271 0.15469,0 0.21797,-0.0122 0.14062,-0.0271 z m 0.625,-0.0625 c -0.0773,-0.0149 -0.2039,-0.0149 -0.28125,0 -0.0773,0.0149 -0.0141,0.0271 0.14063,0.0271 0.15469,0 0.21797,-0.0122 0.14062,-0.0271 z m 0.62586,-0.0624 c -0.0769,-0.0148 -0.21749,-0.0152 -0.3125,-8.5e-4 -0.095,0.0144 -0.0321,0.0265 0.13977,0.027 0.17187,4.4e-4 0.2496,-0.0113 0.17273,-0.0261 l 0,0 z m 0.56164,-0.0626 c -0.0773,-0.0149 -0.2039,-0.0149 -0.28125,0 -0.0773,0.0149 -0.0141,0.0271 0.14063,0.0271 0.15469,0 0.21797,-0.0122 0.14062,-0.0271 z m 0.5625,-0.0625 c -0.0773,-0.0149 -0.2039,-0.0149 -0.28125,0 -0.0773,0.0149 -0.0141,0.0271 0.14063,0.0271 0.15469,0 0.21797,-0.0122 0.14062,-0.0271 z m 0.625,-0.0625 c -0.0773,-0.0149 -0.2039,-0.0149 -0.28125,0 -0.0773,0.0149 -0.0141,0.0271 0.14063,0.0271 0.15469,0 0.21797,-0.0122 0.14062,-0.0271 z m 0.375,-0.0598 c -0.043,-0.0173 -0.11328,-0.0173 -0.15625,0 -0.043,0.0173 -0.008,0.0315 0.0781,0.0315 0.0859,0 0.12109,-0.0142 0.0781,-0.0315 z m 0.27995,0.004 c -0.0208,-0.0208 -0.0747,-0.023 -0.11979,-0.005 -0.0499,0.0199 -0.035,0.0348 0.0378,0.0378 0.0659,0.003 0.1028,-0.0121 0.082,-0.0328 l 0,0 z m 0.28255,-0.0661 c -0.043,-0.0173 -0.11328,-0.0173 -0.15625,0 -0.043,0.0173 -0.008,0.0315 0.0781,0.0315 0.0859,0 0.12109,-0.0142 0.0781,-0.0315 z m 0.51563,-0.0211 c 0.16842,-0.0428 0.1716,-0.0478 0.0312,-0.0489 -0.0859,-6.4e-4 -0.22656,0.0213 -0.3125,0.0489 -0.12244,0.0392 -0.1292,0.0498 -0.0312,0.0489 0.0688,-6.4e-4 0.20937,-0.0226 0.3125,-0.0489 z m 0.71354,-0.10204 c 0.0537,-0.0473 -0.28106,-0.0119 -0.40104,0.0425 -0.0871,0.0395 -0.0492,0.0451 0.125,0.0186 0.1375,-0.0209 0.26172,-0.0484 0.27604,-0.061 z m 0.23828,0.002 c -0.0208,-0.0208 -0.0747,-0.023 -0.11979,-0.005 -0.0499,0.0199 -0.035,0.0348 0.0378,0.0378 0.0659,0.003 0.1028,-0.0121 0.082,-0.0328 l 0,-10e-6 z m 0.28255,-0.0661 c -0.043,-0.0173 -0.11328,-0.0173 -0.15625,0 -0.043,0.0173 -0.008,0.0315 0.0781,0.0315 0.0859,0 0.12109,-0.0142 0.0781,-0.0315 z m 0.27995,0.004 c -0.0208,-0.0208 -0.0747,-0.023 -0.11979,-0.005 -0.0499,0.0199 -0.035,0.0348 0.0378,0.0378 0.0659,0.003 0.1028,-0.0121 0.082,-0.0328 l 0,-1e-5 z m 0.28255,-0.0661 c -0.043,-0.0173 -0.11328,-0.0173 -0.15625,0 -0.043,0.0173 -0.008,0.0315 0.0781,0.0315 0.0859,0 0.12109,-0.0142 0.0781,-0.0315 z m 0.85417,-0.061 c 0.0504,-0.0437 -0.46545,-0.009 -0.61979,0.0411 -0.0971,0.0318 -0.0142,0.038 0.21875,0.0163 0.20625,-0.0192 0.38672,-0.045 0.40104,-0.0574 z m 18.29197,-2.13164 c -0.0158,-0.0158 -0.23442,6.8e-4 -0.48586,0.0366 l -0.45715,0.0653 0.45312,-0.0314 0.45313,-0.0314 0.0141,1.11316 0.0141,1.11316 0.0187,-1.11831 c 0.0102,-0.61507 0.006,-1.13123 -0.0101,-1.14701 z m -17.44301,2.04945 c 0.25043,-0.039 0.26905,-0.0491 0.0937,-0.0508 -0.12031,-0.001 -0.37344,0.0192 -0.5625,0.0453 -0.2993,0.0414 -0.31143,0.048 -0.0937,0.0509 0.1375,0.002 0.39062,-0.0186 0.5625,-0.0454 z m 0.73437,-0.10948 c -0.0773,-0.0149 -0.2039,-0.0149 -0.28125,0 -0.0773,0.0149 -0.0141,0.0271 0.14063,0.0271 0.15469,0 0.21797,-0.0122 0.14062,-0.0271 z m 0.5625,-0.0625 c -0.0773,-0.0149 -0.2039,-0.0149 -0.28125,0 -0.0773,0.0149 -0.0141,0.0271 0.14063,0.0271 0.15469,0 0.21797,-0.0122 0.14062,-0.0271 z m 0.5625,-0.0625 c -0.0773,-0.0149 -0.2039,-0.0149 -0.28125,0 -0.0773,0.0149 -0.0141,0.0271 0.14063,0.0271 0.15469,0 0.21797,-0.0122 0.14062,-0.0271 z m 0.5625,-0.0625 c -0.0773,-0.0149 -0.2039,-0.0149 -0.28125,0 -0.0773,0.0149 -0.0141,0.0271 0.14063,0.0271 0.15469,0 0.21797,-0.0122 0.14062,-0.0271 z m 0.5625,-0.0625 c -0.0773,-0.0149 -0.2039,-0.0149 -0.28125,0 -0.0773,0.0149 -0.0141,0.0271 0.14063,0.0271 0.15469,0 0.21797,-0.0122 0.14062,-0.0271 z m 0.53198,-0.0613 c -0.0598,-0.0156 -0.17225,-0.0162 -0.25,-0.001 -0.0777,0.0149 -0.0288,0.0278 0.10865,0.0284 0.1375,6.9e-4 0.20111,-0.0115 0.14135,-0.0272 l 0,0 z m 0.53052,-0.0637 c -0.0773,-0.0149 -0.2039,-0.0149 -0.28125,0 -0.0773,0.0149 -0.0141,0.0271 0.14063,0.0271 0.15469,0 0.21797,-0.0122 0.14062,-0.0271 z m 0.5625,-0.0625 c -0.0773,-0.0149 -0.2039,-0.0149 -0.28125,0 -0.0773,0.0149 -0.0141,0.0271 0.14063,0.0271 0.15469,0 0.21797,-0.0122 0.14062,-0.0271 z m 0.89063,-0.078 c 0.25281,-0.0394 0.27071,-0.0492 0.0937,-0.0515 -0.12031,-0.002 -0.35938,0.019 -0.53125,0.0458 -0.25281,0.0394 -0.27072,0.0492 -0.0937,0.0516 0.12031,0.002 0.35937,-0.019 0.53125,-0.0458 z m 0.73437,-0.10948 c -0.0773,-0.0149 -0.2039,-0.0149 -0.28125,0 -0.0773,0.0149 -0.0141,0.0271 0.14063,0.0271 0.15469,0 0.21797,-0.0122 0.14062,-0.0271 z m 0.89063,-0.078 c 0.25281,-0.0394 0.27071,-0.0492 0.0937,-0.0515 -0.12031,-0.002 -0.35938,0.019 -0.53125,0.0458 -0.25281,0.0394 -0.27072,0.0492 -0.0937,0.0516 0.12031,0.002 0.35937,-0.019 0.53125,-0.0458 z m 0.73437,-0.10948 c -0.0773,-0.0149 -0.2039,-0.0149 -0.28125,0 -0.0773,0.0149 -0.0141,0.0271 0.14063,0.0271 0.15469,0 0.21797,-0.0122 0.14062,-0.0271 z m 0.53198,-0.0613 c -0.0598,-0.0156 -0.17225,-0.0162 -0.25,-10e-4 -0.0777,0.0149 -0.0288,0.0278 0.10865,0.0284 0.1375,6.9e-4 0.20111,-0.0115 0.14135,-0.0272 l 0,0 z m 0.53052,-0.0637 c -0.0773,-0.0149 -0.2039,-0.0149 -0.28125,0 -0.0773,0.0149 -0.0141,0.0271 0.14063,0.0271 0.15469,0 0.21797,-0.0122 0.14062,-0.0271 z m 8.84613,-1.03636 c 0.15485,-0.0236 0.15195,-0.0266 -0.0336,-0.0352 l -0.20312,-0.009 0.0129,0.57813 0.0129,0.57812 0.0208,-0.54295 c 0.0205,-0.53626 0.0229,-0.54327 0.19027,-0.56876 z m -8.31415,0.97502 c -0.0598,-0.0156 -0.17225,-0.0162 -0.25,-0.001 -0.0777,0.0149 -0.0288,0.0278 0.10865,0.0284 0.1375,6.9e-4 0.20111,-0.0115 0.14135,-0.0272 l 0,0 z m 0.53052,-0.0637 c -0.0773,-0.0149 -0.2039,-0.0149 -0.28125,0 -0.0773,0.0149 -0.0141,0.0271 0.14063,0.0271 0.15469,0 0.21797,-0.0122 0.14062,-0.0271 z m 0.89063,-0.078 c 0.25281,-0.0394 0.27071,-0.0492 0.0937,-0.0515 -0.12031,-0.002 -0.35938,0.019 -0.53125,0.0458 -0.25281,0.0394 -0.27072,0.0492 -0.0937,0.0516 0.12031,0.002 0.35937,-0.019 0.53125,-0.0458 z m 0.70385,-0.10832 c -0.0598,-0.0156 -0.17225,-0.0162 -0.25,-0.001 -0.0777,0.0149 -0.0288,0.0278 0.10865,0.0284 0.1375,6.9e-4 0.20111,-0.0115 0.14135,-0.0272 l 0,0 z m 0.53052,-0.0637 c -0.0773,-0.0149 -0.2039,-0.0149 -0.28125,0 -0.0773,0.0149 -0.0141,0.0271 0.14063,0.0271 0.15469,0 0.21797,-0.0122 0.14062,-0.0271 z m 0.53198,-0.0613 c -0.0598,-0.0156 -0.17225,-0.0162 -0.25,-0.001 -0.0777,0.0149 -0.0288,0.0278 0.10865,0.0284 0.1375,6.9e-4 0.2011,-0.0115 0.14135,-0.0272 l 0,0 z m 0.53052,-0.0637 c -0.0773,-0.0149 -0.2039,-0.0149 -0.28125,0 -0.0773,0.0149 -0.0141,0.0271 0.14063,0.0271 0.15469,0 0.21797,-0.0122 0.14062,-0.0271 z m 0.53198,-0.0613 c -0.0598,-0.0156 -0.17225,-0.0162 -0.25,-0.001 -0.0777,0.0149 -0.0288,0.0278 0.10865,0.0284 0.1375,6.9e-4 0.2011,-0.0115 0.14135,-0.0272 l 0,0 z m 0.53052,-0.0637 c -0.0773,-0.0149 -0.2039,-0.0149 -0.28125,0 -0.0773,0.0149 -0.0141,0.0271 0.14063,0.0271 0.15469,0 0.21797,-0.0122 0.14062,-0.0271 z m 0.53198,-0.0613 c -0.0598,-0.0156 -0.17225,-0.0162 -0.25,-0.001 -0.0777,0.0149 -0.0288,0.0278 0.10865,0.0284 0.1375,6.9e-4 0.2011,-0.0115 0.14135,-0.0272 l 0,0 z m 0.53052,-0.0637 c -0.0773,-0.0149 -0.2039,-0.0149 -0.28125,0 -0.0773,0.0149 -0.0141,0.0271 0.14063,0.0271 0.15469,0 0.21797,-0.0122 0.14062,-0.0271 z m 0.89063,-0.078 c 0.2528,-0.0394 0.27071,-0.0492 0.0937,-0.0515 -0.12031,-0.002 -0.35938,0.019 -0.53125,0.0458 -0.25281,0.0394 -0.27071,0.0492 -0.0937,0.0516 0.12031,0.002 0.35937,-0.019 0.53125,-0.0458 z m 2.14135,-0.29582 c -0.0598,-0.0156 -0.17225,-0.0162 -0.25,-0.001 -0.0777,0.0149 -0.0288,0.0278 0.10865,0.0284 0.1375,6.9e-4 0.2011,-0.0115 0.14135,-0.0272 l 0,0 z m 0.5,-0.0625 c -0.0598,-0.0156 -0.17225,-0.0162 -0.25,-0.001 -0.0777,0.0149 -0.0288,0.0278 0.10865,0.0284 0.1375,6.9e-4 0.2011,-0.0115 0.14135,-0.0272 l 0,0 z m 0.43677,-0.0626 c -0.0602,-0.0157 -0.15859,-0.0157 -0.21875,0 -0.0602,0.0157 -0.0109,0.0286 0.10938,0.0286 0.12031,0 0.16953,-0.0129 0.10937,-0.0286 z m 0.50073,-0.0624 c -0.0598,-0.0156 -0.17225,-0.0162 -0.25,-0.001 -0.0777,0.0149 -0.0288,0.0278 0.10865,0.0284 0.1375,6.9e-4 0.2011,-0.0115 0.14135,-0.0272 l 0,0 z m 0.5,-0.0625 c -0.0598,-0.0156 -0.17225,-0.0162 -0.25,-0.001 -0.0777,0.0149 -0.0288,0.0278 0.10865,0.0284 0.1375,6.9e-4 0.2011,-0.0115 0.14135,-0.0272 l 0,0 z m 0.43677,-0.0626 c -0.0602,-0.0157 -0.15859,-0.0157 -0.21875,0 -0.0602,0.0157 -0.0109,0.0286 0.10938,0.0286 0.12031,0 0.16953,-0.0129 0.10937,-0.0286 z m 0.5,-0.0625 c -0.0602,-0.0157 -0.15859,-0.0157 -0.21875,0 -0.0602,0.0157 -0.0109,0.0286 0.10938,0.0286 0.12031,0 0.16953,-0.0129 0.10937,-0.0286 z m 0.50073,-0.0624 c -0.0598,-0.0156 -0.17225,-0.0162 -0.25,-0.001 -0.0777,0.0149 -0.0288,0.0278 0.10865,0.0284 0.1375,6.9e-4 0.2011,-0.0115 0.14135,-0.0272 l 0,0 z m 0.5,-0.0625 c -0.0598,-0.0156 -0.17225,-0.0162 -0.25,-0.001 -0.0777,0.0149 -0.0288,0.0278 0.10865,0.0284 0.1375,6.9e-4 0.2011,-0.0115 0.14135,-0.0272 l 0,0 z m 0.5,-0.0625 c -0.0598,-0.0156 -0.17225,-0.0162 -0.25,-0.001 -0.0777,0.0149 -0.0288,0.0278 0.10865,0.0284 0.1375,6.9e-4 0.2011,-0.0115 0.14135,-0.0272 l 0,0 z m 0.43677,-0.0626 c -0.0602,-0.0157 -0.15859,-0.0157 -0.21875,0 -0.0602,0.0157 -0.0109,0.0286 0.10938,0.0286 0.12031,0 0.16953,-0.0129 0.10937,-0.0286 z m 0.50073,-0.0624 c -0.0598,-0.0156 -0.17225,-0.0162 -0.25,-0.001 -0.0777,0.0149 -0.0288,0.0278 0.10865,0.0284 0.1375,6.9e-4 0.2011,-0.0115 0.14135,-0.0272 l 0,0 z m 0.5,-0.0625 c -0.0598,-0.0156 -0.17225,-0.0162 -0.25,-0.001 -0.0777,0.0149 -0.0288,0.0278 0.10865,0.0284 0.1375,6.9e-4 0.2011,-0.0115 0.14135,-0.0272 l 0,0 z m 0.43677,-0.0626 c -0.0602,-0.0157 -0.15859,-0.0157 -0.21875,0 -0.0602,0.0157 -0.0109,0.0286 0.10938,0.0286 0.12031,0 0.16953,-0.0129 0.10937,-0.0286 z m 0.50073,-0.0624 c -0.0598,-0.0156 -0.17225,-0.0162 -0.25,-0.001 -0.0777,0.0149 -0.0288,0.0278 0.10865,0.0284 0.1375,6.9e-4 0.2011,-0.0115 0.14135,-0.0272 l 0,0 z m 0.5,-0.0625 c -0.0598,-0.0156 -0.17225,-0.0162 -0.25,-0.001 -0.0777,0.0149 -0.0288,0.0278 0.10865,0.0284 0.1375,6.9e-4 0.2011,-0.0115 0.14135,-0.0272 l 0,0 z m 0.43677,-0.0626 c -0.0602,-0.0157 -0.15859,-0.0157 -0.21875,0 -0.0602,0.0157 -0.0109,0.0286 0.10938,0.0286 0.12031,0 0.16953,-0.0129 0.10937,-0.0286 z m 0.50073,-0.0624 c -0.0598,-0.0156 -0.17225,-0.0162 -0.25,-0.001 -0.0777,0.0149 -0.0288,0.0278 0.10865,0.0284 0.1375,6.9e-4 0.2011,-0.0115 0.14135,-0.0272 l 0,0 z m 0.43677,-0.0626 c -0.0602,-0.0157 -0.15859,-0.0157 -0.21875,0 -0.0602,0.0157 -0.0109,0.0286 0.10938,0.0286 0.12031,0 0.16953,-0.0129 0.10937,-0.0286 z m 0.50073,-0.0624 c -0.0598,-0.0156 -0.17225,-0.0162 -0.25,-0.001 -0.0777,0.0149 -0.0288,0.0278 0.10865,0.0284 0.1375,6.9e-4 0.2011,-0.0115 0.14135,-0.0272 l 0,0 z m 0.43677,-0.0626 c -0.0602,-0.0157 -0.15859,-0.0157 -0.21875,0 -0.0602,0.0157 -0.0109,0.0286 0.10938,0.0286 0.12031,0 0.16953,-0.0129 0.10937,-0.0286 z m 0.76563,-0.0787 c 0.20745,-0.0369 0.23205,-0.0509 0.0937,-0.0532 -0.10313,-0.002 -0.31406,0.0193 -0.46875,0.0469 -0.20746,0.0369 -0.23205,0.0509 -0.0937,0.0532 0.10312,0.002 0.31406,-0.0193 0.46875,-0.0469 z m 0.60937,-0.10877 c -0.0602,-0.0157 -0.15859,-0.0157 -0.21875,0 -0.0602,0.0157 -0.0109,0.0286 0.10938,0.0286 0.12031,0 0.16953,-0.0129 0.10937,-0.0286 z m 0.4375,-0.0625 c -0.0602,-0.0157 -0.15859,-0.0157 -0.21875,0 -0.0602,0.0157 -0.0109,0.0286 0.10938,0.0286 0.12031,0 0.16953,-0.0129 0.10937,-0.0286 z m 0.4375,-0.0625 c -0.0602,-0.0157 -0.15859,-0.0157 -0.21875,0 -0.0602,0.0157 -0.0109,0.0286 0.10938,0.0286 0.12031,0 0.16953,-0.0129 0.10937,-0.0286 z m 0.76563,-0.0787 c 0.20745,-0.0369 0.23205,-0.0509 0.0937,-0.0532 -0.10313,-0.002 -0.31406,0.0193 -0.46875,0.0469 -0.20746,0.0369 -0.23205,0.0509 -0.0937,0.0532 0.10312,0.002 0.31406,-0.0193 0.46875,-0.0469 z m 0.60937,-0.10877 c -0.0602,-0.0157 -0.15859,-0.0157 -0.21875,0 -0.0602,0.0157 -0.0109,0.0286 0.10938,0.0286 0.12031,0 0.16953,-0.0129 0.10937,-0.0286 z m 0.4375,-0.0625 c -0.0602,-0.0157 -0.15859,-0.0157 -0.21875,0 -0.0602,0.0157 -0.0109,0.0286 0.10938,0.0286 0.12031,0 0.16953,-0.0129 0.10937,-0.0286 z m 0.4375,-0.0625 c -0.0602,-0.0157 -0.15859,-0.0157 -0.21875,0 -0.0602,0.0157 -0.0109,0.0286 0.10938,0.0286 0.12031,0 0.16953,-0.0129 0.10937,-0.0286 z m 0.4375,-0.0625 c -0.0602,-0.0157 -0.15859,-0.0157 -0.21875,0 -0.0602,0.0157 -0.0109,0.0286 0.10938,0.0286 0.12031,0 0.16953,-0.0129 0.10937,-0.0286 z m 0.4375,-0.0625 c -0.0602,-0.0157 -0.15859,-0.0157 -0.21875,0 -0.0602,0.0157 -0.0109,0.0286 0.10938,0.0286 0.12031,0 0.16953,-0.0129 0.10937,-0.0286 z m 0.67188,-0.0783 c 0.16037,-0.0332 0.19398,-0.053 0.0937,-0.0553 -0.0859,-0.002 -0.26875,0.0197 -0.40625,0.0481 -0.16037,0.0332 -0.19398,0.053 -0.0937,0.0553 0.0859,0.002 0.26875,-0.0197 0.40625,-0.0481 z m 0.57812,-0.10917 c -0.0602,-0.0157 -0.15859,-0.0157 -0.21875,0 -0.0602,0.0157 -0.0109,0.0286 0.10938,0.0286 0.12031,0 0.16953,-0.0129 0.10937,-0.0286 z m 0.4375,-0.0625 c -0.0602,-0.0157 -0.15859,-0.0157 -0.21875,0 -0.0602,0.0157 -0.0109,0.0286 0.10938,0.0286 0.12031,0 0.16953,-0.0129 0.10937,-0.0286 z m 0.4375,-0.0625 c -0.0602,-0.0157 -0.15859,-0.0157 -0.21875,0 -0.0602,0.0157 -0.0109,0.0286 0.10938,0.0286 0.12031,0 0.16953,-0.0129 0.10937,-0.0286 z m 0.40744,-0.0604 c -0.0423,-0.0171 -0.12669,-0.0182 -0.1875,-0.002 -0.0608,0.0158 -0.0262,0.0299 0.0769,0.0311 0.10312,0.001 0.15288,-0.0117 0.11056,-0.0288 l 0,1e-5 z m 0.40506,-0.0646 c -0.0602,-0.0157 -0.15859,-0.0157 -0.21875,0 -0.0602,0.0157 -0.0109,0.0286 0.10938,0.0286 0.12031,0 0.16953,-0.0129 0.10937,-0.0286 z m 0.40744,-0.0604 c -0.0423,-0.0171 -0.12669,-0.0182 -0.1875,-0.002 -0.0608,0.0158 -0.0262,0.0299 0.0769,0.0311 0.10312,0.001 0.15288,-0.0117 0.11056,-0.0288 l 0,1e-5 z m 0.4375,-0.0625 c -0.0423,-0.0171 -0.12669,-0.0182 -0.1875,-0.002 -0.0608,0.0158 -0.0262,0.0299 0.0769,0.0311 0.10312,0.001 0.15288,-0.0117 0.11056,-0.0288 l 0,1e-5 z m 0.40506,-0.0646 c -0.0602,-0.0157 -0.15859,-0.0157 -0.21875,0 -0.0602,0.0157 -0.0109,0.0286 0.10938,0.0286 0.12031,0 0.16953,-0.0129 0.10937,-0.0286 z m 0.40744,-0.0604 c -0.0423,-0.0171 -0.12669,-0.0182 -0.1875,-0.002 -0.0608,0.0158 -0.0262,0.0299 0.0769,0.0311 0.10312,0.001 0.15288,-0.0117 0.11056,-0.0288 l 0,1e-5 z m 0.40506,-0.0646 c -0.0602,-0.0157 -0.15859,-0.0157 -0.21875,0 -0.0602,0.0157 -0.0109,0.0286 0.10938,0.0286 0.12031,0 0.16953,-0.0129 0.10937,-0.0286 z m 0.40744,-0.0604 c -0.0423,-0.0171 -0.12669,-0.0182 -0.1875,-0.002 -0.0608,0.0158 -0.0262,0.0299 0.0769,0.0311 0.10312,0.001 0.15288,-0.0117 0.11056,-0.0288 l 0,1e-5 z m 0.40506,-0.0646 c -0.0602,-0.0157 -0.15859,-0.0157 -0.21875,0 -0.0602,0.0157 -0.0109,0.0286 0.10938,0.0286 0.12031,0 0.16953,-0.0129 0.10937,-0.0286 z m 0.40744,-0.0604 c -0.0423,-0.0171 -0.12669,-0.0182 -0.1875,-0.002 -0.0608,0.0158 -0.0262,0.0299 0.0769,0.0311 0.10312,0.001 0.15288,-0.0117 0.11056,-0.0288 l 0,1e-5 z m 0.40506,-0.0646 c -0.0602,-0.0157 -0.15859,-0.0157 -0.21875,0 -0.0602,0.0157 -0.0109,0.0286 0.10938,0.0286 0.12031,0 0.16953,-0.0129 0.10937,-0.0286 z m 0.40744,-0.0604 c -0.0423,-0.0171 -0.12669,-0.0182 -0.1875,-0.002 -0.0608,0.0158 -0.0262,0.0299 0.0769,0.0311 0.10312,0.001 0.15288,-0.0117 0.11056,-0.0288 l 0,1e-5 z m 0.375,-0.0625 c -0.0423,-0.0171 -0.12669,-0.0182 -0.1875,-0.002 -0.0608,0.0158 -0.0262,0.0299 0.0769,0.0311 0.10312,0.001 0.15288,-0.0117 0.11056,-0.0288 l 0,1e-5 z m 0.40506,-0.0646 c -0.0602,-0.0157 -0.15859,-0.0157 -0.21875,0 -0.0602,0.0157 -0.0109,0.0286 0.10938,0.0286 0.12031,0 0.16953,-0.0129 0.10937,-0.0286 z m 0.40744,-0.0604 c -0.0423,-0.0171 -0.12669,-0.0182 -0.1875,-0.002 -0.0608,0.0158 -0.0262,0.0299 0.0769,0.0311 0.10312,0.001 0.15288,-0.0117 0.11056,-0.0288 l 0,1e-5 z m 0.375,-0.0625 c -0.0423,-0.0171 -0.12669,-0.0182 -0.1875,-0.002 -0.0608,0.0158 -0.0262,0.0299 0.0769,0.0311 0.10312,0.001 0.15288,-0.0117 0.11056,-0.0288 l 0,1e-5 z m 0.375,-0.0625 c -0.0423,-0.0171 -0.12669,-0.0182 -0.1875,-0.002 -0.0608,0.0158 -0.0262,0.0299 0.0769,0.0311 0.10312,0.001 0.15288,-0.0117 0.11056,-0.0288 l 0,1e-5 z m 0.375,-0.0625 c -0.0423,-0.0171 -0.12669,-0.0182 -0.1875,-0.002 -0.0608,0.0158 -0.0262,0.0299 0.0769,0.0311 0.10312,0.001 0.15288,-0.0117 0.11056,-0.0288 l 0,1e-5 z m 0.40506,-0.0646 c -0.0602,-0.0157 -0.15859,-0.0157 -0.21875,0 -0.0602,0.0157 -0.0109,0.0286 0.10938,0.0286 0.12031,0 0.16953,-0.0129 0.10937,-0.0286 z m 0.40744,-0.0604 c -0.0423,-0.0171 -0.12669,-0.0182 -0.1875,-0.002 -0.0608,0.0158 -0.0262,0.0299 0.0769,0.0311 0.10312,0.001 0.15288,-0.0117 0.11056,-0.0288 l 0,1e-5 z m 0.375,-0.0625 c -0.0423,-0.0171 -0.12669,-0.0182 -0.1875,-0.002 -0.0608,0.0158 -0.0262,0.0299 0.0769,0.0311 0.10312,0.001 0.15288,-0.0117 0.11056,-0.0288 l 0,1e-5 z m 0.375,-0.0625 c -0.0423,-0.0171 -0.12669,-0.0182 -0.1875,-0.002 -0.0608,0.0158 -0.0262,0.0299 0.0769,0.0311 0.10312,0.001 0.15288,-0.0117 0.11056,-0.0288 l 0,1e-5 z m 0.375,-0.0625 c -0.0423,-0.0171 -0.12669,-0.0182 -0.1875,-0.002 -0.0608,0.0158 -0.0262,0.0299 0.0769,0.0311 0.10312,0.001 0.15288,-0.0117 0.11056,-0.0288 l 0,1e-5 z m 0.375,-0.0625 c -0.0423,-0.0171 -0.12669,-0.0182 -0.1875,-0.002 -0.0608,0.0158 -0.0262,0.0299 0.0769,0.0311 0.10312,0.001 0.15288,-0.0117 0.11056,-0.0288 l 0,1e-5 z m 0.375,-0.0625 c -0.0423,-0.0171 -0.12669,-0.0182 -0.1875,-0.002 -0.0608,0.0158 -0.0262,0.0299 0.0769,0.0311 0.10312,0.001 0.15288,-0.0117 0.11056,-0.0288 l 0,1e-5 z m 0.375,-0.0625 c -0.0423,-0.0171 -0.12669,-0.0182 -0.1875,-0.002 -0.0608,0.0158 -0.0262,0.0299 0.0769,0.0311 0.10312,0.001 0.15288,-0.0117 0.11056,-0.0288 l 0,1e-5 z m 0.375,-0.0625 c -0.0423,-0.0171 -0.12669,-0.0182 -0.1875,-0.002 -0.0608,0.0158 -0.0262,0.0299 0.0769,0.0311 0.10312,0.001 0.15288,-0.0117 0.11056,-0.0288 l 0,1e-5 z m 0.375,-0.0625 c -0.0423,-0.0171 -0.12669,-0.0182 -0.1875,-0.002 -0.0608,0.0158 -0.0262,0.0299 0.0769,0.0311 0.10312,0.001 0.15288,-0.0117 0.11056,-0.0288 l 0,1e-5 z m 0.375,-0.0625 c -0.0423,-0.0171 -0.12669,-0.0182 -0.1875,-0.002 -0.0608,0.0158 -0.0262,0.0299 0.0769,0.0311 0.10312,0.001 0.15288,-0.0117 0.11056,-0.0288 l 0,1e-5 z m 0.375,-0.0625 c -0.0423,-0.0171 -0.12669,-0.0182 -0.1875,-0.002 -0.0608,0.0158 -0.0262,0.0299 0.0769,0.0311 0.10312,0.001 0.15288,-0.0117 0.11056,-0.0288 l 0,1e-5 z m 0.31131,-0.0629 c -0.043,-0.0173 -0.11328,-0.0173 -0.15625,0 -0.043,0.0173 -0.008,0.0315 0.0781,0.0315 0.0859,0 0.12109,-0.0142 0.0781,-0.0315 z m 0.37619,-0.0621 c -0.0423,-0.0171 -0.12669,-0.0182 -0.1875,-0.002 -0.0608,0.0158 -0.0262,0.0299 0.0769,0.0311 0.10312,0.001 0.15288,-0.0117 0.11056,-0.0288 l 0,1e-5 z m 0.375,-0.0625 c -0.0423,-0.0171 -0.12669,-0.0182 -0.1875,-0.002 -0.0608,0.0158 -0.0262,0.0299 0.0769,0.0311 0.10312,0.001 0.15288,-0.0117 0.11056,-0.0288 l 0,1e-5 z m 0.57694,-0.084 c 0.16725,-0.0426 0.17062,-0.0477 0.0312,-0.0477 -0.0859,0 -0.24063,0.0215 -0.34375,0.0477 -0.16725,0.0426 -0.17063,0.0477 -0.0312,0.0477 0.0859,0 0.24062,-0.0215 0.34375,-0.0477 z m 0.48556,-0.10349 c -0.0423,-0.0171 -0.12669,-0.0182 -0.1875,-0.002 -0.0608,0.0158 -0.0262,0.0299 0.0769,0.0311 0.10312,10e-4 0.15288,-0.0117 0.11056,-0.0288 l 0,10e-6 z m 0.375,-0.0625 c -0.0423,-0.0171 -0.12669,-0.0182 -0.1875,-0.002 -0.0608,0.0158 -0.0262,0.0299 0.0769,0.0311 0.10312,10e-4 0.15288,-0.0117 0.11056,-0.0288 l 0,10e-6 z m 0.31131,-0.0629 c -0.043,-0.0173 -0.11328,-0.0173 -0.15625,0 -0.043,0.0173 -0.008,0.0315 0.0781,0.0315 0.0859,0 0.12109,-0.0142 0.0781,-0.0315 z m 0.37619,-0.0621 c -0.0423,-0.0171 -0.12669,-0.0182 -0.1875,-0.002 -0.0608,0.0158 -0.0262,0.0299 0.0769,0.0311 0.10312,10e-4 0.15288,-0.0117 0.11056,-0.0288 l 0,10e-6 z m 0.57694,-0.084 c 0.16725,-0.0426 0.17062,-0.0477 0.0312,-0.0477 -0.0859,0 -0.24063,0.0215 -0.34375,0.0477 -0.16725,0.0426 -0.17063,0.0477 -0.0312,0.0477 0.0859,0 0.24062,-0.0215 0.34375,-0.0477 z m 0.6875,-0.125 c 0.16725,-0.0426 0.17062,-0.0477 0.0312,-0.0477 -0.0859,0 -0.24063,0.0215 -0.34375,0.0477 -0.16725,0.0426 -0.17063,0.0477 -0.0312,0.0477 0.0859,0 0.24062,-0.0215 0.34375,-0.0477 z m 0.6875,-0.125 c 0.16725,-0.0426 0.17062,-0.0477 0.0312,-0.0477 -0.0859,0 -0.24063,0.0215 -0.34375,0.0477 -0.16725,0.0426 -0.17063,0.0477 -0.0312,0.0477 0.0859,0 0.24062,-0.0215 0.34375,-0.0477 z m 0.6875,-0.125 c 0.16725,-0.0426 0.17062,-0.0477 0.0312,-0.0477 -0.0859,0 -0.24063,0.0215 -0.34375,0.0477 -0.16725,0.0426 -0.17063,0.0477 -0.0312,0.0477 0.0859,0 0.24062,-0.0215 0.34375,-0.0477 z m 0.42187,-0.10389 c -0.043,-0.0173 -0.11328,-0.0173 -0.15625,0 -0.043,0.0173 -0.008,0.0315 0.0781,0.0315 0.0859,0 0.12109,-0.0142 0.0781,-0.0315 z m 0.70313,-0.11118 c 0.20625,-0.0465 0.31875,-0.0863 0.25,-0.0883 -0.0688,-0.002 -0.29375,0.0344 -0.5,0.0809 -0.20625,0.0465 -0.31875,0.0863 -0.25,0.0883 0.0688,0.002 0.29375,-0.0344 0.5,-0.0809 z m 0.60937,-0.13882 c -0.043,-0.0173 -0.11328,-0.0173 -0.15625,0 -0.043,0.0173 -0.008,0.0315 0.0781,0.0315 0.0859,0 0.12109,-0.0142 0.0781,-0.0315 z m 0.57813,-0.0836 c 0.16725,-0.0426 0.17062,-0.0477 0.0312,-0.0477 -0.0859,0 -0.24063,0.0215 -0.34375,0.0477 -0.16725,0.0426 -0.17063,0.0477 -0.0312,0.0477 0.0859,0 0.24062,-0.0215 0.34375,-0.0477 z m 0.42187,-0.10389 c -0.043,-0.0173 -0.11328,-0.0173 -0.15625,0 -0.043,0.0173 -0.008,0.0315 0.0781,0.0315 0.0859,0 0.12109,-0.0142 0.0781,-0.0315 z m 0.3125,-0.0625 c -0.043,-0.0173 -0.11328,-0.0173 -0.15625,0 -0.043,0.0173 -0.008,0.0315 0.0781,0.0315 0.0859,0 0.12109,-0.0142 0.0781,-0.0315 z m 0.3125,-0.0625 c -0.043,-0.0173 -0.11328,-0.0173 -0.15625,0 -0.043,0.0173 -0.008,0.0315 0.0781,0.0315 0.0859,0 0.12109,-0.0142 0.0781,-0.0315 z m 0.3125,-0.0625 c -0.043,-0.0173 -0.11328,-0.0173 -0.15625,0 -0.043,0.0173 -0.008,0.0315 0.0781,0.0315 0.0859,0 0.12109,-0.0142 0.0781,-0.0315 z m 0.3125,-0.0625 c -0.043,-0.0173 -0.11328,-0.0173 -0.15625,0 -0.043,0.0173 -0.008,0.0315 0.0781,0.0315 0.0859,0 0.12109,-0.0142 0.0781,-0.0315 z m 0.3125,-0.0625 c -0.043,-0.0173 -0.11328,-0.0173 -0.15625,0 -0.043,0.0173 -0.008,0.0315 0.0781,0.0315 0.0859,0 0.12109,-0.0142 0.0781,-0.0315 z m 0.3125,-0.0625 c -0.043,-0.0173 -0.11328,-0.0173 -0.15625,0 -0.043,0.0173 -0.008,0.0315 0.0781,0.0315 0.0859,0 0.12109,-0.0142 0.0781,-0.0315 z m 0.3125,-0.0625 c -0.043,-0.0173 -0.11328,-0.0173 -0.15625,0 -0.043,0.0173 -0.008,0.0315 0.0781,0.0315 0.0859,0 0.12109,-0.0142 0.0781,-0.0315 z m 0.3125,-0.0625 c -0.043,-0.0173 -0.11328,-0.0173 -0.15625,0 -0.043,0.0173 -0.008,0.0315 0.0781,0.0315 0.0859,0 0.12109,-0.0142 0.0781,-0.0315 z m 0.3125,-0.0625 c -0.043,-0.0173 -0.11328,-0.0173 -0.15625,0 -0.043,0.0173 -0.008,0.0315 0.0781,0.0315 0.0859,0 0.12109,-0.0142 0.0781,-0.0315 z m 0.64063,-0.11343 c 0.17187,-0.0442 0.25625,-0.081 0.1875,-0.0817 -0.0688,-7.8e-4 -0.26563,0.0347 -0.4375,0.0789 -0.17188,0.0442 -0.25625,0.081 -0.1875,0.0817 0.0688,7.8e-4 0.26562,-0.0347 0.4375,-0.0789 z m 0.54687,-0.13657 c -0.043,-0.0173 -0.11328,-0.0173 -0.15625,0 -0.043,0.0173 -0.008,0.0315 0.0781,0.0315 0.0859,0 0.12109,-0.0142 0.0781,-0.0315 z m 0.3125,-0.0625 c -0.043,-0.0173 -0.11328,-0.0173 -0.15625,0 -0.043,0.0173 -0.008,0.0315 0.0781,0.0315 0.0859,0 0.12109,-0.0142 0.0781,-0.0315 z m 0.48438,-0.0836 c 0.12372,-0.0396 0.13023,-0.05 0.0312,-0.05 -0.0688,0 -0.19531,0.0225 -0.28125,0.05 -0.12373,0.0396 -0.13023,0.05 -0.0312,0.05 0.0688,0 0.19531,-0.0225 0.28125,-0.05 z m 0.5625,-0.125 c 0.12372,-0.0396 0.13023,-0.05 0.0312,-0.05 -0.0688,0 -0.19531,0.0225 -0.28125,0.05 -0.12373,0.0396 -0.13023,0.05 -0.0312,0.05 0.0688,0 0.19531,-0.0225 0.28125,-0.05 z m 0.5625,-0.125 c 0.12372,-0.0396 0.13023,-0.05 0.0312,-0.05 -0.0688,0 -0.19531,0.0225 -0.28125,0.05 -0.12373,0.0396 -0.13023,0.05 -0.0312,0.05 0.0688,0 0.19531,-0.0225 0.28125,-0.05 z m 0.39062,-0.10389 c -0.043,-0.0173 -0.11328,-0.0173 -0.15625,0 -0.043,0.0173 -0.008,0.0315 0.0781,0.0315 0.0859,0 0.12109,-0.0142 0.0781,-0.0315 z m 0.57813,-0.11047 c 0.17187,-0.0478 0.27031,-0.0889 0.21875,-0.0913 -0.0516,-0.002 -0.23438,0.0347 -0.40625,0.0826 -0.17188,0.0478 -0.27031,0.0889 -0.21875,0.0913 0.0516,0.002 0.23437,-0.0348 0.40625,-0.0826 z m 0.51432,-0.1359 c -0.0208,-0.0208 -0.0747,-0.023 -0.11979,-0.005 -0.0499,0.0199 -0.035,0.0348 0.0378,0.0378 0.0659,0.003 0.1028,-0.0121 0.082,-0.0328 z m 0.54818,-0.1141 c 0.17187,-0.0478 0.27031,-0.0889 0.21875,-0.0913 -0.0516,-0.002 -0.23438,0.0347 -0.40625,0.0826 -0.17188,0.0478 -0.27031,0.0889 -0.21875,0.0913 0.0516,0.002 0.23437,-0.0348 0.40625,-0.0826 z m 0.51432,-0.1359 c -0.0208,-0.0208 -0.0747,-0.023 -0.11979,-0.005 -0.0499,0.0199 -0.035,0.0348 0.0378,0.0378 0.0659,0.003 0.1028,-0.0121 0.082,-0.0328 z m 0.54818,-0.11674 c 0.33564,-0.11061 0.20352,-0.11494 -0.1875,-0.006 -0.17188,0.0478 -0.25625,0.0873 -0.1875,0.0877 0.0688,4.3e-4 0.2375,-0.0363 0.375,-0.0816 z m 0.45182,-0.13326 c -0.0208,-0.0208 -0.0747,-0.023 -0.11979,-0.005 -0.0499,0.0199 -0.035,0.0348 0.0378,0.0378 0.0659,0.003 0.1028,-0.0121 0.082,-0.0328 z m 0.25,-0.0625 c -0.0208,-0.0208 -0.0747,-0.023 -0.11979,-0.005 -0.0499,0.0199 -0.035,0.0348 0.0378,0.0378 0.0659,0.003 0.1028,-0.0121 0.082,-0.0328 z m 0.25,-0.0625 c -0.0208,-0.0208 -0.0747,-0.023 -0.11979,-0.005 -0.0499,0.0199 -0.035,0.0348 0.0378,0.0378 0.0659,0.003 0.1028,-0.0121 0.082,-0.0328 z m 0.25,-0.0625 c -0.0208,-0.0208 -0.0747,-0.023 -0.11979,-0.005 -0.0499,0.0199 -0.035,0.0348 0.0378,0.0378 0.0659,0.003 0.1028,-0.0121 0.082,-0.0328 z m 0.61068,-0.15815 c 0.0858,-0.0376 0.0564,-0.0423 -0.0937,-0.015 -0.12031,0.0218 -0.275,0.0643 -0.34375,0.0944 -0.0858,0.0376 -0.0564,0.0423 0.0937,0.015 0.12031,-0.0218 0.275,-0.0643 0.34375,-0.0944 z m 0.4375,-0.11659 c 0.0788,-0.0338 0.0903,-0.0537 0.0312,-0.0537 -0.0516,0 -0.15,0.0242 -0.21875,0.0537 -0.0788,0.0339 -0.0904,0.0537 -0.0312,0.0537 0.0516,0 0.15,-0.0242 0.21875,-0.0537 z m 0.4375,-0.125 c 0.0788,-0.0338 0.0903,-0.0537 0.0312,-0.0537 -0.0516,0 -0.15,0.0242 -0.21875,0.0537 -0.0788,0.0339 -0.0904,0.0537 -0.0312,0.0537 0.0516,0 0.15,-0.0242 0.21875,-0.0537 z m 0.53125,-0.15625 c 0.12031,-0.0463 0.17656,-0.0842 0.125,-0.0842 -0.0516,0 -0.19219,0.0379 -0.3125,0.0842 -0.12031,0.0463 -0.17656,0.0842 -0.125,0.0842 0.0516,0 0.19219,-0.0379 0.3125,-0.0842 z m 0.7847,-0.24534 c 0.23872,-0.0834 0.40437,-0.1537 0.3681,-0.15625 -0.0363,-0.003 -0.26128,0.0636 -0.5,0.14694 -0.23873,0.0834 -0.40438,0.15369 -0.3681,0.15625 0.0363,0.003 0.26127,-0.0636 0.5,-0.14694 z m 1.79742,-0.59569 c 0.23422,-0.0773 0.41475,-0.15168 0.40117,-0.16526 -0.0303,-0.0303 -0.92672,0.27079 -0.97781,0.32848 -0.0202,0.0228 0.005,0.027 0.057,0.009 0.0516,-0.0176 0.28539,-0.0953 0.51962,-0.17264 z m 1.01137,-0.38691 c 0.13764,-0.0638 0.18006,-0.0978 0.0943,-0.0756 -0.0858,0.0222 -0.26861,0.0926 -0.40625,0.15645 -0.13764,0.0638 -0.18007,0.0978 -0.0943,0.0756 0.0858,-0.0223 0.26861,-0.0927 0.40625,-0.15646 z"
       id="path4220"
       inkscape:connector-curvature="0"
       transform="translate(0,662.59836)" />
    <path
       style="opacity:1;fill:#00ff00;fill-opacity:1;stroke:#000000;stroke-width:0.00625;stroke-linecap:round;stroke-linejoin:miter;stroke-miterlimit:4;stroke-dasharray:none;stroke-dashoffset:0;stroke-opacity:0.04166667"
       d="m 317.65787,359.5982 c 3.3e-4,-31.90917 0.006,-33.5912 0.10949,-33.62144 0.06,-0.0175 0.24977,-0.0468 0.42165,-0.0651 0.22238,-0.0237 0.26744,-0.0175 0.15625,0.0215 l -0.15625,0.0548 0.15625,0 c 0.0859,0 0.22656,-0.0225 0.3125,-0.05 l 0.15625,-0.05 -0.15625,-0.0136 c -0.14812,-0.0129 -0.14649,-0.0161 0.0312,-0.0613 0.10312,-0.0262 0.25781,-0.0482 0.34375,-0.0489 l 0.15625,-10e-4 -0.15625,0.05 -0.15625,0.05 0.15625,0 c 0.0859,0 0.22656,-0.0225 0.3125,-0.05 l 0.15625,-0.05 -0.15625,-0.0136 c -0.14812,-0.0129 -0.14649,-0.0161 0.0312,-0.0613 0.10312,-0.0262 0.25781,-0.0482 0.34375,-0.0489 l 0.15625,-0.001 -0.15625,0.05 -0.15625,0.05 0.15625,0 c 0.0859,0 0.22656,-0.0225 0.3125,-0.05 l 0.15625,-0.05 -0.15625,-0.0136 c -0.14812,-0.0129 -0.14649,-0.0161 0.0312,-0.0613 0.10312,-0.0262 0.25781,-0.0482 0.34375,-0.0489 l 0.15625,-0.001 -0.15625,0.05 -0.15625,0.05 0.15625,0 c 0.0859,0 0.22656,-0.0225 0.3125,-0.05 l 0.15625,-0.05 -0.15625,-0.0125 c -0.1214,-0.01 -0.10049,-0.0258 0.0937,-0.0719 0.1375,-0.0327 0.3375,-0.0433 0.44444,-0.0238 0.25355,0.0464 0.92138,-0.0908 0.74533,-0.15309 -0.17134,-0.0607 0.34847,-0.14141 0.61313,-0.0952 0.1084,0.0189 0.28147,0.008 0.3846,-0.0242 0.18004,-0.0562 0.18128,-0.059 0.0312,-0.0702 -0.15073,-0.0112 3.30968,-0.74453 3.5,-0.74174 0.0618,9e-4 0.0512,0.0211 -0.0312,0.0593 -0.0871,0.0403 -0.0397,0.0463 0.15625,0.0198 0.3289,-0.0445 0.54581,-0.14073 0.34375,-0.15246 -0.0688,-0.004 0.17031,-0.0749 0.53125,-0.15762 0.36094,-0.0827 0.74597,-0.13559 0.85563,-0.11752 0.10966,0.0181 0.27841,0.0125 0.375,-0.0123 l 0.17562,-0.0451 -0.15625,-0.0492 c -0.10314,-0.0325 -0.0592,-0.0384 0.12938,-0.0174 0.1571,0.0175 0.35398,0.005 0.4375,-0.0288 l 0.15187,-0.0607 -0.15625,-0.008 c -0.0859,-0.004 0.60312,-0.18875 1.53125,-0.41007 0.92812,-0.22132 2.31745,-0.57121 3.0874,-0.77754 1.41586,-0.37942 1.61335,-0.42218 1.44385,-0.31264 -0.14946,0.0966 0.0524,0.0758 0.28125,-0.029 0.15142,-0.0693 0.16344,-0.0877 0.0625,-0.0953 -0.125,-0.009 -0.125,-0.009 0,-0.0632 0.0688,-0.0295 0.18125,-0.0553 0.25,-0.0571 0.10317,-0.003 0.10863,0.007 0.0312,0.0571 -0.13914,0.0899 -0.0585,0.0765 0.40983,-0.0682 0.24131,-0.0745 0.39155,-0.15009 0.34978,-0.17591 -0.0949,-0.0587 0.56722,-0.27286 0.89664,-0.29002 0.29366,-0.0153 0.98447,-0.26491 0.9386,-0.33913 -0.0326,-0.0527 0.10913,-0.12752 0.23838,-0.12583 0.0419,5.5e-4 0.0331,0.0268 -0.0207,0.0616 -0.16857,0.10893 9.7e-4,0.0656 0.33199,-0.0849 0.17834,-0.0811 0.46488,-0.19818 0.63676,-0.26024 1.02295,-0.36938 2.53288,-1.18765 4.03391,-2.18608 1.25286,-0.83336 1.62975,-0.98794 2.40002,-0.9844 1.03134,0.005 2.21168,0.57445 3.87857,1.87204 1.53999,1.1988 3.89011,3.44892 8.08118,7.73734 3.79859,3.88681 5.12524,5.11631 6.63757,6.15148 1.58275,1.08338 3.24124,1.67644 4.8125,1.72091 0.42969,0.0122 1.34375,0.0599 2.03125,0.10611 1.61802,0.10873 12.35073,0.11031 16.25,0.002 10.85815,-0.30049 16.70735,-0.52749 35.71875,-1.38617 10.81325,-0.4884 14.05779,-0.61948 15.1875,-0.61359 0.44472,0.002 1.26585,-0.0547 1.90625,-0.13235 5.91198,-0.71692 9.92734,-1.76312 21.35937,-5.56512 l 4.48438,-1.4914 0,33.58824 0,33.58824 -74.46886,0 -74.46887,0 3.4e-4,-33.58961 0,-10e-6 z m 60.79676,-24.14423 c -0.23203,-0.012 -0.61172,-0.012 -0.84375,0 -0.23203,0.012 -0.0422,0.0219 0.42188,0.0219 0.46406,0 0.6539,-0.01 0.42187,-0.0219 z m -2.87122,-0.0629 c -0.47057,-0.0106 -1.25807,-0.0106 -1.75,-6e-5 -0.49192,0.0106 -0.1069,0.0192 0.8556,0.0193 0.9625,3e-5 1.36498,-0.009 0.8944,-0.0192 z m 9.71497,-1.3e-4 c -0.90234,-0.01 -2.3789,-0.01 -3.28125,0 -0.90234,0.01 -0.16406,0.0178 1.64063,0.0178 1.80469,0 2.54297,-0.008 1.64062,-0.0178 z m -12.71665,-0.0615 c -0.16213,-0.0128 -0.44338,-0.013 -0.625,-3.1e-4 -0.18162,0.0127 -0.049,0.0232 0.29478,0.0233 0.34375,1.9e-4 0.49235,-0.0102 0.33022,-0.023 l 0,2e-5 z m 16.09451,-5e-4 c -0.24765,-0.0118 -0.66953,-0.0119 -0.9375,-1.9e-4 -0.26798,0.0117 -0.0654,0.0214 0.45027,0.0215 0.51562,6e-5 0.73488,-0.01 0.48723,-0.0213 l 0,3e-5 z m -17.31536,-0.0614 c -0.11172,-0.0139 -0.29453,-0.0139 -0.40625,0 -0.11172,0.0139 -0.0203,0.0252 0.20313,0.0252 0.22344,0 0.31484,-0.0113 0.20312,-0.0252 z m -0.81164,-0.0613 c -0.0769,-0.0148 -0.21749,-0.0152 -0.3125,-8.5e-4 -0.095,0.0144 -0.0321,0.0265 0.13977,0.027 0.17187,4.4e-4 0.2496,-0.0113 0.17273,-0.0261 l 0,0 z m 22.71789,-0.002 c -0.2664,-0.0117 -0.70234,-0.0117 -0.96875,0 -0.2664,0.0117 -0.0484,0.0213 0.48438,0.0213 0.53281,0 0.75078,-0.01 0.48437,-0.0213 z m -23.31177,-0.059 c -0.0598,-0.0156 -0.17225,-0.0162 -0.25,-10e-4 -0.0777,0.0149 -0.0288,0.0277 0.10865,0.0284 0.1375,7e-4 0.20111,-0.0115 0.14135,-0.0272 l 0,0 z m 25.21802,-0.003 c -0.24922,-0.0119 -0.65703,-0.0119 -0.90625,0 -0.24922,0.0119 -0.0453,0.0216 0.45313,0.0216 0.49844,0 0.70234,-0.01 0.45312,-0.0216 z m 1.87227,-0.0626 c -0.25072,-0.0119 -0.64447,-0.0118 -0.875,1.9e-4 -0.23053,0.012 -0.0254,0.0217 0.45586,0.0216 0.48125,-1.3e-4 0.66986,-0.01 0.41914,-0.0218 l 0,-1e-5 z m 1.81783,-0.0622 c -0.21341,-0.0122 -0.57903,-0.0123 -0.8125,-1.9e-4 -0.23346,0.0121 -0.0589,0.022 0.38803,0.0221 0.44687,1.3e-4 0.63789,-0.01 0.42447,-0.0219 l 0,-10e-6 z m 1.7474,-0.0626 c -0.21484,-0.0122 -0.5664,-0.0122 -0.78125,0 -0.21484,0.0122 -0.0391,0.0222 0.39063,0.0222 0.42969,0 0.60547,-0.01 0.39062,-0.0222 z m 1.625,-0.0625 c -0.21484,-0.0122 -0.5664,-0.0122 -0.78125,0 -0.21484,0.0122 -0.0391,0.0222 0.39063,0.0222 0.42969,0 0.60547,-0.01 0.39062,-0.0222 z m 1.75,-0.0625 c -0.21484,-0.0122 -0.5664,-0.0122 -0.78125,0 -0.21484,0.0122 -0.0391,0.0222 0.39063,0.0222 0.42969,0 0.60547,-0.01 0.39062,-0.0222 z m 1.6875,-0.0625 c -0.21484,-0.0122 -0.5664,-0.0122 -0.78125,0 -0.21484,0.0122 -0.0391,0.0222 0.39063,0.0222 0.42969,0 0.60547,-0.01 0.39062,-0.0222 z m 1.5962,-0.0623 c -0.19631,-0.0124 -0.53381,-0.0125 -0.75,-2.5e-4 -0.21619,0.0122 -0.0556,0.0224 0.35693,0.0225 0.4125,1.3e-4 0.58938,-0.01 0.39307,-0.0222 l 0,2e-5 z m 1.56005,-0.0626 c -0.19765,-0.0124 -0.52109,-0.0124 -0.71875,0 -0.19765,0.0124 -0.0359,0.0225 0.35938,0.0225 0.39531,0 0.55703,-0.0102 0.35937,-0.0225 z m 1.5625,-0.0625 c -0.19765,-0.0124 -0.52109,-0.0124 -0.71875,0 -0.19765,0.0124 -0.0359,0.0225 0.35938,0.0225 0.39531,0 0.55703,-0.0102 0.35937,-0.0225 z m 1.5,-0.0625 c -0.19765,-0.0124 -0.52109,-0.0124 -0.71875,0 -0.19765,0.0124 -0.0359,0.0225 0.35938,0.0225 0.39531,0 0.55703,-0.0102 0.35937,-0.0225 z m 1.5625,-0.0625 c -0.19765,-0.0124 -0.52109,-0.0124 -0.71875,0 -0.19765,0.0124 -0.0359,0.0225 0.35938,0.0225 0.39531,0 0.55703,-0.0102 0.35937,-0.0225 z m 1.50245,-0.0624 c -0.19631,-0.0124 -0.53381,-0.0125 -0.75,-2.5e-4 -0.21619,0.0122 -0.0556,0.0224 0.35693,0.0225 0.4125,1.3e-4 0.58938,-0.01 0.39307,-0.0222 l 0,2e-5 z m 1.46858,-0.0624 c -0.17921,-0.0126 -0.48858,-0.0127 -0.6875,-2.5e-4 -0.19891,0.0124 -0.0523,0.0227 0.32585,0.0229 0.37812,1.3e-4 0.54087,-0.01 0.36165,-0.0226 l 0,0 z m 1.5,-0.0625 c -0.17921,-0.0126 -0.48858,-0.0127 -0.6875,-2.5e-4 -0.19891,0.0124 -0.0523,0.0227 0.32585,0.0229 0.37812,1.3e-4 0.54087,-0.01 0.36165,-0.0226 l 0,0 z m 1.37272,-0.0626 c -0.18047,-0.0126 -0.47578,-0.0126 -0.65625,0 -0.18047,0.0126 -0.0328,0.0229 0.32813,0.0229 0.36094,0 0.50859,-0.0103 0.32812,-0.0229 z m 1.4375,-0.0625 c -0.18047,-0.0126 -0.47578,-0.0126 -0.65625,0 -0.18047,0.0126 -0.0328,0.0229 0.32813,0.0229 0.36094,0 0.50859,-0.0103 0.32812,-0.0229 z m 1.375,-0.0625 c -0.18047,-0.0126 -0.47578,-0.0126 -0.65625,0 -0.18047,0.0126 -0.0328,0.0229 0.32813,0.0229 0.36094,0 0.50859,-0.0103 0.32812,-0.0229 z m 1.50228,-0.0624 c -0.17921,-0.0126 -0.48858,-0.0127 -0.6875,-2.5e-4 -0.19891,0.0124 -0.0523,0.0227 0.32585,0.0229 0.37812,1.3e-4 0.54087,-0.01 0.36165,-0.0226 l 0,0 z m 1.37272,-0.0626 c -0.18047,-0.0126 -0.47578,-0.0126 -0.65625,0 -0.18047,0.0126 -0.0328,0.0229 0.32813,0.0229 0.36094,0 0.50859,-0.0103 0.32812,-0.0229 z m 1.43978,-0.0624 c -0.17921,-0.0126 -0.48858,-0.0127 -0.6875,-2.5e-4 -0.19891,0.0124 -0.0523,0.0227 0.32585,0.0229 0.37812,1.3e-4 0.54087,-0.01 0.36165,-0.0226 l 0,0 z m 1.37272,-0.0626 c -0.18047,-0.0126 -0.47578,-0.0126 -0.65625,0 -0.18047,0.0126 -0.0328,0.0229 0.32813,0.0229 0.36094,0 0.50859,-0.0103 0.32812,-0.0229 z m 1.4375,-0.0625 c -0.18047,-0.0126 -0.47578,-0.0126 -0.65625,0 -0.18047,0.0126 -0.0328,0.0229 0.32813,0.0229 0.36094,0 0.50859,-0.0103 0.32812,-0.0229 z m 1.375,-0.0625 c -0.18047,-0.0126 -0.47578,-0.0126 -0.65625,0 -0.18047,0.0126 -0.0328,0.0229 0.32813,0.0229 0.36094,0 0.50859,-0.0103 0.32812,-0.0229 z m 1.34585,-0.0623 c -0.16213,-0.0128 -0.44338,-0.013 -0.625,-3.1e-4 -0.18162,0.0127 -0.049,0.0232 0.29478,0.0233 0.34375,1.9e-4 0.49235,-0.0102 0.33022,-0.023 l 0,1e-5 z m 1.3125,-0.0625 c -0.16213,-0.0128 -0.44338,-0.013 -0.625,-3.1e-4 -0.18162,0.0127 -0.049,0.0232 0.29478,0.0233 0.34375,1.9e-4 0.49235,-0.0102 0.33022,-0.023 l 0,1e-5 z m 1.21665,-0.0624 c -0.14609,-0.0131 -0.38515,-0.0131 -0.53125,0 -0.14609,0.0132 -0.0266,0.0239 0.26563,0.0239 0.29219,0 0.41172,-0.0108 0.26562,-0.0239 z m 1.125,-0.0625 c -0.14609,-0.0131 -0.38515,-0.0131 -0.53125,0 -0.14609,0.0132 -0.0266,0.0239 0.26563,0.0239 0.29219,0 0.41172,-0.0108 0.26562,-0.0239 z m 1.03125,-0.0623 c -0.1289,-0.0135 -0.33984,-0.0135 -0.46875,0 -0.1289,0.0135 -0.0234,0.0245 0.23438,0.0245 0.25781,0 0.36328,-0.011 0.23437,-0.0245 z m 0.87361,-0.0626 c -0.12968,-0.0135 -0.32655,-0.0133 -0.4375,5e-4 -0.11095,0.0138 -0.005,0.0249 0.23577,0.0246 0.24062,-2.5e-4 0.3314,-0.0116 0.20173,-0.0251 l 0,0 z m 0.84514,-0.0621 c -0.11172,-0.0139 -0.29453,-0.0139 -0.40625,0 -0.11172,0.0139 -0.0203,0.0252 0.20313,0.0252 0.22344,0 0.31484,-0.0113 0.20312,-0.0252 z m -120.3125,-7.24618 c -0.043,-0.0173 -0.11328,-0.0173 -0.15625,0 -0.043,0.0173 -0.008,0.0315 0.0781,0.0315 0.0859,0 0.12109,-0.0142 0.0781,-0.0315 z m 3.0625,-0.5625 c -0.043,-0.0173 -0.11328,-0.0173 -0.15625,0 -0.043,0.0173 -0.008,0.0315 0.0781,0.0315 0.0859,0 0.12109,-0.0142 0.0781,-0.0315 z m 1.3125,-0.25 c -0.043,-0.0173 -0.11328,-0.0173 -0.15625,0 -0.043,0.0173 -0.008,0.0315 0.0781,0.0315 0.0859,0 0.12109,-0.0142 0.0781,-0.0315 z m 1,-0.1875 c -0.043,-0.0173 -0.11328,-0.0173 -0.15625,0 -0.043,0.0173 -0.008,0.0315 0.0781,0.0315 0.0859,0 0.12109,-0.0142 0.0781,-0.0315 z m 0.3125,-0.0625 c -0.043,-0.0173 -0.11328,-0.0173 -0.15625,0 -0.043,0.0173 -0.008,0.0315 0.0781,0.0315 0.0859,0 0.12109,-0.0142 0.0781,-0.0315 z m 0.3125,-0.0625 c -0.043,-0.0173 -0.11328,-0.0173 -0.15625,0 -0.043,0.0173 -0.008,0.0315 0.0781,0.0315 0.0859,0 0.12109,-0.0142 0.0781,-0.0315 z m 0.3125,-0.0625 c -0.043,-0.0173 -0.11328,-0.0173 -0.15625,0 -0.043,0.0173 -0.008,0.0315 0.0781,0.0315 0.0859,0 0.12109,-0.0142 0.0781,-0.0315 z m 0.3125,-0.0625 c -0.043,-0.0173 -0.11328,-0.0173 -0.15625,0 -0.043,0.0173 -0.008,0.0315 0.0781,0.0315 0.0859,0 0.12109,-0.0142 0.0781,-0.0315 z m 0.3125,-0.0625 c -0.043,-0.0173 -0.11328,-0.0173 -0.15625,0 -0.043,0.0173 -0.008,0.0315 0.0781,0.0315 0.0859,0 0.12109,-0.0142 0.0781,-0.0315 z m 0.3125,-0.0625 c -0.043,-0.0173 -0.11328,-0.0173 -0.15625,0 -0.043,0.0173 -0.008,0.0315 0.0781,0.0315 0.0859,0 0.12109,-0.0142 0.0781,-0.0315 z m 0.3125,-0.0625 c -0.043,-0.0173 -0.11328,-0.0173 -0.15625,0 -0.043,0.0173 -0.008,0.0315 0.0781,0.0315 0.0859,0 0.12109,-0.0142 0.0781,-0.0315 z m 0.3125,-0.0625 c -0.043,-0.0173 -0.11328,-0.0173 -0.15625,0 -0.043,0.0173 -0.008,0.0315 0.0781,0.0315 0.0859,0 0.12109,-0.0142 0.0781,-0.0315 z m 0.3125,-0.0625 c -0.043,-0.0173 -0.11328,-0.0173 -0.15625,0 -0.043,0.0173 -0.008,0.0315 0.0781,0.0315 0.0859,0 0.12109,-0.0142 0.0781,-0.0315 z m 1.1875,-0.25 c -0.043,-0.0173 -0.11328,-0.0173 -0.15625,0 -0.043,0.0173 -0.008,0.0315 0.0781,0.0315 0.0859,0 0.12109,-0.0142 0.0781,-0.0315 z m 0.3125,-0.0625 c -0.043,-0.0173 -0.11328,-0.0173 -0.15625,0 -0.043,0.0173 -0.008,0.0315 0.0781,0.0315 0.0859,0 0.12109,-0.0142 0.0781,-0.0315 z m 0.51563,-0.0836 c 0.125,-0.0537 0.125,-0.0537 0,-0.0519 -0.0688,10e-4 -0.19531,0.0243 -0.28125,0.0519 l -0.15625,0.05 0.15625,0.002 c 0.0859,10e-4 0.2125,-0.0223 0.28125,-0.0519 l 0,0 z m 1.48437,-0.3539 c -0.043,-0.0173 -0.11328,-0.0173 -0.15625,0 -0.043,0.0173 -0.008,0.0315 0.0781,0.0315 0.0859,0 0.12109,-0.0142 0.0781,-0.0315 z m 0.73438,-0.15453 c 0.11307,-0.0718 -0.27683,-0.005 -0.46875,0.0802 -0.0853,0.0379 -0.0457,0.0434 0.125,0.0174 0.1375,-0.021 0.29219,-0.0649 0.34375,-0.0976 z m 0.35807,-0.0918 c -0.0208,-0.0208 -0.0747,-0.023 -0.11979,-0.005 -0.0499,0.0199 -0.0351,0.0348 0.0378,0.0378 0.0659,0.003 0.1028,-0.0121 0.082,-0.0328 z m 0.70443,-0.15817 c 0.11307,-0.0718 -0.27683,-0.005 -0.46875,0.0802 -0.0853,0.0379 -0.0457,0.0434 0.125,0.0174 0.1375,-0.021 0.29219,-0.0649 0.34375,-0.0976 z m 0.35807,-0.0918 c -0.0208,-0.0208 -0.0747,-0.023 -0.11979,-0.005 -0.0499,0.0199 -0.0351,0.0348 0.0378,0.0378 0.0659,0.003 0.1028,-0.0121 0.082,-0.0328 z m 0.70443,-0.15817 c 0.11307,-0.0718 -0.27683,-0.005 -0.46875,0.0802 -0.0853,0.0379 -0.0457,0.0434 0.125,0.0174 0.1375,-0.021 0.29219,-0.0649 0.34375,-0.0976 z m 0.29557,-0.0918 c -0.0208,-0.0208 -0.0747,-0.023 -0.11979,-0.005 -0.0499,0.0199 -0.0351,0.0348 0.0378,0.0378 0.0659,0.003 0.1028,-0.0121 0.082,-0.0328 z m 0.25,-0.0625 c -0.0208,-0.0208 -0.0747,-0.023 -0.11979,-0.005 -0.0499,0.0199 -0.0351,0.0348 0.0378,0.0378 0.0659,0.003 0.1028,-0.0121 0.082,-0.0328 z m 0.25,-0.0625 c -0.0208,-0.0208 -0.0747,-0.023 -0.11979,-0.005 -0.0499,0.0199 -0.0351,0.0348 0.0378,0.0378 0.0659,0.003 0.1028,-0.0121 0.082,-0.0328 z m 0.25,-0.0625 c -0.0208,-0.0208 -0.0747,-0.023 -0.11979,-0.005 -0.0499,0.0199 -0.0351,0.0348 0.0378,0.0378 0.0659,0.003 0.1028,-0.0121 0.082,-0.0328 z m 0.61068,-0.16075 c 0.0748,-0.0722 -0.2638,-0.002 -0.40625,0.0847 -0.061,0.0369 -0.0173,0.0426 0.125,0.0162 0.12031,-0.0223 0.24687,-0.0677 0.28125,-0.10089 z m 0.46875,-0.11399 c 0.0833,-0.0539 0.0833,-0.0602 0,-0.0571 -0.0516,0.002 -0.15,0.0276 -0.21875,0.0571 -0.125,0.0537 -0.125,0.0537 0,0.0572 0.0688,0.002 0.16719,-0.0238 0.21875,-0.0572 z m 0.4375,-0.125 c 0.0833,-0.0539 0.0833,-0.0602 0,-0.0571 -0.0516,0.002 -0.15,0.0276 -0.21875,0.0571 -0.125,0.0537 -0.125,0.0537 0,0.0572 0.0688,0.002 0.16719,-0.0238 0.21875,-0.0572 z"
       id="path4222"
       inkscape:connector-curvature="0"
       transform="translate(0,662.59836)" />
    <path
       style="opacity:1;fill:#00ff00;fill-opacity:1;stroke:#000000;stroke-width:0.0125;stroke-linecap:round;stroke-linejoin:miter;stroke-miterlimit:4;stroke-dasharray:none;stroke-dashoffset:0;stroke-opacity:0.04166667"
       d="m 237.33779,442.91151 8.4375,-0.0651 -8.40625,-0.0299 -8.40625,-0.0299 0,-53.13195 0,-53.13194 0.6875,0.0635 c 0.41634,0.0385 0.6875,0.0143 0.6875,-0.0612 0,-0.0756 0.29565,-0.10178 0.75,-0.0665 0.44396,0.0344 0.75,0.008 0.75,-0.0638 0,-0.0722 0.28052,-0.096 0.6875,-0.0585 0.42064,0.0389 0.6875,0.0146 0.6875,-0.0625 0,-0.0771 0.26686,-0.10135 0.6875,-0.0625 0.42064,0.0389 0.6875,0.0146 0.6875,-0.0625 0,-0.0771 0.26686,-0.10135 0.6875,-0.0625 0.42064,0.0389 0.6875,0.0146 0.6875,-0.0625 0,-0.0771 0.26686,-0.10135 0.6875,-0.0625 0.41634,0.0385 0.6875,0.0143 0.6875,-0.0612 0,-0.0756 0.29601,-0.10175 0.75127,-0.0664 0.47592,0.0369 0.72336,0.0131 0.67512,-0.0649 -0.0483,-0.0781 0.18,-0.0995 0.62373,-0.0586 0.42971,0.0397 0.69988,0.016 0.69988,-0.0614 0,-0.0771 0.26686,-0.10135 0.6875,-0.0625 0.42064,0.0389 0.6875,0.0146 0.6875,-0.0625 0,-0.0772 0.26791,-0.10125 0.69143,-0.0621 0.43926,0.0406 0.66358,0.0188 0.61506,-0.0597 -0.0486,-0.0786 0.17767,-0.10005 0.62107,-0.059 0.44037,0.0408 0.69744,0.0167 0.69744,-0.0653 0,-0.0818 0.25564,-0.10623 0.69143,-0.066 0.43926,0.0406 0.66358,0.0188 0.61506,-0.0597 -0.0486,-0.0786 0.17767,-0.10005 0.62107,-0.059 0.44037,0.0408 0.69744,0.0167 0.69744,-0.0653 0,-0.0818 0.25564,-0.10623 0.69143,-0.066 0.45316,0.0419 0.66427,0.0199 0.61262,-0.0636 -0.0517,-0.0837 0.16312,-0.10516 0.625,-0.0625 0.44773,0.0414 0.67602,0.0201 0.62744,-0.0585 -0.0486,-0.0786 0.17971,-0.0999 0.62752,-0.0584 0.46238,0.0428 0.67681,0.0213 0.625,-0.0625 -0.0518,-0.0838 0.16071,-0.10546 0.61855,-0.0631 0.40236,0.0372 0.69744,0.0143 0.69744,-0.0542 0,-0.0653 0.28073,-0.0987 0.62384,-0.0742 0.36054,0.0257 0.59376,-0.004 0.55256,-0.0708 -0.042,-0.068 0.21743,-0.0886 0.63261,-0.0502 0.47566,0.044 0.67751,0.0225 0.62256,-0.0665 -0.055,-0.0889 0.14691,-0.1105 0.62248,-0.0666 0.46188,0.0427 0.67672,0.0212 0.625,-0.0625 -0.0517,-0.0837 0.16312,-0.10516 0.625,-0.0625 0.45757,0.0423 0.6765,0.0208 0.62576,-0.0613 -0.0503,-0.0813 0.14866,-0.10642 0.55857,-0.0705 0.35014,0.0307 0.63662,0.006 0.63662,-0.0541 0,-0.0605 0.28433,-0.0829 0.63185,-0.0498 0.42227,0.0402 0.605,0.0167 0.55089,-0.0709 -0.054,-0.0874 0.13109,-0.11243 0.55564,-0.0752 0.35014,0.0307 0.63662,0.006 0.63662,-0.0541 0,-0.0605 0.28433,-0.0829 0.63185,-0.0498 0.42227,0.0402 0.605,0.0167 0.55089,-0.0709 -0.054,-0.0874 0.13109,-0.11243 0.55564,-0.0752 0.38697,0.0339 0.63662,0.006 0.63662,-0.0721 0,-0.077 0.19879,-0.10121 0.49997,-0.0608 0.27499,0.0369 0.53418,0.0117 0.57598,-0.0559 0.045,-0.0727 0.32583,-0.0886 0.68753,-0.0389 0.42206,0.058 0.61152,0.0402 0.61152,-0.0577 0,-0.14197 0.20589,-0.15881 1.75,-0.14315 0.60879,0.006 0.76549,-0.0253 0.625,-0.12545 -0.13914,-0.0992 -0.0343,-0.11552 0.40625,-0.0633 0.39593,0.047 0.59375,0.0239 0.59375,-0.0692 0,-0.0935 0.18559,-0.11416 0.5625,-0.0625 0.37691,0.0517 0.5625,0.031 0.5625,-0.0625 0,-0.0935 0.18559,-0.11416 0.5625,-0.0625 0.3758,0.0515 0.5625,0.031 0.5625,-0.062 0,-0.0901 0.17609,-0.11545 0.49997,-0.072 0.27499,0.0369 0.53074,0.0173 0.56834,-0.0435 0.0376,-0.0608 0.351,-0.0825 0.69646,-0.0481 0.46089,0.0459 0.60399,0.0235 0.53752,-0.084 -0.0666,-0.10776 0.0469,-0.12458 0.42857,-0.0635 0.33381,0.0534 0.51914,0.0358 0.51914,-0.0491 0,-0.0834 0.16189,-0.10177 0.43887,-0.0498 0.24722,0.0464 0.50667,0.0261 0.59413,-0.0465 0.0854,-0.0709 0.35196,-0.11334 0.59238,-0.0944 0.24041,0.019 0.50757,-0.0208 0.59368,-0.0884 0.0861,-0.0676 0.32299,-0.0896 0.5264,-0.0489 0.20342,0.0407 0.40277,0.0207 0.44302,-0.0444 0.0403,-0.0651 0.35583,-0.0903 0.70129,-0.0559 0.46199,0.046 0.60407,0.0236 0.53723,-0.0845 -0.0661,-0.10701 0.0329,-0.12695 0.36377,-0.0732 0.25006,0.0406 0.48629,0.0226 0.52496,-0.04 0.0387,-0.0626 0.29283,-0.0923 0.56479,-0.0661 0.28861,0.0278 0.49448,-0.006 0.49448,-0.082 0,-0.079 0.19508,-0.10342 0.49997,-0.0625 0.27499,0.0369 0.5306,0.0175 0.56803,-0.043 0.0374,-0.0606 0.29056,-0.0887 0.56252,-0.0625 0.28397,0.0274 0.49448,-0.007 0.49448,-0.0799 0,-0.0806 0.26453,-0.1 0.71875,-0.0527 0.52156,0.0543 0.65016,0.0405 0.46875,-0.0502 -0.18427,-0.0922 -0.0528,-0.10972 0.5,-0.0668 0.49177,0.0382 0.66392,0.0205 0.5,-0.0516 -0.21642,-0.0951 -0.19963,-0.11109 0.125,-0.11895 l 0.375,-0.009 -0.0182,1.03155 -0.0182,1.03154 0.0946,-0.875 c 0.13487,-1.24782 0.18518,-1.33027 0.76878,-1.25992 0.29946,0.0361 0.48549,0.007 0.48549,-0.076 0,-0.0848 0.18489,-0.10971 0.5,-0.0674 0.28926,0.0388 0.5,0.0154 0.5,-0.0556 0,-0.0675 0.18281,-0.11058 0.40625,-0.0958 0.22344,0.0148 0.50481,-0.0151 0.62528,-0.0664 0.12046,-0.0513 0.35608,-0.0589 0.52359,-0.0169 0.1675,0.042 0.33901,0.0207 0.38111,-0.0474 0.0421,-0.0681 0.27056,-0.099 0.50767,-0.0687 0.26069,0.0334 0.4311,0.002 0.4311,-0.0806 0,-0.0862 0.18246,-0.11126 0.5,-0.0687 0.28926,0.0388 0.5,0.0154 0.5,-0.0556 0,-0.0675 0.18362,-0.10686 0.40805,-0.0875 0.22443,0.0193 0.46759,-0.002 0.54037,-0.0466 0.0728,-0.045 0.31102,-0.0592 0.52945,-0.0315 0.23288,0.0295 0.39713,-0.006 0.39713,-0.0853 0,-0.086 0.18288,-0.11099 0.5,-0.0685 0.30465,0.0409 0.5,0.0165 0.5,-0.0624 0,-0.0781 0.17341,-0.10132 0.4375,-0.0585 0.2723,0.0442 0.4375,0.0203 0.4375,-0.0631 0,-0.0877 0.20544,-0.10692 0.59375,-0.0555 0.43956,0.0582 0.54506,0.0438 0.40625,-0.0555 -0.14113,-0.10095 -0.0561,-0.11914 0.34375,-0.0736 0.32202,0.0367 0.53125,0.01 0.53125,-0.0689 0,-0.0781 0.17341,-0.10132 0.4375,-0.0585 0.2513,0.0408 0.4375,0.0187 0.4375,-0.0518 0,-0.0727 0.17868,-0.0893 0.4375,-0.0407 0.30589,0.0574 0.4375,0.0362 0.4375,-0.0705 0,-0.10078 0.14854,-0.13525 0.4375,-0.10152 0.24062,0.0281 0.4375,-3e-5 0.4375,-0.0625 0,-0.0625 0.19687,-0.0906 0.4375,-0.0625 0.24062,0.0281 0.4375,-0.002 0.4375,-0.0658 0,-0.0671 0.25264,-0.0834 0.59375,-0.0383 0.44053,0.0584 0.54536,0.0439 0.40625,-0.0559 -0.14225,-0.10204 -0.0744,-0.11882 0.28125,-0.0695 0.28963,0.0402 0.46875,0.014 0.46875,-0.0685 0,-0.0828 0.16628,-0.10652 0.4375,-0.0625 0.25868,0.042 0.4375,0.0193 0.4375,-0.0556 0,-0.0696 0.15469,-0.11425 0.34375,-0.0992 0.18906,0.0151 0.44303,-0.0152 0.56437,-0.0672 0.12134,-0.052 0.33227,-0.0653 0.46875,-0.0296 0.13647,0.0357 0.24813,0.007 0.24813,-0.0648 0,-0.0784 0.17307,-0.10156 0.4375,-0.0587 0.25868,0.042 0.4375,0.0193 0.4375,-0.0556 0,-0.0696 0.15472,-0.11033 0.34382,-0.0905 0.18911,0.0198 0.4173,-0.009 0.50711,-0.0648 0.0898,-0.0555 0.3007,-0.0664 0.46867,-0.0243 0.18452,0.0463 0.3054,0.0225 0.3054,-0.0602 0,-0.0752 0.15469,-0.12449 0.34375,-0.10944 0.18906,0.0151 0.44219,-0.0149 0.5625,-0.0664 0.12031,-0.0516 0.30132,-0.0621 0.40224,-0.0234 0.10093,0.0387 0.22025,0.011 0.26516,-0.0617 0.0449,-0.0727 0.24141,-0.10019 0.43666,-0.0611 0.19525,0.0391 0.39144,0.012 0.43598,-0.06 0.0445,-0.0721 0.21202,-0.0981 0.37218,-0.058 0.16016,0.0402 0.32815,0.0133 0.37331,-0.0598 0.0452,-0.0731 0.20328,-0.12116 0.35141,-0.10687 0.14812,0.0143 0.36774,-0.0165 0.48806,-0.0685 0.12031,-0.0519 0.30132,-0.0628 0.40224,-0.024 0.10093,0.0387 0.21712,0.016 0.25822,-0.0505 0.0411,-0.0665 0.22571,-0.11978 0.41025,-0.11841 0.18455,0.001 0.50429,-0.0278 0.71054,-0.0648 0.48368,-0.0868 1.18034,-0.19493 1.50631,-0.23382 0.14097,-0.0168 0.32429,-0.0726 0.40737,-0.12394 0.0831,-0.0513 0.25832,-0.0593 0.38942,-0.0177 0.13109,0.0416 0.27657,0.0138 0.32328,-0.0617 0.0501,-0.081 0.23391,-0.10468 0.44802,-0.0577 0.20679,0.0454 0.3631,0.0274 0.3631,-0.042 0,-0.0669 0.12656,-0.1264 0.28125,-0.13212 0.46129,-0.0171 0.8924,-0.092 1.125,-0.19546 0.12031,-0.0535 0.30132,-0.0656 0.40224,-0.0269 0.10093,0.0387 0.21621,0.0175 0.2562,-0.0472 0.04,-0.0647 0.19647,-0.11875 0.34775,-0.12014 0.44405,-0.004 0.90296,-0.0747 1.04156,-0.16038 0.0709,-0.0438 0.51804,-0.11787 0.99369,-0.16457 0.47564,-0.0467 0.92106,-0.12759 0.98981,-0.17973 0.0688,-0.0521 0.37812,-0.12374 0.6875,-0.15911 0.30937,-0.0354 1.2375,-0.2151 2.0625,-0.39942 0.825,-0.18431 1.68281,-0.33187 1.90625,-0.32791 0.22343,0.004 0.40625,-0.0421 0.40625,-0.10227 0,-0.0891 0.5386,-0.21213 1.4375,-0.32841 0.0688,-0.009 0.22586,-0.0599 0.34914,-0.11328 0.12328,-0.0534 0.25872,-0.0625 0.301,-0.0203 0.0423,0.0423 0.14619,0.0193 0.23093,-0.051 0.0847,-0.0703 0.34305,-0.14016 0.57401,-0.15517 0.23095,-0.015 0.45297,-0.0721 0.49338,-0.12684 0.0404,-0.0548 0.2654,-0.11234 0.5,-0.12798 0.23459,-0.0156 0.50066,-0.075 0.59126,-0.13181 0.0906,-0.0569 0.35778,-0.10886 0.59375,-0.11555 0.23596,-0.007 0.42903,-0.0466 0.42903,-0.0888 0,-0.0755 1.13353,-0.40186 1.50219,-0.43245 0.10434,-0.009 0.25903,-0.0586 0.34375,-0.11095 0.0847,-0.0524 0.20642,-0.0629 0.27042,-0.0233 0.064,0.0396 0.15226,0.0138 0.19614,-0.0572 0.0439,-0.071 0.12825,-0.0991 0.1875,-0.0625 0.0593,0.0366 0.13979,0.0147 0.17898,-0.0487 0.0392,-0.0634 0.18371,-0.0859 0.32114,-0.05 0.13966,0.0365 0.24988,0.004 0.24988,-0.0742 0,-0.0768 0.12547,-0.13957 0.27883,-0.13957 0.15336,0 0.56117,-0.10549 0.90625,-0.23443 0.34508,-0.12893 1.10554,-0.38883 1.68992,-0.57755 1.38454,-0.44713 3.54001,-1.5005 4.875,-2.38238 1.69842,-1.12197 1.88632,-1.19577 3.10874,-1.22088 0.99088,-0.0204 1.15325,0.0121 1.90019,0.37968 1.15074,0.56631 2.70225,1.75476 4.28928,3.28556 1.58886,1.53256 5.57679,5.79934 5.57679,5.96673 0,0.0631 1.08281,1.1813 2.40625,2.48491 4.43138,4.36496 5.98056,5.20921 10.09375,5.50077 1.30653,0.0926 16.32061,0.0679 20,-0.0329 1.27187,-0.0349 3.18437,-0.0882 4.25,-0.11863 1.06562,-0.0304 2.69687,-0.0683 3.625,-0.0843 0.92812,-0.016 1.74375,-0.0644 1.8125,-0.10753 0.0688,-0.0432 0.84333,-0.0645 1.72131,-0.0473 0.87796,0.0171 1.6242,-0.014 1.6583,-0.0691 0.0341,-0.0552 0.76441,-0.0811 1.62294,-0.0575 0.8854,0.0242 1.53137,-0.005 1.4926,-0.0679 -0.0388,-0.0628 0.64141,-0.0921 1.57416,-0.0677 0.91927,0.024 1.56836,-0.003 1.47411,-0.0623 -0.0941,-0.0587 0.60368,-0.0868 1.58158,-0.0635 0.97926,0.0233 1.61236,-0.002 1.4375,-0.0578 -0.20392,-0.0649 0.0784,-0.099 0.8125,-0.0981 0.61875,7.5e-4 1.82812,-0.0345 2.6875,-0.0784 0.85937,-0.0439 2.19532,-0.10609 2.96878,-0.13819 1.31384,-0.0545 2.39785,-0.10197 5.65622,-0.24749 0.72187,-0.0322 2.04375,-0.0913 2.9375,-0.13117 0.89375,-0.0399 2.4125,-0.0758 3.375,-0.0798 1.016,-0.004 1.61892,-0.0476 1.4375,-0.10346 -0.17188,-0.0529 0.34471,-0.0778 1.14796,-0.0553 0.80326,0.0225 1.49284,0.009 1.53239,-0.031 0.0395,-0.0395 0.64875,-0.086 1.35377,-0.10323 3.91014,-0.0956 8.62598,-0.86031 13.41585,-2.17561 4.14153,-1.13726 11.08998,-3.39734 25.20848,-8.19943 12.32066,-4.1906 18.54512,-6.1241 21.68458,-6.73589 l 1.78054,-0.34698 0.59446,0.54191 c 0.32695,0.29805 2.33822,2.23601 4.46947,4.30657 9.24548,8.98223 15.02813,14.02706 21.02655,18.34371 l 1.77653,1.27847 0.005,51.30068 0.005,51.30068 -4.96875,-0.0821 c -7.31406,-0.12079 -147.01582,-0.0957 -211.46875,0.038 -30.66249,0.0636 -61.57187,0.10544 -68.68749,0.093 -12.46645,-0.0218 -12.63032,-0.025 -4.50009,-0.0878 z m 47.34588,-3.53125 -0.0291,-3.40625 -0.0354,3.34311 -0.0354,3.34312 -11.84171,0.0325 -11.84171,0.0325 11.90625,0.0306 11.90625,0.0306 -0.0291,-3.40625 z m 15.62481,3.3125 -15.2168,-0.0323 -0.0352,-3.53075 -0.0352,-3.53075 -0.0292,3.59375 -0.0292,3.59375 15.28125,-0.0308 15.28125,-0.0308 -15.21681,-0.0322 z m -15.38334,-21.40625 c -0.003,-2.68756 -0.0305,-3.42523 -0.093,-2.5 -0.0488,0.72187 -0.0852,3.75937 -0.0809,6.75 0.007,4.83293 0.0173,5.11089 0.093,2.5 0.0468,-1.61563 0.0832,-4.65313 0.0809,-6.75 z m 0.004,-5.90625 c -0.0263,-0.29219 -0.0479,-0.0531 -0.0479,0.53125 0,0.58437 0.0215,0.82343 0.0479,0.53125 0.0263,-0.29219 0.0263,-0.77032 0,-1.0625 z m 0.24906,-80.62277 c -0.0278,-0.22466 -0.0512,-0.071 -0.0519,0.34152 -7.5e-4,0.4125 0.0221,0.59632 0.0506,0.40848 0.0285,-0.18783 0.0291,-0.52533 0.001,-0.75 z m 131.06803,-0.42798 c -0.0846,-0.0342 -0.25337,-0.0363 -0.375,-0.005 -0.12161,0.0317 -0.0524,0.0597 0.15388,0.0623 0.20625,0.003 0.30576,-0.0234 0.22112,-0.0576 l 0,0 z m 2.875,-0.125 c -0.0846,-0.0342 -0.25337,-0.0363 -0.375,-0.005 -0.12161,0.0317 -0.0524,0.0597 0.15388,0.0623 0.20625,0.003 0.30576,-0.0234 0.22112,-0.0576 l 0,0 z m 2.875,-0.125 c -0.0846,-0.0342 -0.25337,-0.0363 -0.375,-0.005 -0.12161,0.0317 -0.0524,0.0597 0.15388,0.0623 0.20625,0.003 0.30576,-0.0234 0.22112,-0.0576 l 0,0 z m 2.875,-0.125 c -0.0846,-0.0342 -0.25337,-0.0363 -0.375,-0.005 -0.12161,0.0317 -0.0524,0.0597 0.15388,0.0623 0.20625,0.003 0.30576,-0.0234 0.22112,-0.0576 l 0,0 z m 2.75,-0.125 c -0.0846,-0.0342 -0.25337,-0.0363 -0.375,-0.005 -0.12161,0.0317 -0.0524,0.0597 0.15388,0.0623 0.20625,0.003 0.30576,-0.0234 0.22112,-0.0576 l 0,0 z m 2.74763,-0.12579 c -0.0859,-0.0347 -0.22657,-0.0347 -0.3125,0 -0.0859,0.0347 -0.0156,0.0631 0.15625,0.0631 0.17187,0 0.24218,-0.0284 0.15625,-0.0631 z m -81.78125,-15.41721 c -0.10313,-0.0667 -0.24375,-0.12118 -0.3125,-0.12118 -0.0687,0 -0.0406,0.0545 0.0625,0.12118 0.10312,0.0666 0.24375,0.12117 0.3125,0.12117 0.0688,0 0.0406,-0.0545 -0.0625,-0.12117 z m -0.75,-0.375 c -0.10313,-0.0667 -0.24375,-0.12118 -0.3125,-0.12118 -0.0687,0 -0.0406,0.0545 0.0625,0.12118 0.10312,0.0666 0.24375,0.12117 0.3125,0.12117 0.0688,0 0.0406,-0.0545 -0.0625,-0.12117 z"
       id="path4224"
       inkscape:connector-curvature="0"
       transform="translate(0,662.59836)" />
    <path
       style="opacity:1;fill:#00ff00;fill-opacity:1;stroke:#000000;stroke-width:0.0125;stroke-linecap:round;stroke-linejoin:miter;stroke-miterlimit:4;stroke-dasharray:none;stroke-dashoffset:0;stroke-opacity:0.04166667"
       d="m 235.40029,442.91524 6.375,-0.0696 -6.40625,-0.0295 -6.40625,-0.0295 0,-53.13427 0,-53.13427 0.60037,0.0319 c 0.3302,0.0175 0.66689,-0.009 0.7482,-0.0595 0.0813,-0.0503 0.41582,-0.0935 0.74337,-0.0962 1.10694,-0.009 2.0093,-0.0782 2.14958,-0.1649 0.0768,-0.0474 0.37954,-0.0715 0.67286,-0.0535 0.29332,0.018 0.6027,-0.0101 0.6875,-0.0625 0.0848,-0.0524 0.39418,-0.0805 0.6875,-0.0625 0.29332,0.018 0.6027,-0.0101 0.6875,-0.0625 0.0848,-0.0524 0.39418,-0.0805 0.6875,-0.0625 0.29332,0.018 0.59165,-0.003 0.66296,-0.0473 0.0713,-0.0441 0.70349,-0.10862 1.40485,-0.14345 0.70136,-0.0348 1.33115,-0.0979 1.39954,-0.14016 0.0684,-0.0423 0.36204,-0.0654 0.65256,-0.0514 0.29051,0.014 0.62933,-0.017 0.75292,-0.0689 0.12358,-0.0519 0.44702,-0.0645 0.71875,-0.028 0.28408,0.0381 0.49404,0.0143 0.49404,-0.0561 0,-0.0673 0.26719,-0.11116 0.59375,-0.0975 0.32656,0.0137 0.69487,-0.0173 0.81846,-0.0689 0.12358,-0.0516 0.44702,-0.064 0.71875,-0.0275 0.28408,0.0381 0.49404,0.0143 0.49404,-0.0561 0,-0.0673 0.26719,-0.11116 0.59375,-0.0975 0.32656,0.0137 0.69487,-0.0173 0.81846,-0.0689 0.12358,-0.0516 0.44702,-0.064 0.71875,-0.0275 0.29059,0.039 0.49404,0.0147 0.49404,-0.0589 0,-0.0726 0.26229,-0.107 0.62508,-0.0819 0.34379,0.0238 0.62504,-0.004 0.625,-0.0625 -5e-5,-0.0582 0.2812,-0.0863 0.625,-0.0625 0.34379,0.0238 0.62504,-0.003 0.625,-0.0597 -5e-5,-0.0567 0.26711,-0.0918 0.59367,-0.0781 0.32656,0.0137 0.67903,-0.0112 0.78327,-0.0554 0.10423,-0.0442 0.68022,-0.0934 1.27996,-0.10938 0.59975,-0.016 1.09102,-0.0767 1.09173,-0.13491 7.5e-4,-0.0582 0.28257,-0.0863 0.62637,-0.0625 0.34379,0.0238 0.62504,-0.006 0.625,-0.0663 -5e-5,-0.0603 0.27929,-0.0828 0.62075,-0.05 0.34146,0.0328 0.63677,0.0163 0.65625,-0.0366 0.0195,-0.0529 0.54167,-0.11482 1.16042,-0.1375 0.61875,-0.0227 1.15504,-0.0811 1.19175,-0.12994 0.0367,-0.0488 0.58461,-0.10503 1.21754,-0.125 0.63293,-0.02 1.15133,-0.0712 1.15199,-0.11392 0.001,-0.0708 1.47858,-0.23376 2.87622,-0.31728 0.30937,-0.0185 0.90348,-0.0845 1.32023,-0.1467 0.41676,-0.0622 0.99871,-0.089 1.29323,-0.0595 0.38074,0.0381 0.50995,0.0122 0.44711,-0.0895 -0.0618,-0.0999 0.058,-0.13244 0.39776,-0.10791 0.26737,0.0193 0.55629,-0.008 0.64203,-0.0612 0.0857,-0.053 0.3381,-0.0806 0.56081,-0.0615 0.22271,0.0192 0.47584,-0.009 0.5625,-0.0625 0.0867,-0.0536 0.33979,-0.0817 0.5625,-0.0625 0.22271,0.0192 0.47259,-0.007 0.55529,-0.058 0.0827,-0.0511 0.63023,-0.1048 1.21675,-0.11932 0.58651,-0.0145 1.06647,-0.0729 1.06659,-0.12973 1.1e-4,-0.0568 0.19406,-0.0866 0.43099,-0.0662 0.23694,0.0204 0.47198,-0.004 0.52232,-0.0544 0.0503,-0.0503 0.27896,-0.0564 0.50807,-0.0134 0.23177,0.0435 0.48731,0.0194 0.57605,-0.0542 0.0877,-0.0728 0.57929,-0.15888 1.09238,-0.19129 0.51309,-0.0324 1.03175,-0.0979 1.15258,-0.14553 0.12083,-0.0476 0.41614,-0.0498 0.65625,-0.005 0.288,0.054 0.43656,0.0342 0.43656,-0.0583 0,-0.0822 0.16889,-0.12569 0.40805,-0.10509 0.22443,0.0193 0.47882,-0.009 0.56532,-0.062 0.0865,-0.0535 0.31073,-0.0811 0.49828,-0.0614 0.18755,0.0197 0.40113,-0.001 0.47463,-0.0468 0.0735,-0.0454 0.5516,-0.10899 1.06243,-0.14126 0.51083,-0.0323 1.02968,-0.0984 1.153,-0.14702 0.12331,-0.0486 0.41989,-0.0566 0.65905,-0.0178 0.25749,0.0418 0.4052,0.0226 0.36216,-0.047 -0.04,-0.0647 0.0634,-0.1176 0.22975,-0.1176 0.16634,0 0.54935,-0.0339 0.85113,-0.0754 l 0.5487,-0.0754 -0.02,0.79416 -0.02,0.79415 0.0936,-0.625 c 0.16716,-1.11605 0.0879,-1.06353 1.70435,-1.12858 0.21065,-0.008 0.44158,-0.0516 0.5132,-0.0959 0.0716,-0.0442 0.52995,-0.10566 1.01854,-0.13646 0.48859,-0.0308 0.94121,-0.0887 1.00583,-0.1286 0.0646,-0.0399 0.47455,-0.0963 0.91096,-0.12527 0.43641,-0.029 0.87785,-0.0821 0.98098,-0.11805 0.34266,-0.1195 2.51687,-0.35444 2.5913,-0.28002 0.0403,0.0403 0.14406,0.0144 0.23068,-0.0575 0.0866,-0.0719 0.55019,-0.1417 1.03017,-0.15516 0.47999,-0.0135 0.84691,-0.0666 0.8154,-0.11822 -0.0315,-0.0516 0.18508,-0.1047 0.48132,-0.1181 0.29625,-0.0134 0.69197,-0.0308 0.8794,-0.0387 0.18742,-0.008 0.38027,-0.0538 0.42856,-0.10213 0.0483,-0.0483 0.27463,-0.0527 0.50298,-0.01 0.23063,0.0433 0.41519,0.0257 0.41519,-0.0394 0,-0.15431 2.25795,-0.44759 2.55836,-0.33231 0.1688,0.0648 0.206,0.0462 0.13553,-0.0679 -0.0706,-0.11418 7.5e-4,-0.14926 0.26074,-0.1283 0.19683,0.0159 0.44224,-0.002 0.54537,-0.0405 0.34042,-0.12599 3.02385,-0.48431 3.09489,-0.41327 0.0383,0.0383 0.13726,0.0135 0.21994,-0.0552 0.0827,-0.0686 0.46387,-0.14692 0.84709,-0.17399 0.38322,-0.0271 0.74719,-0.0804 0.80881,-0.11848 0.0616,-0.0381 0.42461,-0.0927 0.80665,-0.12139 0.38204,-0.0287 0.75153,-0.0873 0.82109,-0.13031 0.0696,-0.043 0.25868,-0.0777 0.42025,-0.0772 0.33143,0.001 0.76312,-0.0639 1.65975,-0.24976 0.33879,-0.0702 0.67629,-0.11867 0.75,-0.10762 0.0737,0.011 0.2184,-0.0135 0.32153,-0.0546 0.21704,-0.0865 3.1363,-0.55522 4,-0.64233 0.17187,-0.0173 0.39687,-0.0651 0.5,-0.10623 0.10312,-0.0411 1.17187,-0.24264 2.375,-0.44788 3.66294,-0.62486 3.80098,-0.65074 5.75,-1.07785 0.85937,-0.18832 1.70312,-0.34254 1.875,-0.3427 0.17187,-1.6e-4 0.36875,-0.0436 0.4375,-0.0966 0.0688,-0.0529 0.60312,-0.19179 1.1875,-0.30855 0.58437,-0.11676 1.73345,-0.37598 2.55351,-0.57604 0.82006,-0.20007 1.51801,-0.33677 1.551,-0.30378 0.033,0.033 0.12141,0.009 0.19649,-0.0528 0.14182,-0.11714 1.52841,-0.50201 2.074,-0.57567 0.17187,-0.0232 0.32656,-0.0531 0.34375,-0.0664 0.0172,-0.0133 0.0734,-0.0321 0.125,-0.0418 0.0516,-0.01 0.15898,-0.0591 0.23872,-0.10978 0.0797,-0.0507 0.23442,-0.0579 0.34375,-0.016 0.10933,0.0419 0.19878,0.0202 0.19878,-0.0484 0,-0.0686 0.18281,-0.15307 0.40625,-0.18774 0.40337,-0.0626 0.67677,-0.15103 2.71875,-0.87945 1.70502,-0.60822 4.43948,-2.0044 4.31623,-2.20382 -0.0777,-0.12568 0.76568,-0.79723 1.45126,-1.15562 0.4028,-0.21057 0.78963,-0.29224 1.48251,-0.313 0.65382,-0.0196 0.84294,0.005 0.625,0.0798 -0.26174,0.0904 -0.21486,0.1099 0.28862,0.12034 0.36619,0.008 0.57094,0.0613 0.52388,0.13746 -0.0725,0.11736 0.17751,0.18038 0.53217,0.13412 0.0865,-0.0113 0.2552,0.0366 0.375,0.10638 0.13499,0.0786 0.1556,0.12834 0.0542,0.1307 -0.09,0.002 -0.12649,0.0639 -0.0811,0.13732 0.0454,0.0734 0.16865,0.10047 0.27391,0.0601 0.68481,-0.26278 4.49908,3.21072 8.98405,8.1814 2.02226,2.24126 5.23224,5.36425 6.4752,6.29973 1.24471,0.93679 2.56143,1.62973 3.6854,1.93949 1.80188,0.49657 3.54363,0.55033 14.70118,0.45374 5.775,-0.05 10.97812,-0.10645 11.5625,-0.12545 1.85206,-0.0602 6.01555,-0.20861 7.3125,-0.26063 0.6875,-0.0276 1.95312,-0.0742 2.8125,-0.10365 0.85937,-0.0294 2.15312,-0.0895 2.875,-0.13345 1.11453,-0.0679 23.22476,-1.01055 24.5,-1.04456 0.75925,-0.0202 3.76648,-0.14702 4.9375,-0.20815 2.95206,-0.15411 3.7783,-0.22752 5.8125,-0.5164 6.25076,-0.88769 10.43536,-2.12553 32.5,-9.61376 13.79396,-4.68136 19.13863,-6.34591 22.4631,-6.99593 l 1.7756,-0.34718 0.54918,0.48435 c 0.30205,0.26639 2.31554,2.20016 4.4744,4.29727 7.29077,7.08219 11.58565,10.96254 16.55022,14.95278 1.34481,1.08089 5.07305,3.88479 5.84265,4.39408 l 0.46985,0.31094 0,51.26464 10e-6,51.26464 -85.71876,0 c -47.14532,0 -114.18125,0.0306 -148.96875,0.0679 -34.7875,0.0374 -60.38125,0.0366 -56.875,-0.002 l 0,5e-5 z m 49.28448,-2.28498 -0.028,-2.15625 -0.0375,2.09281 -0.0375,2.09282 -7.90323,0.0331 -7.90323,0.0331 7.96875,0.0303 7.96875,0.0303 -0.028,-2.15625 z m 6.56378,2.06252 -6.15174,-0.0336 -0.0408,-1.21758 -0.0409,-1.21757 -0.0262,1.28125 -0.0262,1.28125 6.21875,-0.0301 6.21875,-0.03 -6.15174,-0.0336 z m -6.32489,-21.53127 c -0.004,-2.32959 -0.0157,-2.49606 -0.091,-1.25 -0.0478,0.79062 -0.0839,3.18125 -0.0801,5.3125 l 0.007,3.875 0.0842,-2.625 c 0.0463,-1.44375 0.0823,-3.83438 0.0801,-5.3125 l 0,0 z m 0.25029,-86.34375 c -0.0314,-0.12032 -0.0572,-0.0219 -0.0572,0.21875 0,0.24062 0.0257,0.33906 0.0572,0.21875 0.0314,-0.12032 0.0314,-0.31719 0,-0.4375 z m 59.60464,-16.88211 c -0.0385,-0.0385 -0.13934,-8e-5 -0.22414,0.0853 -0.12253,0.12346 -0.10817,0.13781 0.07,0.07 0.12328,-0.0469 0.19265,-0.11684 0.15416,-0.15532 z m 1.09045,-0.35693 c -0.0859,-0.0347 -0.22657,-0.0347 -0.3125,0 -0.0859,0.0347 -0.0156,0.0631 0.15625,0.0631 0.17187,0 0.24218,-0.0284 0.15625,-0.0631 z"
       id="path4226"
       inkscape:connector-curvature="0"
       transform="translate(0,662.59836)" />
  </g>
</svg>
